<?xml version="1.0" encoding="utf-8"?>
<!-- Generator: Adobe Illustrator 16.0.0, SVG Export Plug-In . SVG Version: 6.00 Build 0)  -->
<!DOCTYPE svg PUBLIC "-//W3C//DTD SVG 1.1//EN" "http://www.w3.org/Graphics/SVG/1.1/DTD/svg11.dtd">
<svg version="1.1" id="Layer_1" xmlns="http://www.w3.org/2000/svg" xmlns:xlink="http://www.w3.org/1999/xlink" x="0px" y="0px"
	 width="360px" height="360px" viewBox="0 0 48 48" enable-background="new 0 0 48 48" xml:space="preserve">
<g>
	<path fill="#EFEFEF" d="M34.535,27.326l-8.234-2.662c0.17-0.957-0.236-1.907-1.013-2.454l4.5-13.918
		c0.127-0.394-0.089-0.817-0.483-0.944c-0.395-0.126-0.816,0.089-0.944,0.483l-4.502,13.926c-1.048,0.002-2.022,0.66-2.362,1.711
		c-0.423,1.308,0.294,2.71,1.602,3.132c0.906,0.293,1.85,0.029,2.489-0.59l8.486,2.744c0.077,0.024,0.155,0.036,0.231,0.036
		c0.317,0,0.611-0.202,0.714-0.52C35.145,27.877,34.929,27.454,34.535,27.326z"/>
	<g>
		<path fill="#EFEFEF" d="M24.083,45.625c-2.273,0-4.534-0.358-6.718-1.064C5.961,40.873-0.33,28.64,3.34,17.289
			C6.234,8.338,14.52,2.325,23.958,2.325c2.274,0,4.534,0.358,6.718,1.064C36.199,5.175,40.7,8.995,43.348,14.145
			c2.65,5.151,3.129,11.017,1.351,16.516C41.806,39.611,33.521,45.625,24.083,45.625z M23.958,3.825
			c-8.785,0-16.498,5.596-19.19,13.925C1.352,28.313,7.21,39.7,17.826,43.133c2.035,0.658,4.14,0.992,6.256,0.992
			c8.786,0,16.497-5.597,19.189-13.926c1.655-5.117,1.208-10.575-1.257-15.368c-2.466-4.795-6.657-8.352-11.801-10.015
			C28.179,4.158,26.074,3.825,23.958,3.825z"/>
	</g>
</g>
</svg>
