<?xml version="1.0" standalone="no"?>
<!DOCTYPE svg PUBLIC "-//W3C//DTD SVG 1.1//EN" "http://www.w3.org/Graphics/SVG/1.1/DTD/svg11.dtd" >
<svg xmlns="http://www.w3.org/2000/svg">
<metadata>Generated by IcoMoon</metadata>
<defs>
<font id="city72icons" horiz-adv-x="1024">
<font-face units-per-em="1024" ascent="960" descent="-64" />
<missing-glyph horiz-adv-x="1024" />
<glyph unicode="&#x20;" horiz-adv-x="512" d="" />
<glyph unicode="&#x2c;" glyph-name="uni2C" horiz-adv-x="1070" d="M864.266 494.908c0.144 3.574 0.532 7.086 0.532 10.69 0 151.102-122.5 273.604-273.604 273.604-142.562 0-259.534-109.066-272.322-248.32-12.114 2.19-24.536 3.512-37.284 3.512-115.312 0-208.804-93.49-208.804-208.804s93.492-208.804 208.804-208.804c2.438 0 4.782 0.276 7.2 0.37v-0.37h187.198v198.83l-82.034-81.356c-8.694-8.704-23.092-8.704-31.796 0l-31.642 31.456c-8.694 8.694-8.836 22.784-0.154 31.468l173.108 173.116c8.694 8.694 22.784 8.694 31.468 0l173.106-173.116c8.694-8.694 8.694-22.754 0-31.468l-31.468-31.456c-8.714-8.704-23.438-8.704-32.124 0l-82.074 81.356v-198.82h172.8v0.37c2.418-0.092 4.772-0.37 7.198-0.37 115.312 0 208.804 93.49 208.804 208.804 0.020 69.774-34.356 131.4-86.918 169.308z" />
<glyph unicode="&#x2e;" glyph-name="uni2E" horiz-adv-x="1070" d="M1023.938 536.774l-476.772 392.714-213.936-165.158v139.916h-145.788v-252.444l-147.184-113.632 86.39-109.154 60.794 49.214v-427.89h687.29v431.43l59.316-51.38z" />
<glyph unicode="&#x31;" glyph-name="uni31" horiz-adv-x="682" d="M341.272-64c14.882 0 28.398 7.1 36.796 18.706l303.65 417.996c6.486 8.396 8.396 18.706 8.396 28.398v0 0c0 3.208-0.614 5.802-1.298 9.012-0.614 3.208-1.912 6.486-3.208 9.694-7.782 15.496-23.278 24.576-40.686 24.576h-197.7v409.668c0 58.778-47.786 105.95-105.95 105.95s-105.95-47.172-105.95-105.95v-409.6h-197.7c-3.892 0-7.782-0.614-10.99-1.298-1.298 0-1.912-0.614-3.208-0.614-2.596-1.98-5.122-2.594-7.716-4.574-0.682 0-1.296-0.614-1.98-0.614-3.208-1.98-5.802-3.89-7.714-6.484 0 0 0-0.614-0.614-0.614-3.276-3.278-5.87-6.486-7.782-10.992-7.782-14.882-6.486-32.974 3.208-47.172l303.65-417.996c8.4-11.606 21.982-18.092 36.796-18.092z" />
<glyph unicode="&#x32;" glyph-name="uni32" horiz-adv-x="1152" d="M1152 946.944l-575.36-997.888-576.64 997.888z" />
<glyph unicode="&#x33;" glyph-name="uni33" d="M1015.638 180.566l-269.91 269.908 268.288 268.288c5.034 5.034 8.362 12.458 8.362 19.2 0 7.51-2.474 14.166-8.362 19.2l-194.134 194.902c-9.984 9.984-28.33 9.984-39.168 0l-268.288-269.142-268.288 269.142c-9.984 9.984-28.33 9.984-39.168 0l-196.608-197.462c-10.838-10.838-10.838-28.33 0-39.168l268.288-268.288-266.582-267.434c-10.838-10.838-10.838-28.33 0-39.168l194.134-194.134c10.838-10.838 28.33-10.838 39.168 0l266.582 266.582 269.994-269.994c5.034-5.034 12.458-8.362 19.2-8.362 6.656 0 14.166 2.474 19.2 8.362l196.608 197.462c5.034 5.034 8.362 12.458 8.362 19.2s-2.644 15.018-7.678 20.906z" />
<glyph unicode="&#x35;" glyph-name="uni35" d="M915.912 691.234h-795.33c-37.706 0-68.266 30.56-68.266 68.266s30.56 68.266 68.266 68.266l795.33 0.002c37.706 0 68.266-30.56 68.266-68.266s-30.56-68.268-68.266-68.268zM915.912 383.944h-795.33c-37.706 0-68.266 30.56-68.266 68.266s30.56 68.266 68.266 68.266h795.33c37.706 0 68.266-30.56 68.266-68.266 0-37.728-30.56-68.266-68.266-68.266zM915.912 58.562h-795.33c-37.706 0-68.266 30.56-68.266 68.266s30.56 68.266 68.266 68.266h795.33c37.706 0 68.266-30.56 68.266-68.266s-30.56-68.266-68.266-68.266z" />
<glyph unicode="&#x37;" glyph-name="uni37" horiz-adv-x="1046" d="M1024.17 390.972h-31.404v154.58c0 20.056-16.258 36.314-36.52 36.314h-24.284l-19.146 62.146h43.432c20.056 0 36.52 16.258 36.52 36.314s-16.258 36.314-36.52 36.314h-65.92l-70.196 227.186c-1.772 5.572-5.572 10.254-10.688 12.916-5.116 2.684-11.142 3.344-16.714 1.568l-681.808-210.95c-5.572-1.774-10.028-5.548-12.688-10.686-2.684-5.116-3.344-11.142-1.568-16.714l1.116-3.57c-54.578-3.092-97.782-48.322-97.782-103.328v-572.458c0-57.234 46.546-103.804 104.030-103.804h852.444c20.056 0 36.52 16.258 36.52 36.314v162.38h31.404c12.030 0 21.83 9.8 21.83 21.83v211.836c-0.228 12.010-10.028 21.812-22.058 21.812zM104.030 581.866c-16.258 0-29.4 12.482-30.744 28.288 0 0.888-0.228 1.772-0.228 2.684 0 17.146 14.030 30.972 31.176 30.972h16.030l11.802-38.088 7.344-24.058-35.38-0.002zM585.146 613.062c-1.342-6.914-4.684-13.37-9.8-19.146-4.456-4.912-10.254-8.686-16.918-12.030h-52.572c-4.228 2.684-7.572 5.344-10.254 8.46-2.888 3.57-5.116 7.344-6.232 11.37-0.888 2.888-0.456 5.798 1.116 8.914s4.002 5.116 7.344 6.232c2.684 0.888 5.116 0.888 7.572 0.228 2.228-0.66 4.228-2 5.572-4.228 3.116-4.456 5.798-7.8 7.8-10.028s4.684-4.228 7.8-5.572c3.116-1.342 6.914-2 11.37-2l-13.142 42.318c-8.914-0.228-16.486 0.228-22.716 1.116-4.912 0.888-9.142 2.684-12.916 5.116-1.342 0.888-2.684 1.568-4.002 2.456-4.912 4.002-8.686 10.028-11.142 18.032-1.772 5.572-2.228 10.688-1.772 15.804 0.456 4.456 1.568 8.686 3.798 12.916 4.684 8.686 13.142 15.598 25.172 20.488l-0.888 3.116-3.116 10.46c-1.568 5.116-0.456 8.232 3.344 9.346 4.002 1.116 6.686-0.66 8.232-5.572l4.228-13.598c6.686 1.342 12.688 1.772 18.032 1.116 2.456-0.228 4.912-0.888 7.344-1.772 2.684-0.888 5.116-2 7.572-3.57 3.57-2.228 6.686-4.684 9.346-7.572 2.456-2.888 4.228-5.572 5.116-8.232 0.888-3.116 0.66-6.004-0.888-8.914-1.568-2.888-3.798-4.912-6.914-5.798-6.004-1.772-10.914 0.228-14.486 6.004-4.228 6.914-10.688 10.46-19.146 10.688l11.596-37.884c8.232 0.228 14.712 0.228 19.602 0s9.8-1.568 14.258-3.798c4.684-2.228 8.914-5.344 12.482-9.346 1.116-1.342 2-2.888 2.888-4.228 2-3.116 3.57-6.232 4.684-10.028 1.75-6.834 2.204-13.744 0.636-20.864zM662.664 680.554c-0.66 2.228-0.888 4.456-1.772 6.686-3.344 10.46-7.8 20.488-13.37 29.628-12.688 21.374-30.972 39.202-53.46 51.004-32.288 17.146-69.264 20.716-104.236 9.8-33.632-10.46-60.372-32.744-77.062-60.804-6.686-11.37-11.802-23.602-15.146-36.314-2.888-11.802-4.456-24.058-4.228-36.314 0.228-12.482 2-24.944 6.004-37.428 2.228-7.344 5.116-14.258 8.46-20.942 0.66-1.342 1.116-2.684 1.772-3.798l-71.062 0.020c0.456 2.888 0.228 6.004-0.456 8.914 0 0.228 0 0.456-0.228 0.66-1.772 5.572-5.572 10.254-10.688 12.916-5.116 2.684-11.142 3.344-16.714 1.568-6.458-2-11.142-6.458-13.598-12.258-1.568-3.798-2.228-7.8-1.568-12.030l-110.216 0.004-19.374 62.146-11.142 36.314-9.8 31.856 15.598 4.684 581.348 179.752c10.688-15.598 28.516-25.604 48.548-25.604 2.228 0 4.456 0.228 6.458 0.456l47.662-154.58 22.74-72.628 19.146-62.146-235.872-0.024c10.254 18.942 16.030 40.090 16.486 62.146 0.226 11.802-1.116 24.058-4.23 36.316zM1002.34 179.156h-199.354c-46.32 0-83.976 37.632-83.976 83.976 0 46.32 37.632 83.976 83.976 83.976l199.354-0.002v-167.95zM506.742 696.128c-4.684-3.116-8.026-6.458-10.028-9.8-1.116-1.772-1.568-3.798-1.772-6.004 0-2 0.228-4.228 0.888-6.686 1.342-4.684 4.002-8.026 7.344-9.574 3.344-1.568 8.232-2.684 14.258-2.888l-5.798 19.146-4.892 15.806zM553.97 634.892c-4.228 1.772-9.8 2.888-16.714 2.888l12.258-39.862c5.798 3.116 9.8 7.116 12.030 11.802 2.228 4.684 2.456 9.574 0.888 14.486-1.572 5.114-4.232 8.89-8.462 10.686zM726.582 680.554c5.116-3.344 11.802-4.456 18.032-2.456 1.772 0.66 3.57 1.568 5.116 2.456 8.232 5.116 12.258 15.146 9.346 24.944-1.568 4.912-4.684 8.686-8.914 11.574-0.66 0.456-1.116 1.116-1.772 1.342-5.116 2.684-11.142 3.344-16.714 1.568-2.228-0.66-4.228-1.772-6.004-2.888-7.8-5.344-11.37-15.146-8.46-24.512 1.572-5.344 5.142-9.368 9.37-12.028zM788.956 263.132c0-0.072 0-0.154 0-0.24 0-15.75 12.768-28.516 28.516-28.516 15.75 0 28.516 12.768 28.516 28.516 0 0.084 0 0.168 0 0.252 0 0.058 0 0.142 0 0.226 0 15.75-12.768 28.516-28.516 28.516-15.75 0-28.516-12.768-28.516-28.516 0-0.084 0-0.168 0-0.252z" />
<glyph unicode="&#x38;" glyph-name="uni38" horiz-adv-x="1736" d="M1553.132 111.836c-42.066-17.36-103.014-35.65-172.794-50.902-80.476-17.67-169.756-30.162-246.852-29.264h-0.31c-57.908-0.9-103.942 2.728-150.258 4.278-124.34 4.278-238.638 14.012-367.876 14.942-107.292 0.9-217.62-0.9-324.6-5.176-73.438-3.038-170.964 7.006-230.702 27.436-28.334 9.764-30.162 11.594-31.992 40.548-1.518 23.468-1.518 58.528 3.968 69.192 5.486 9.764 13.702 11.284 19.498 10.974 41.758-7.936 108.19-42.066 213.032-39.928 163.96 3.658 340.754 27.126 519.652 2.45 283.124-38.998 445.872-21.948 579.98 39.928 13.114 1.828 21.018 24.086 18.29 34.44-5.176 20.118-12.494 40.826-20.428 56.698-1.518 9.146 10.044 8.836 21.948 9.454 91.14 2.45 137.454 5.486 180.73-24.086 9.764-6.696 14.012-11.872 16.462-20.428 7.316-23.776 10.974-45.106 12.494-64.604 3.344-50.038-3.664-61.010-40.242-75.952zM337.094 706.138c90.21 0 163.37-74.988 163.37-167.028 0-92.35-73.16-167.306-163.37-167.306s-163.37 74.988-163.37 167.306c0 92.068 73.128 167.028 163.37 167.028zM1719.85 208.462c-2.728 8.216-7.936 19.808-19.19 27.744-61.566 45.416-144.77 35.34-216.38 34.44-12.182-0.31-25.916-1.828-38.998-2.45l-0.31 0.31c-2.45 0-5.176-0.31-7.626-0.31-11.872 2.45-37.48 8.526-59.116 13.422-19.808 4.558-31.682-14.942-35.062-33.512-0.31-1.208-0.31-2.45-0.62-3.348-3.968-20.428-22.848-34.44-43.586-31.404s-131.068 23.158-128.308 45.106c3.348 25.606 94.798 52.73 55.77 65.844-11.594 3.968-22.258 8.526-32.612 13.114-31.992 14.012-52.42 8.836-71.33-38.098-0.31-1.208-0.9-2.14-1.518-3.348-9.454-18.6-30.784-26.816-50.282-18.29s-28.954 32.302-19.808 52.42c15.53 34.75 24.676 62.186-14.012 84.724-8.526 4.868-16.462 10.664-24.676 15.53-28.024 17.082-49.972 32.302-85.342-8.836l-16.15-20.118c-0.62-0.9-1.518-1.828-2.14-2.728-13.702-15.53-37.17-17.36-53.040-3.658-16.462 14.012-19.19 38.998-5.486 56.080 4.278 5.486 8.526 10.664 12.804 16.15 21.018 25.916 36.27 56.698-8.836 100.286-30.162 29.574-49.972 42.656-99.974 0l-16.772-14.322c-0.9-0.62-1.828-1.518-2.728-2.14-16.462-12.494-39.618-9.764-53.040 6.696-13.702 16.772-11.284 42.066 5.176 56.080 8.526 7.316 16.772 14.942 25.606 21.638 52.112 41.138 23.776 74.68 3.348 97.526-24.086 27.126-41.138 49.072-94.488 7.936l-19.808-16.462c-0.9-0.9-1.828-1.518-2.728-2.14-16.772-12.182-39.928-8.836-52.73 7.626-13.422 17.082-10.664 42.066 6.106 55.77 12.174 9.708 23.458 20.062 35.952 29.208 40.548 29.574 6.106 95.078-17.082 122.822-21.638 25.916-34.75 24.086-62.774 10.664-22.258-10.664-49.972-32.612-64.914-57.908-54.87-81.064-135.936 5.796-215.172 17.082-46.314 6.696-178.282 42.376-152.396-33.232 2.45-14.942 4.868-30.162 7.006-45.416 17.082-118.264 24.676-241.396-12.804-354.144-33.512-101.184-64.604-198.71-58.528-305.072-0.9-21.948-7.626-33.512-9.146-56.388-0.9-13.702-1.518-27.126-1.828-38.098-0.9-28.954 0.62-36.89 5.486-58.528 2.14-9.454 6.106-13.114 11.872-16.15 61.566-35.34 200.85-51.212 295.028-47.244 22.848 0.9 42.966 1.828 58.218 1.828 0.31 0 0.31 0 0.62 0 75.888 2.728 184.078 4.558 288.61 3.658 85.652-0.62 168.858-3.038 229.804-7.936v0c64.294-6.696 114.608-10.354 164.888-11.872 49.972-1.828 99.664-1.828 162.13-0.9 84.724-0.9 181.938 12.494 269.73 31.682 99.046 21.638 186.528 50.902 230.114 74.37 12.494 6.386 14.942 15.53 16.462 24.676 2.14 19.498 3.038 40.238 1.518 62.774-1.486 23.496-6.072 48.792-14.908 76.846z" />
<glyph unicode="&#x39;" glyph-name="uni39" horiz-adv-x="1400" d="M535.344 640.030h-328.688c-10.864 0-19.434-8.776-19.434-19.434s8.776-19.434 19.434-19.434h328.686c10.656 0 19.434 8.776 19.434 19.434s-8.776 19.434-19.432 19.434zM535.344 479.76h-328.688c-10.864 0-19.434-8.776-19.434-19.434s8.776-19.434 19.434-19.434h328.686c10.656 0 19.434 8.776 19.434 19.434s-8.776 19.434-19.432 19.434zM535.344 319.494h-328.688c-10.864 0-19.434-8.776-19.434-19.434 0-10.656 8.776-19.434 19.434-19.434h328.686c10.656 0 19.434 8.776 19.434 19.434 0 10.656-8.776 19.434-19.432 19.434zM844.18 620.388c0-10.656 8.776-19.434 19.434-19.434h328.686c10.864 0 19.434 8.776 19.434 19.434s-8.776 19.434-19.434 19.434h-328.69c-10.864 0.208-19.43-8.568-19.43-19.434zM1192.298 479.76h-328.688c-10.656 0-19.434-8.776-19.434-19.434s8.776-19.434 19.434-19.434h328.686c10.864 0 19.434 8.776 19.434 19.434s-8.774 19.434-19.432 19.434zM863.61 319.494c-10.656 0-19.434-8.776-19.434-19.434 0-10.656 8.776-19.434 19.434-19.434h328.686c10.864 0 19.434 8.776 19.434 19.434 0 10.656-8.776 19.434-19.434 19.434zM1025.76 969.552c-120.776 0-255.552-18.388-325.76-65.822-70.21 47.434-204.986 65.822-325.552 65.822-172.806 0-374.448-37.82-374.448-144.178v-850.238c0-14.418 6.27-28 17.344-37.194s25.494-13.164 39.702-10.656c95.7 16.508 205.402 25.284 317.402 25.284s221.492-8.776 317.402-25.284c1.254-0.208 2.508-0.208 3.97-0.418 1.044 0 2.090-0.208 3.134-0.208 0.418 0 0.836-0.208 1.254-0.208 2.508 0 5.224 0.208 7.732 0.626 0.208 0 0.418 0 0.418 0 95.7 16.508 205.402 25.284 317.402 25.284s221.702-8.776 317.402-25.284c2.716-0.418 5.642-0.626 8.36-0.626 11.282 0 22.358 3.97 31.342 11.492 10.866 9.19 17.136 22.774 17.136 37.192v850.238c0 106.358-201.642 144.178-374.24 144.178zM97.372 31.76v787.552c19.642 19.224 117.014 53.074 277.074 53.074s257.224-33.642 277.074-53.074v-787.552c-86.508 11.91-181.164 17.97-277.074 17.97s-190.566-6.058-277.074-17.97zM1302.626 31.76c-173.016 23.612-380.926 23.612-553.94 0v787.552c19.642 19.224 117.014 53.074 277.074 53.074s257.224-33.642 277.074-53.074l0.002-787.552z" />
<glyph unicode="&#x3b;" glyph-name="nixle" d="M790.185 432.719h46.524c57.015 0 103.229 46.729 103.229 104.341v85.075c0 57.631-46.196 104.341-103.229 104.341h-274.972c-34.119 0-64.368-16.733-83.162-42.517h-93.92c25.348 74.231 95.063 127.55 177.081 127.55h274.972c103.453 0 187.291-84.771 187.291-189.373v-85.075c0-97.689-73.169-178.103-167.106-188.287v0-110.121l-202.071 109.035h-93.085c-103.453 0-187.291 84.771-187.291 189.373v23.213h84.060v-23.213c0-57.631 46.196-104.341 103.229-104.341h109.765l118.683-69.437v69.437zM233.074 293.572h-45.783c-57.015 0-103.229 46.729-103.229 104.341v85.075c0 57.631 46.196 104.341 103.229 104.341h274.972c57.015 0 103.229-46.729 103.229-104.341v-23.213h84.060v23.213c0 104.586-83.864 189.373-187.291 189.373h-274.972c-103.453 0-187.291-84.771-187.291-189.373v-85.075c0-97.689 73.169-178.103 167.106-188.287v0-110.121l202.071 109.035h93.085c82.044 0 151.749 53.314 177.088 127.55h-93.91c-18.79-25.788-49.043-42.517-83.178-42.517h-96.222l-132.964-77.796v77.796z" />
<glyph unicode="&#x3d;" glyph-name="language" horiz-adv-x="1312" d="M270.728 368.076v104.371h-107.207c-41.506 0-75.307 36.594-75.307 81.518v235.258c0 44.941 33.801 81.518 75.307 81.518h479.556c41.489 0 75.29-36.577 75.29-81.518v-235.258c0-44.924-33.735-81.518-75.29-81.518v-57.19c72.489 0 131.504 62.229 131.504 138.709v235.258c0 76.548-59.015 138.776-131.504 138.776h-479.556c-72.572 0-131.52-62.229-131.52-138.776v-235.258c0-76.48 59.015-138.709 131.52-138.709h50.994v-101.385c0-15.574 9.839-29.689 24.563-35.186 4.169-1.595 8.471-2.324 12.707-2.324 10.289 0 20.127 4.496 27.098 12.86l104.673 126.035h104.489v57.19h-130.603l-86.713-104.371zM362.443 833.367l-99.453-266.61h58.365l20.578 59.379h97.969l19.794-59.379h59.799l-97.969 266.61h-59.082zM356.974 669.805l34.135 97.822h0.717l33.034-97.822h-67.886zM1148.413 619.638h-324.657v-57.19h324.657c41.506 0 75.307-36.577 75.307-81.518v-235.258c0-44.924-33.801-81.501-75.307-81.501h-107.207v-104.388l-86.713 104.388h-285.636c-41.489 0-75.29 36.577-75.29 81.501v235.258c0 44.941 33.801 81.518 75.29 81.518v57.19c-72.489 0-131.504-62.229-131.504-138.709v-235.258c0-76.548 59.015-138.759 131.504-138.759h259.589l104.673-126.12c6.97-8.279 16.809-12.792 27.031-12.792 4.236 0 8.538 0.73 12.707 2.324 14.725 5.497 24.63 19.612 24.63 35.186v101.402h50.994c72.505 0 131.52 62.212 131.52 138.759v235.258c-0.067 76.48-59.015 138.709-131.587 138.709zM782.534 303.065c0-29.231 18.36-48.182 48.326-48.182 35.969 0.797 71.522 23.989 83.128 34.524 11.59 10.535 42.79 46.994 56.53 75.886 17.393-8.347 25.664-22.394 25.664-37.901 0-33.608-31.784-53.085-82.527-58.988l24.63-34.66c79.459 10.603 106.49 44.534 106.49 94.242 0 42.006-25.981 67.522-59.265 78.651 0.584 3.054 1.684 6.311 2.335 9.416l-45.141 8.16c-0.317-4.648-1.234-5.514-2.084-10.145-16.209 0.933-34.252-1.527-40.055-2.782 0 8.415 0.334 30.809 0.584 38.901 37.587 1.527 74.59 4.632 108.791 9.942l-3.985 45.399c-35.169-7.159-69.037-10.875-102.388-12.792 0.9 9.009 2.151 34.592 2.151 34.592l-47.692 3.715c-0.65-12.47-0.917-27.043-1.501-39.835-21.095-0.339-46.108-0.339-59.265 0l2.151-43.872h5.136c12.573 0 33.034 0.662 51.394 1.255 0-12.13 0.267-38.24 0.584-50.031-43.123-18.356-73.99-52.287-73.99-95.498zM926.161 373.386c-6.453-13.063-14.074-24.922-22.595-34.796-1.251 10.264-1.834 20.799-2.485 32.014 3.385 0.594 16.809 2.782 25.080 2.782v0zM858.942 355.284c1.568-17.423 3.385-34.185 6.12-49.437-7.954-4.038-15.575-6.566-22.595-6.82-15.308-0.594-15.308 9.348-15.308 13.708 0 16.439 12.507 31.691 31.784 42.549v0z" />
<glyph unicode="&#x3f;" glyph-name="uni3F" d="M512 937.244c-269.836 0-489.244-219.386-489.244-489.244 0-269.654 219.408-489.244 489.244-489.244 269.654 0 489.244 219.59 489.244 489.244 0 269.858-219.59 489.244-489.244 489.244zM571.528 178.552c0-14.062-5.916-26.624-17.612-37.432-11.606-11.036-27.466-16.292-46.604-16.292-19.842 0-36.136 5.212-48.174 16.224-12.788 10.808-19.046 23.37-19.046 37.478v23.984c0 14.108 6.236 26.692 19.046 37.82 12.038 10.672 28.33 15.86 48.174 15.86 19.138 0 34.998-5.256 46.604-16.292 11.696-10.808 17.612-23.348 17.612-37.41v-23.94zM704.126 538.862c-7.692-15.132-17.476-28.512-29.468-39.572-11.538-11.036-24.076-20.798-37.432-29.354-12.674-8.238-24.85-17.022-35.636-26.056-10.946-9.194-19.82-19.114-26.738-30.22-6.668-10.444-10.194-23.234-10.194-38.502v-15.178c0-10.172-4.87-20.684-14.54-31.358-9.74-10.74-22.96-16.544-39.072-17.272l-3.186-0.068c-16.27 0-29.56 4.71-39.618 13.722-10.604 10.104-15.724 21.004-15.724 33.178 0 27.922 3.846 51.792 11.582 70.906 7.6 19 17.112 35.43 27.966 49.152 11.196 13.426 23.62 25.122 37.046 34.862 12.698 9.376 24.736 18.592 35.316 27.306 9.966 8.534 19.024 17.568 25.986 26.988 6.576 8.648 9.648 19.138 9.648 31.994 0 21.14-5.712 36.386-17.476 46.398-12.174 10.148-28.694 15.338-49.538 15.338-13.722 0-25.804-0.91-35.362-2.504-9.42-1.752-18.046-4.37-25.76-8.396-7.646-3.64-14.7-9.080-21.344-15.52-6.782-6.986-14.176-15.656-21.618-26.032-6.69-9.284-16.544-16.43-29.446-21.072-13.062-4.778-27.876-3.414-43.008 3.822-13.744 6.94-22.186 15.77-25.032 26.646-2.594 9.966-2.594 20.434-0.022 30.994 1.912 9.034 7.464 20.094 16.566 33.632 9.012 13.334 21.686 26.282 37.956 38.616 16.224 12.288 36.818 22.914 61.030 31.63 24.554 8.92 53.59 13.312 86.904 13.312 32.676 0 61.19-4.892 84.332-14.768 23.574-9.762 42.712-22.984 57.002-38.958 14.244-16.156 24.736-34.68 30.924-55.114 6.554-20.138 9.99-41.188 9.99-62.418 0.072-21.794-4.23-40.636-12.034-56.134z" />
<glyph unicode="&#x41;" glyph-name="uni41" d="M950.634 546.816c-32.406 32.406-86.080 31.766-119.274-1.408l-238.358-238.378v484.522c0 46.934-37.504 85.334-83.328 85.334s-83.328-38.4-83.328-85.334v-483.69l-237.524 237.524c-33.194 33.194-86.848 33.814-119.254 1.408-32.426-32.426-31.766-86.080 1.408-119.274l378.602-378.602c4.288-4.288 8.96-8 13.846-11.178 12.566-8.47 27.030-12.886 41.77-13.654 1.642-0.106 3.264-0.426 4.906-0.426s3.264 0.32 4.906 0.426c14.742 0.768 29.184 5.162 41.75 13.632 4.886 3.2 9.558 6.912 13.846 11.2l378.602 378.624c33.196 33.216 33.836 86.868 1.43 119.274z" />
<glyph unicode="&#x42;" glyph-name="uni42" d="M513.77-13.334c-48.49 0-96.726 7.638-143.318 22.698-243.284 78.678-377.492 339.65-299.198 581.804 61.738 190.954 238.506 319.232 439.85 319.232 48.512 0 96.726-7.638 143.318-22.698 117.824-38.102 213.844-119.596 270.336-229.462 56.534-109.888 66.752-235.030 28.822-352.342-61.718-190.932-238.466-319.232-439.81-319.232zM511.104 878.4c-187.414 0-351.958-119.382-409.386-297.066-72.876-225.344 52.096-468.268 278.57-541.504 43.414-14.038 88.32-21.162 133.462-21.162 187.434 0 351.936 119.402 409.366 297.088 35.306 109.162 25.77 225.6-26.816 327.85-52.608 102.294-142.016 178.176-251.754 213.654-43.394 14.036-88.3 21.14-133.442 21.14zM736.746 377.046l-175.658 56.79c3.626 20.416-5.034 40.682-21.61 52.352l96 296.918c2.71 8.406-1.898 17.43-10.304 20.138-8.426 2.688-17.408-1.898-20.138-10.304l-96.042-297.088c-22.358-0.042-43.136-14.080-50.39-36.502-9.024-27.904 6.272-57.814 34.176-66.816 19.328-6.25 39.466-0.618 53.098 12.586l181.034-58.538c1.642-0.512 3.306-0.768 4.928-0.768 6.762 0 13.034 4.31 15.232 11.094 2.688 8.382-1.92 17.406-10.326 20.138z" />
<glyph unicode="&#x43;" glyph-name="uni43" horiz-adv-x="1108" d="M239.498 344.586l-45.214-27.382c-9.95-6.030-16.854-15.448-19.538-26.55-2.662-11.1-0.704-22.542 5.476-32.218 8.054-12.614 21.99-20.114 37.246-20.114 8.14 0 16.13 2.238 23.098 6.456l81.8 49.562-82.868 50.246zM693.778 872.696l-2.79 3.324-3.644-0.47c-5.712-0.768-15.47-5.242-29.916-12.082-5.008-2.366-10.506-4.922-16.194-7.5 8.46-0.256 17.346-0.448 26.486-0.64 8.608-0.214 17.45-0.362 26.4-0.448 3.622-0.042 7.246-0.086 10.908-0.106-2.684 6.14-6.414 12.148-11.25 17.922zM694.118 854.86c-8.948 0.108 0 0 0 0v0zM937.688 297.858c-2.662 11.4-9.566 21.072-19.454 27.274l-355.926 222.792c-5.754 3.602-7.5 11.164-3.942 16.962 2.344 3.75 6.328 5.796 10.442 5.796 2.216 0 4.432-0.598 6.456-1.876l270.8-169.48c6.946-4.346 14.894-6.626 23.012-6.626 1.064 0 2.088 0.128 3.132 0.214 13.936 1 26.486 8.416 33.944 20.478 6.2 10.844 7.99 22.118 5.456 33.090-2.642 11.42-9.524 21.116-19.432 27.296-3.174 1.982-279.066 174.894-345.034 216.23-8.46 5.306-13.658 8.544-14.168 8.886-2.898 1.812-4.986 4.752-5.626 8.31-0.426 2.344 0 4.602 0.83 6.67-10.526 5.776-21.648 12.168-32.814 19.050-60.046 36.884-94.67 69.058-105.24 97.866-3.004 0-5.986-0.022-8.992-0.022-44.020 0-80.394 0.81-108.072 2.408-4.218 0.234-8.48 0.342-12.72 0.342-75.408 0-143.614-37.394-182.394-99.998-61.604-99.514-31.218-230.832 67.712-292.752l482.618-302.1c6.968-4.368 14.894-6.626 23.012-6.626 15.214 0 29.064 7.734 37.098 20.69 12.656 20.434 6.478 47.472-13.766 60.28l-230.4 144.188c-0.894 0.576-1.492 1.364-2.196 2.11-3.794 4.006-4.73 10.036-1.748 14.872 2.344 3.772 6.328 5.816 10.442 5.816 2.216 0 4.432-0.598 6.456-1.876l299.948-187.742c6.946-4.346 14.894-6.626 22.99-6.626 15.192 0 29.064 7.734 37.098 20.69 12.634 20.392 6.478 47.43-13.722 60.258l-300.182 187.912c-5.754 3.602-7.52 11.186-3.942 16.982 2.324 3.75 6.306 5.796 10.398 5.796 2.216 0 4.452-0.618 6.478-1.896l355.942-222.794c6.926-4.346 14.872-6.626 23.012-6.626 15.172 0 29.064 7.734 37.076 20.712 6.12 9.888 8.060 21.65 5.418 33.070zM1034.21 741.952c-38.12 61.494-104.492 98.698-178.26 100.508-1.876 0.042-3.75 0.192-5.604 0.192-4.282 0-8.566-0.128-12.806-0.384-6.478-0.384-13.126-0.662-20.094-0.936-6.67-0.278-13.574-0.47-20.69-0.662-7.478-0.192-14.552-0.342-21.756-0.448-7.182-0.128-14.616-0.214-22.352-0.278-9.354-0.064-16.812-0.086-24.29-0.086-1.832 0-3.666 0-5.476 0.022-3.494 0-6.968 0-10.442 0.022-3.474 0-6.904 0.022-10.334 0.042-38.162 0.278-75.216 1-104.706 1.748-14.808 0.384-27.764 0.746-37.906 1.064-7.374 0.234-14.808 1.064-22.246 2.132-14.552 2.11-29.022 5.456-42.658 9.332-13.894 3.964-26.998 8.31-38.354 12.124-3.238 1.108-6.456 2.196-9.63 3.218-6.178 2.046-12.296 3.964-17.026 5.156-3.218 0.79-5.072 1.172-6.434 1.3-2.366-2.11-3.814-3.474-5.092-4.816-0.746-0.768-1.384-1.512-2.068-2.302s-1.364-1.598-1.94-2.366-1.108-1.512-1.598-2.238c-0.512-0.79-0.98-1.556-1.384-2.324-0.362-0.618-0.726-1.278-1-1.854-0.448-1-0.852-1.94-1.15-2.854-0.746-2.174-1.022-3.302-1.192-4.388-0.106-0.64-0.106-1.086-0.15-1.512-0.042-0.554-0.128-1.128-0.128-1.64 0-0.916 0.042-1.812 0.15-2.642 0.192-1.512 0.512-3.068 0.936-4.624 1.022-3.602 2.43-6.946 4.304-10.42 0.936-1.748 2.024-3.538 3.196-5.306 14.404-21.968 46.194-48.028 91.026-75.494 14.788-9.078 29.554-17.324 42.85-24.376 4.176-2.216 8.16-4.304 11.996-6.264 4.304-2.216 8.332-4.24 12.104-6.094 1.96-0.958 3.814-1.876 5.584-2.748-1.064-1.876-2.388-3.516-4.176-4.602-0.362-0.234-1.982-1.256-4.432-2.79-0.83-0.512-1.832-1.15-2.876-1.79 11.464-7.16 337.898-211.352 339.218-212.182 14.702-9.182 24.952-23.524 28.872-40.486 1.556-6.712 1.982-13.53 1.428-20.242l28.36 17.728c99.74 62.306 130.36 194.436 68.226 294.56zM340.156 280.832l-38.588-23.14c-21.606-13.126-28.212-40.91-14.638-61.9 8.63-13.296 23.482-21.244 39.802-21.244 8.716 0 17.26 2.366 24.674 6.818l77.282 46.366-88.532 53.1zM437.83 217.058l-11.74-7.648c-18.58-12.21-24.248-38.076-12.634-57.616 7.374-12.36 20.136-19.774 34.092-19.774 7.458 0 14.766 2.216 21.158 6.35l45.002 29.298-75.878 49.39z" />
<glyph unicode="&#x44;" glyph-name="uni44" horiz-adv-x="1108" d="M862.124 834.684h-145.358c0.772 16.964-1.898 35.4-12.010 52.676-21.77 37.168-69.75 56.286-142.688 56.802-72.624 0.682-120.088-17.904-141.97-54.648-10.646-17.868-13.262-37.15-12.176-54.832h-145.468c-59.62 0-108.136-48.514-108.136-108.154v-387.616c0-59.638 48.514-108.154 108.136-108.154h599.684c59.638 0 108.154 48.514 108.154 108.154l-0.034 387.62c0.018 59.658-48.476 108.152-108.134 108.152zM458.924 866.604c12.986 21.624 48.312 32.858 102.884 32.508 54.98-0.388 90.95-12.246 103.972-34.388 5.47-9.248 6.722-19.91 6.004-30.022l-218.714 0.002c-0.978 11.050 0.182 22.432 5.854 31.9zM703.136 490.262h-104.21v-103.936c0-20.37-16.356-36.836-36.744-36.836-20.26 0-36.726 16.466-36.726 36.836v103.936h-104.010c-20.334 0-36.708 16.504-36.708 36.8s16.376 36.726 36.708 36.726h104.010v104.082c0 20.334 16.466 36.726 36.726 36.726 20.37 0 36.744-16.392 36.744-36.726v-104.082h104.21c20.278 0 36.726-16.43 36.726-36.726-0.018-20.28-16.448-36.8-36.726-36.8z" />
<glyph unicode="&#x45;" glyph-name="uni45" d="M316.074 673.006h334.574c6.098 0 10.968 4.916 10.968 11.014 0 6.052-4.892 10.968-10.968 10.968h-334.574c-6.076 0-11.014-4.916-11.014-10.968 0-6.098 4.962-11.014 11.014-11.014zM1009.3 808.834l-98.054 81.238c-7.146 5.916-17.772 4.938-23.688-2.23l-107.27-129.456v39.254c0 7.578-3.026 14.792-8.396 20.116l-109.34 107.702c-5.234 5.212-12.356 8.1-19.82 8.1h-432.494c-15.564 0-28.194-12.606-28.194-28.194v-753.756c0-15.588 12.63-28.216 28.194-28.216h541.788c15.656 0 28.262 12.652 28.262 28.216v354.304l231.288 279.166c5.916 7.168 4.938 17.818-2.276 23.756zM723.854 179.826h-485.376v697.276h374.92v-92c0-9.352 7.6-16.93 16.93-16.93h93.502v-77.892l-83.24-100.488-324.516-0.002c-6.076 0-11.014-4.892-11.014-10.968s4.938-11.014 11.014-11.014h306.29l-65.15-78.598h-241.14c-6.076 0-11.014-4.916-11.014-11.014s4.938-10.968 11.014-10.968h222.958l-20.138-24.302c-1.48-1.73-2.526-3.778-3.232-5.962l-15.042-50.472h-184.546c-6.076 0-11.014-4.916-11.014-10.99s4.938-11.036 11.014-11.036h178.016l-24.85-83.148-153.166-0.002c-6.076 0-11.014-4.938-11.014-10.99s4.938-10.99 11.014-10.99h159.22c1.616 0 3.14 0.386 4.528 1.024 4.278-1.48 9.034-1.32 13.244 0.864l144.612 74.73c2.002 1.070 3.778 2.48 5.234 4.256l80.942 97.644v-258.028zM619.224 364.418l-0.092-0.16-56.32-29.058-33.86 28.080 0.364 1.138 6.576 22.050 11.15 37.502 355.74 429.352 31.426-26.056-0.228-0.25-338.126-408.074c-3.96-4.756-3.322-11.878 1.456-15.816 4.802-3.96 11.902-3.3 15.816 1.48l338.33 408.394 23.37-19.388-355.602-429.194z" />
<glyph unicode="&#x46;" glyph-name="uni46" d="M872.064 270.022c-22.040-19.49-41.25-33.792-57.81-42.88-16.488-9.122-29.428-13.72-38.912-13.72-3.7 0-7.016 0.488-9.902 1.384-2.932 0.884-5.376 2.85-7.354 5.97-2.024 3.014-3.502 7.308-4.386 12.974-0.92 5.62-1.35 13.126-1.35 22.552 0 12.194 1.63 28.916 4.806 50.176 3.224 21.272 8.39 48.222 15.57 80.734 7.226 32.512 16.558 71.144 28.020 115.794 11.474 44.754 25.448 96.418 41.926 155.090 7.646 26.1 13.102 50.142 16.116 72.088 3.060 21.854 4.632 38.878 4.632 51.026 0 16.43-4.318 33.502-12.846 51.362-8.564 17.71-21.214 33.944-37.876 48.71-16.686 14.754-37.248 27.020-61.73 36.76-24.494 9.74-52.702 14.58-84.818 14.58-13.16 0-25.588-1.966-37.224-5.922-11.602-3.944-21.086-10.042-28.428-18.258l-5.946-108.532c-4.562 4.888-10.554 8.286-17.908 10.216-7.33 2.024-17.524 3.060-30.674 3.060-31.232 0-63.348-7.75-96.314-23.086-33.058-15.348-65.186-36.468-96.36-63.36-31.186-26.938-60.638-58.718-88.32-95.326-27.682-36.654-51.91-76.136-72.716-118.622-20.77-42.334-37.202-86.796-49.292-133.364-12.114-46.476-18.106-93.16-18.106-139.986 0-42.286 4.654-79.534 13.94-111.756 9.378-32.222 22.284-59.112 38.76-80.674 16.536-21.574 36.19-37.854 58.996-48.802 22.772-10.95 47.64-16.43 74.554-16.43 16.5 0 33.966 3.304 52.468 10.018 18.502 6.702 37.132 18.2 55.808 34.676 18.63 16.384 36.852 38.494 54.772 66.316 17.862 27.834 34.292 63.010 49.246 105.6-1.804-14.022-3.258-27.090-4.318-39.226-1.058-12.148-1.582-23.4-1.582-33.758 0-29.8 3.176-54.47 9.6-74.112 6.434-19.584 15.476-35.27 27.112-46.918 11.648-11.8 25.81-19.992 42.612-24.622 16.85-4.736 35.502-7.098 55.96-7.098 16.85 0 36.19 4.386 58.018 13.278 21.912 8.738 44.952 20.666 69.086 35.77 24.18 15 48.85 32.616 74.088 52.642 25.216 20.060 40.11 215.074 18.082 195.676zM521.902 296.82c-10.926-14.114-22.552-25.368-34.91-33.698-12.382-8.436-24.798-12.578-37.422-12.578-6.19 0-12.184 0.698-17.886 2.222-5.772 1.478-10.752 4.83-15.022 10.112-4.294 5.224-7.656 12.834-10.124 22.69-2.536 9.926-3.77 23.448-3.77 40.472 0 35.712 5.016 71.4 15.022 107.054 10.018 35.63 23.214 69.434 39.704 101.202 16.5 31.778 35.282 60.3 56.494 85.608 21.144 25.356 43.032 45.394 65.618 60.102l-57.704-383.186z" />
<glyph unicode="&#x47;" glyph-name="uni47" d="M1001.786 754.828c-36.248-16.104-75.206-26.974-116.096-31.848 41.728 25.018 73.786 64.664 88.878 111.86-39.052-23.168-82.328-40.006-128.36-49.048-36.888 39.272-89.438 63.814-147.596 63.814-130.478 0-226.42-121.786-196.922-248.226-168.018 8.424-316.986 88.926-416.698 211.224-52.958-90.868-27.462-209.758 62.568-269.918-33.152 1.048-64.326 10.146-91.578 25.274-2.188-93.662 64.93-181.236 162.164-200.762-28.45-7.762-59.624-9.518-91.298-3.48 25.716-80.326 100.376-138.776 188.846-140.404-85.004-66.618-192.046-96.35-299.31-83.712 89.46-57.356 195.736-90.822 309.9-90.822 375.354 0 587.416 317.010 574.65 601.368 39.482 28.52 73.774 64.116 100.852 104.68z" />
<glyph unicode="&#x48;" glyph-name="uni48" d="M369.92 750.848v-126.872h-98.7v-161.128h98.7v-473.286h189.812v475.31h132.41l14.092 159.104h-146.502v90.648c0 37.47 7.528 52.34 43.788 52.34h102.714v165.156h-131.432c-141.208 0-204.882-62.208-204.882-181.272z" />
<glyph unicode="&#x49;" glyph-name="uni49" d="M853.060 504.138l-577.696 419.544c-21.094 15.382-49.152 17.568-72.34 5.688-23.348-11.856-38.002-35.818-38.002-61.986v-839.156c0-26.124 14.678-50.062 38.002-61.94 9.922-5.074 20.732-7.532 31.518-7.532 14.428 0 28.786 4.482 40.824 13.266l577.696 419.612c18.090 13.084 28.672 33.952 28.672 56.274-0.002 22.234-10.696 43.146-28.674 56.23z" />
<glyph unicode="&#x4a;" glyph-name="uni4A" d="M491.27-41.244v630.17h-244.282v148.548c34.224-0.932 67.31 1.592 99.236 7.624 31.926 6.008 60.598 16.658 86.062 31.926 25.44 15.268 46.944 35.408 64.534 60.37 17.568 24.986 29.15 55.978 34.702 93.002h156.876l0.004-971.64h-197.132z" />
<glyph unicode="&#x4b;" glyph-name="uni4B" d="M528.748 537.588c24.052 1.844 46.49 7.146 67.334 15.974 20.798 8.784 37.91 21.504 51.336 38.162s20.138 38.866 20.138 66.628c0 41.642-13.858 73.568-41.642 95.778-27.762 22.21-59.688 33.314-95.778 33.314-49.948 0-87.678-16.452-113.118-49.288-25.464-32.86-37.706-74.274-36.772-124.222h-187.416c1.844 49.972 10.878 95.55 27.080 136.716 16.18 41.164 38.866 76.572 68.016 106.2 29.15 29.604 64.056 52.52 104.79 68.722 40.71 16.18 86.062 24.302 136.032 24.302 38.866 0 77.732-5.802 116.6-17.362 38.866-11.582 73.796-28.922 104.79-52.064s56.228-51.36 75.662-84.674c19.434-33.314 29.128-71.726 29.128-115.212 0-47.196-11.356-88.838-34.020-124.928s-56.662-60.62-101.99-73.568v-2.776c53.634-12.038 95.778-37.956 126.316-77.732 30.538-39.822 45.806-87.472 45.806-142.974 0-50.904-9.966-96.256-29.856-136.056-19.912-39.776-46.49-73.114-79.826-99.942-33.292-26.874-71.702-47.196-115.188-61.098-43.508-13.858-88.838-20.798-136.056-20.798-54.59 0-104.334 7.874-149.208 23.598-44.896 15.702-83.058 38.616-114.506 68.722-31.47 30.038-55.774 66.856-72.886 110.342-17.134 43.486-25.214 93.458-24.28 149.936h187.392c0.91-25.942 5.074-50.676 12.492-74.274 7.396-23.598 18.046-43.986 31.926-61.098 13.88-17.134 31.244-30.788 52.042-40.96 20.822-10.172 45.58-15.246 74.274-15.246 44.396 0 81.898 13.63 112.412 40.938 30.56 27.284 45.806 64.534 45.806 111.73 0 37.024-7.146 65.24-21.504 84.674s-32.632 33.564-54.818 42.348c-22.21 8.784-46.512 13.858-72.864 15.268-26.374 1.41-51.61 2.070-75.662 2.070v138.832c21.278-1.87 43.942-1.87 68.018 0.018z" />
<glyph unicode="&#x4c;" glyph-name="uni4C" d="M215.040 711.782c14.792 47.65 37 89.292 66.628 124.928 29.604 35.612 66.856 63.374 111.752 83.286 44.874 19.888 96.46 29.856 154.76 29.856 44.442 0 86.744-6.94 127.022-20.822 40.278-13.88 75.64-33.792 106.178-59.688 30.538-25.918 54.84-57.844 72.886-95.778 18.046-37.956 27.056-80.51 27.056-127.704 0-49.060-7.874-91.158-23.598-126.316-15.724-35.18-36.568-66.4-62.464-93.708-25.918-27.284-55.318-52.042-88.156-74.252s-65.9-44.192-99.236-65.922c-33.292-21.754-65.718-45.102-97.166-70.088-31.47-25.008-59.232-54.158-83.286-87.472h459.458l0.002-169.346h-713.478c0 56.412 8.1 105.494 24.302 147.114 16.18 41.642 38.162 78.894 65.922 111.752 27.762 32.814 60.37 63.146 97.848 90.908 37.478 27.784 77.050 56.002 118.692 84.674 21.276 14.792 43.94 29.856 67.994 45.124s46.034 32.13 65.946 50.654c19.866 18.5 36.522 39.322 49.948 62.464 13.426 23.12 20.138 49.494 20.138 79.122 0 47.196-13.676 83.968-40.938 110.364-27.33 26.374-62.26 39.55-104.79 39.55-28.718 0-52.998-6.712-72.886-20.116-19.912-13.426-35.886-31.016-47.878-52.748-12.038-21.754-20.616-45.806-25.668-72.18-5.098-26.374-7.624-52.52-7.624-78.416h-188.798c-1.866 55.5 4.62 107.088 19.434 154.76z" />
<glyph unicode="&#x4d;" glyph-name="uni4D" d="M980.514 542.594l-200.568 152.872v127.41c0 8.352-3.186 15.156-7.1 15.156h-60.462c-3.936 0-7.1-6.804-7.1-15.156v-70.52l-132.846 101.262c-14.928 14.2-34.452 21.96-55.114 21.96s-40.186-7.76-55.068-21.936l-408.188-311.048c-12.47-9.512-14.836-27.352-5.348-39.822 5.552-7.328 14.018-11.172 22.596-11.172 5.984 0 12.084 1.866 17.204 5.802l58.254 44.418v-478.254c0-43.282 37.546-78.574 83.65-78.574h171.44v301.876c0 13.22 6.53 23.894 14.61 23.894h219.296c8.078 0 14.632-10.672 14.632-23.894v-301.898h159.198c46.148 0 83.65 35.294 83.65 78.574l-0.004 474.136 52.838-40.278c12.424-9.512 30.264-7.1 39.754 5.348 9.49 12.516 7.124 30.31-5.324 39.844z" />
<glyph unicode="&#x4e;" glyph-name="uni4E" d="M737.918 827.494c-85.196 0-164.386-39.754-223.892-112.094-59.392 72.294-138.444 111.98-223.528 111.98-125.976 0.024-259.846-94.572-259.846-269.926 0-180.338 159.948-306.222 276.754-398.132 44.192-34.862 76.64-59.596 103.038-79.712 41.71-31.766 62.624-47.696 85.22-70.132 4.87-4.892 11.446-7.6 18.386-7.6 6.986 0 13.494 2.662 18.454 7.6 29.856 29.65 56.912 50.198 129.502 105.244l58.39 44.328c96.824 73.568 277.094 210.602 277.094 400.224-0.022 174.218-133.758 268.22-259.572 268.22z" />
<glyph unicode="&#x4f;" glyph-name="city72logo" horiz-adv-x="3253" d="M254.344-63.607c140.798 0 254.344 113.546 254.344 254.344v514.744c0 140.798-113.546 254.344-254.344 254.344s-254.344-113.546-254.344-254.344v-514.744c0-140.798 113.546-254.344 254.344-254.344v0zM254.344 814.485c60.558 0 109.005-48.446 109.005-109.005v-514.744c0-60.558-48.446-109.005-109.005-109.005s-109.005 48.446-109.005 109.005v514.744c0 60.558 48.446 109.005 109.005 109.005v0zM1016.586 906.836c-7.57 31.793-36.335 52.988-69.642 52.988s-62.072-21.195-69.642-52.988l-242.232-878.092c-10.598-39.363 12.112-78.725 49.96-89.323 39.363-10.598 78.725 12.112 89.323 49.96 0 0 18.167 65.1 43.905 158.965h257.372c25.737-93.865 43.905-158.965 43.905-158.965 10.598-37.849 49.96-60.558 89.323-49.96 37.849 10.598 60.558 49.96 49.96 89.323l-242.232 878.092zM837.811 293.686c28.765 104.463 60.558 221.037 87.809 319.444 27.251-98.407 59.044-214.981 87.809-319.444h-175.618zM1716.756 525.32l227.093 319.444c24.223 33.307 16.653 78.725-16.653 101.435-31.793 22.709-77.212 15.14-101.435-16.653l-261.914-367.89v325.5c0 39.363-31.793 72.67-72.67 72.67-39.363 0-72.67-33.307-72.67-72.67v-878.092c0-40.877 33.307-72.67 72.67-72.67 40.877 0 72.67 31.793 72.67 72.67v302.79l57.53 78.725 198.328-413.309c18.167-36.335 60.558-51.474 96.893-33.307 36.335 16.653 51.474 60.558 34.821 96.893l-234.663 484.465zM2192.988 687.313c40.877 0 72.67 31.793 72.67 72.67v48.446h198.328c-34.821-145.339-189.244-782.713-189.244-782.713-1.514-6.056-3.028-10.598-3.028-16.653 0-33.307 22.709-62.072 56.016-71.156 39.363-9.084 78.725 15.14 87.809 54.502l211.953 872.036c4.542 21.195 0 43.905-13.626 62.072-13.626 16.653-34.821 27.251-57.53 27.251h-363.348c-39.363 0-72.67-33.307-72.67-72.67v-121.116c0-40.877 33.307-72.67 72.67-72.67v0zM2897.316 759.983c15.14 24.223 37.849 42.391 65.1 49.96 28.765 7.57 57.53 4.542 83.267-9.084 24.223-13.626 42.391-36.335 51.474-63.586 7.57-27.251 4.542-57.53-7.57-83.267l-319.444-605.581c-10.598-22.709-10.598-48.446 3.028-71.156 13.626-21.195 36.335-34.821 62.072-34.821h339.125c39.363 0 72.67 31.793 72.67 72.67 0 39.363-33.307 72.67-72.67 72.67h-219.523c77.212 145.339 263.428 499.604 263.428 499.604 30.279 59.044 36.335 127.172 18.167 190.758-19.681 65.1-62.072 118.088-121.116 149.881s-127.172 40.877-190.758 22.709c-65.1-18.167-119.602-60.558-152.909-118.088-19.681-34.821-7.57-78.725 27.251-99.921 34.821-19.681 78.726-7.57 98.407 27.251z" />
<glyph unicode="&#x56;" glyph-name="uni56" d="M651.606 878.422h-283.284c-175.286 0-317.918-154.328-317.918-343.996 0-173.374 116.372-315.892 270.996-340.264v-157.696c0-15.52 9.42-29.446 23.802-35.272 4.596-1.798 9.42-2.73 14.176-2.73 10.148 0 20.116 4.096 27.42 11.72l172.556 180.178h92.252c175.264 0 317.872 154.35 317.872 344.064 0 189.668-142.61 343.996-317.872 343.996z" />
<glyph unicode="&#x58;" glyph-name="uni58" d="M512 937.244c-269.79 0-489.244-219.432-489.244-489.244 0-269.744 219.454-489.244 489.244-489.244 269.744 0 489.244 219.5 489.244 489.244 0 269.812-219.5 489.244-489.244 489.244zM497.596 373.134l-100.58-100.58 42.666-42.69c3.732-3.71 5.074-9.102 3.436-14.108-0.364-1.024-0.842-1.934-1.41-2.822-0.5-0.842-1.046-1.524-1.684-2.208-2.116-2.298-4.778-3.914-7.942-4.392l-155.922-24.736c-4.414-0.638-8.852 0.774-12.014 3.892s-4.574 7.624-3.936 11.97l24.758 155.944c0.842 5.166 4.46 9.398 9.444 11.014 1.298 0.432 2.708 0.614 4.050 0.614l0.204 0.068c1.046 0 2.048-0.136 3.026-0.364 0.296-0.068 0.5-0.204 0.706-0.274 0.91-0.228 1.73-0.478 2.48-0.91 0.318-0.16 0.592-0.296 0.888-0.5 0.978-0.546 1.888-1.228 2.708-2.070l42.712-42.622 100.58 100.534c12.652 12.652 33.178 12.652 45.83 0 12.584-12.628 12.584-33.084 0-45.76zM764.768 537.316c-0.842-5.166-4.46-9.444-9.42-11.036-1.342-0.432-2.662-0.592-4.096-0.66h-0.204c-1.070 0-2.002 0.114-3.026 0.364 0 0-0.478 0.114-0.728 0.204-0.888 0.25-1.662 0.546-2.458 0.978-0.318 0.092-0.592 0.25-0.888 0.432-0.91 0.592-1.888 1.228-2.73 2.070l-24.052 24.030-18.592 18.66-100.602-100.556c-12.674-12.652-33.2-12.652-45.762 0-12.744 12.63-12.744 33.154 0 45.784l100.512 100.556-42.69 42.69c-3.71 3.686-4.984 9.148-3.346 14.108 0.274 1.024 0.75 1.956 1.342 2.844 0.432 0.75 1.046 1.48 1.684 2.14 2.116 2.298 4.778 3.936 8.032 4.414l155.922 24.712c4.37 0.682 8.784-0.728 11.924-3.914 3.094-3.14 4.574-7.578 3.936-11.992l-24.758-155.828z" />
<glyph unicode="&#x61;" glyph-name="uni61" horiz-adv-x="1422" d="M1365.328 861.102v-764.278c0 0-217.414 61.202-378.914 30.034-144.704-27.776-251.238-106.348-269.176-120.132v-2.276c0 0-0.568 0.38-1.518 1.138-0.948-0.758-1.518-1.138-1.518-1.138v2.276c-17.936 13.784-124.472 92.374-269.176 120.132-161.5 31.172-400.454-30.034-400.454-30.034l0.004 766.552c-13.784-2.274-28.706-4.532-44.576-6.808v-823.396c0 0 260.112 67.062 437.104 32.876 173.976-33.426 279.186-134.124 279.186-134.124s105.21 100.678 279.186 134.124c176.992 33.994 426.524-32.876 426.524-32.876v819.812c0 0-21.728 3.774-56.672 8.118zM432.004 204.136c141.48-27.208 250.858-109.19 250.858-109.19l0.002 751.992c0 0-109.93 81.984-251.788 109.19-143.774 27.758-331.158-26.83-331.158-26.83v-751.992c0 0.002 188.142 54.398 332.086 26.83zM1309.986 174.652v751.994c0 0-171.892 54.396-315.456 26.828-141.862-27.208-255.394-109.172-255.394-109.172v-751.992c0 0 112.964 81.984 254.442 109.19 143.946 27.568 316.408-26.848 316.408-26.848z" />
<glyph unicode="&#x62;" glyph-name="uni62" horiz-adv-x="478" d="M351.558 826.83h-153.534v92.11c0 22.66-18.398 41.060-40.894 41.060-22.66 0-41.060-18.398-41.060-41.060v-92.606c-68.624-5.252-122.814-62.562-122.814-132.674v-624.64c0-73.398 59.606-133.17 133.17-133.17h225.296c73.562 0 133.17 59.606 133.17 133.17v624.64c-0.166 73.564-59.772 133.17-133.334 133.17zM413.13 488.894c-3.452-10.67-9.2-20.53-20.364-20.53h-307.382c-11.33 0-16.912 9.694-20.53 20.53-10.174 30.704-10.174 30.704-10.174 225.296 0 11.33 9.2 20.53 20.53 20.53h327.598c11.33 0 20.53-9.2 20.53-20.53-0.018-194.592-0.018-194.592-10.208-225.296z" />
<glyph unicode="&#x63;" glyph-name="uni63" horiz-adv-x="886" d="M3.316 9.432v-73.432h760.446v73.432h-61.486l0.002 507.95c17.794 0 16.224-8.1 16.224-13.516l-0.002-395.334c0-51.586 38.070-86.948 82.898-86.948 46.172 0 81.534 36.728 81.534 85.606s-65.104 190.122-65.104 236.294v377.514c0 28.604-10.808 52.93-25.896 65.104l-89.656 73.204 0.002 58.574c0 22.984-18.932 42.12-42.12 42.12h-553.234c-22.962 0-42.122-19.138-42.122-42.12v-12.174h400.292c166.456 0 177.266-9.466 177.266-21.618v-187.414c0-12.174-10.808-21.618-21.618-21.618l-474.382-0.002c-10.808 0-21.846 9.466-21.846 21.618l-0.002 187.188c0 9.466 6.304 17.34-59.688 20.502l-0.022-894.93h-61.486zM702.048 803.896c10.808-8.1 18.932-17.568 18.932-28.604v-78.848h54.294v-339.468c0-85.606 68.016-200.932 68.016-249.81 0-25.896-16.224-46.172-42.12-46.172s-42.12 18.932-42.12 47.536l0.002 435.886c0 14.86-17.568 21.618-34.020 21.618h-23.21l0.002 237.862z" />
<glyph unicode="&#x64;" glyph-name="uni64" d="M512-64c-282.314 0-512 229.686-512 512s229.686 512 512 512c282.314 0 512-229.686 512-512s-229.686-512-512-512zM512 918.21c-259.324 0-470.21-210.886-470.21-470.21s210.886-470.21 470.21-470.21c259.324 0 470.21 210.886 470.21 470.21s-210.886 470.21-470.21 470.21zM733.898 439.46c-3.806-108.486-297.328-344.064-546.004-87.020 0 0 107.52-98.98 227.984 11.012 0 0-55.102 6.454-22.412 50.35 0 0-57.942-2.666-73.902 40.284 0 0 22.412 21.078 41.038 16.52 0 0-60.802 7.4-65.536 63.256 0 0 17.852 9.312 32.672 4.56 0 0-56.050 27.552-47.684 75.236 0 0 198.154-75.988 201.766-109.994 0 0 58.89 139.264 100.874 149.33l-3.806-11.012c0 0 35.53 19.186 43.878 17.486 0 0-9.506-13.486-15.766-17.292 9.506 3.612 41.424 14.432 42.93 3.612 0 0 0-14.626-52.244-24.692 0 0 116.832-4.56 133.564-118.166 0 0 57.942-14.626 72.956 1.894 0 0-16.906-35.724-65.536-32.112 0 0 37.424-15.572 65.536-8.366 0.754-0.194-24.516-34.972-70.308-24.886z" />
<glyph unicode="&#x65;" glyph-name="uni65" d="M512 960c-282.662 0-511.904-229.24-511.904-511.904s229.242-512.096 511.904-512.096 511.904 229.24 511.904 511.904c0 282.856-229.242 512.096-511.904 512.096zM865.184 475.088c0 0-28.132-38.584-79.080-27.378-4.174-120.522-330.366-382.648-606.942-96.758 0 0 119.556-110.052 253.584 12.172 0 0-61.208 7.226-24.904 56.068 0 0-64.434-3.034-82.114 44.862 0 0 24.904 23.378 45.616 18.238 0 0-67.488 8.172-72.8 70.328 0 0 19.766 10.26 36.304 5.14 0 0-62.348 30.604-52.842 83.64 0 0 220.314-84.586 224.294-122.224 0 0 65.574 154.74 112.156 165.946l-4.174-12.172c0 0 39.53 21.484 48.842 19.398 0 0-10.646-15.012-17.678-19.204 10.646 4 46.002 16.152 47.702 4 0 0 0-16.346-58.174-27.57 0 0 129.836-5.14 148.654-131.342 0 0 64.434-16.346 81.166 2.086 0 0-18.818-39.724-72.8-35.744 0.388-0.174 42.006-17.466 73.19-9.486z" />
<glyph unicode="&#x66;" glyph-name="uni66" d="M508.774 960c-282.664-1.72-510.396-232.468-508.678-515.13s232.468-510.57 515.13-508.676c282.662 1.72 510.378 232.468 508.676 515.13-1.698 282.662-232.466 510.396-515.128 508.676zM681.558 277.398c0-6.84-11.592-13.312-17.292-17.292s-16.346-5.14-22.818-2.86l-283.050 94.478v-83.060c0-11.592-9.892-23.764-21.484-23.764h-14.258c-5.506 0-11.032 3.42-15.012 7.42-4 4-6.28 10.646-6.28 16.152v96.566c0 1.334 0.194 12.732 0.386 12.732h-37.076l-49.036-14.258c-6.28-1.334-12.732-1.72-17.678 2.28-0.58 0.386-2.474-0.194-3.034 0.386-3.806 4-7.612 8.172-7.612 13.872v93.898c0 6.28 4.366 12.366 9.312 16.346 4.946 4 12.172 9.12 18.432 7.786l49.036-6.28h40.864l331.892 108.912c6.472 2.28 22.044-0.58 27.57-4.56 5.506-4 17.292-12.172 17.292-19.012l0.040-299.742zM753.606 335.38c-2.666-5.14-9.7-8.172-17.292-8.366-1.894 0-4 0.194-5.892 0.754-9.506 2.086-14.646 9.12-11.206 15.592 15.012 29.27 22.624 60.068 22.624 90.866 0 30.604-7.42 61.208-22.432 90.092-3.226 6.472 1.72 13.312 11.206 15.592 9.506 2.28 19.766-1.14 23.184-7.612 16.346-31.55 24.324-64.822 24.324-98.092 0.002-33.638-8.364-67.082-24.516-98.826zM824.688 268.838c-3.034-4.366-9.7-7.032-16.538-7.032-2.474 0-5.14 0.386-7.612 1.14-9.12 2.86-13.118 10.26-8.752 16.346 34.218 48.842 51.316 101.704 51.316 154.546s-17.098 105.492-51.316 154.546v0c-4.174 6.086-0.386 13.506 8.752 16.346 8.926 2.86 19.958 0.386 24.132-5.892 36.496-52.282 54.928-108.544 54.928-165 0.038-56.262-18.414-112.718-54.91-165zM225.358 393.342l38.004 11.978v43.53l-38.004 11.978z" />
<glyph unicode="&#x67;" glyph-name="uni67" d="M612.468 368.166c0-20.68 16.764-37.444 37.444-37.444s37.444 16.764 37.444 37.444c0 20.68-16.764 37.444-37.444 37.444s-37.444-16.764-37.444-37.444zM326.752 368.166c0 0 0 0 0 0 0-20.684 16.77-37.454 37.454-37.454s37.454 16.77 37.454 37.454c0 0 0 0 0 0s0 0 0 0c0 20.684-16.77 37.454-37.454 37.454s-37.454-16.77-37.454-37.454 0 0 0 0zM423.704 702.898h166.7c8.366 0 15.012 2.086 15.012 10.452l-1.334 10.452c0 5.314-2.86 11.032-7.032 13.68-2.28 1.526-5.14 3.42-7.98 3.42h-164.052c-3.034 0-5.7-3.034-7.98-4.56-4.174-2.666-7.032-8.366-7.032-13.872l-1.334-8.752c0.020-8.154 6.666-10.82 15.032-10.82zM594.21 664.894h-174.312c-36.69 0-69.188-4.752-88.006-15.206l-16.732-186.098c19.766-13.506 56.068-26.798 97.898-26.798h187.624c42.004 0 78.694 14.452 98.284 28.132l-16.732 183.238c-18.836 10.454-51.334 16.732-88.024 16.732zM511.904 959.904c-282.664 0-511.904-229.242-511.904-511.904 0-282.856 229.24-511.904 511.904-511.904s511.904 229.048 511.904 511.904c-0.002 282.662-229.048 511.904-511.904 511.904zM616.448 132.646l-11.032 38.024h-196.164l-11.032-38.024h-46.562l33.27 95.038h46.756l-10.838-19.012h173.366l-10.838 19.012h46.756l33.27-95.038h-46.952zM621.588 265.708c-0.386 0-0.58 0-0.946 0h-227.156c-0.194 0-0.194 0-0.386 0-73.748 0-123.17 39.724-123.17 102.844v0.194l26.238 292.536c0.58 65.014 53.422 117.664 123.364 117.664h174.312c69.96 0 122.996-53.422 123.364-118.244l26.43-289.696c0.366-63.1-48.864-105.298-122.050-105.298z" />
<glyph unicode="&#x68;" glyph-name="uni68" d="M511.904 959.904c-282.664 0-511.904-229.242-511.904-511.904 0-282.856 229.24-511.904 511.904-511.904 282.856 0 511.904 229.24 511.904 511.904 0.192 282.662-229.048 511.904-511.904 511.904zM511.904 178.65c-39.164 71.1-195.604 320.106-195.604 391.206 0 142.182 117.276 177.924 195.604 177.924 78.308 0 195.604-35.744 195.604-177.924-0.002-71.294-156.442-320.3-195.604-391.206zM496.504 615.84l-77.36-123.75h77.36l-61.96-123.924 154.72 154.722h-77.36l92.952 92.952z" />
<glyph unicode="&#x69;" glyph-name="uni69" d="M511.902 960c-282.664 0-511.902-229.238-511.902-511.902 0-282.86 229.238-511.902 511.902-511.902 282.86 0 511.902 229.238 511.902 511.902 0.196 282.664-229.042 511.902-511.902 511.902zM509.774 682.968c32.256 0 54.016-24.478 54.016-55.946 0-33.418-23.886-56.734-54.016-56.734-29.716 0-53.426 23.118-53.426 56.734 0.002 32.828 23.692 55.946 53.426 55.946zM606.898 208.364h-174.848v20.796c38.852 0 38.852 5.828 38.852 53.426v147.456c0 47.596 0 50.904-38.852 50.904v25.836c38.852 2.52 80.818 12.82 125.302 31.468l10.692-5.828v-250.428c0-47.006 0-52.834 38.852-52.834l0.002-20.796z" />
<glyph unicode="&#x6a;" glyph-name="uni6A" horiz-adv-x="1070" d="M1033.060 49.586h-89.414l-113.14 342.074-55.64 167.85-58.85 177.9-68.434 206.602c-4.932 14.562-19.072 24.612-35.030 24.612h-143.658c-15.54 0-29.682-10.050-34.242-25.076l-99.884-301.042-69.316-209.812-65.688-197.948-61.596-185.202-101.694 0.042c-20.052 0-36.474-16.422-36.474-36.474v-49.266c0-20.052 16.422-36.474 36.474-36.474h996.588c20.052 0 36.474 16.422 36.474 36.474v49.266c0.464 20.052-15.96 36.474-36.476 36.474zM495.318 894.748h91.696l0.466-1.35c-0.466-26.47-20.982-47.452-46.056-47.452s-45.59 21.448-46.056 47.872l-0.050 0.93zM644.93 719.592l58.85-177.9-354.404-88.020 69.316 209.812 226.238 56.108zM759.42 373.89l58.85-177.9-519.508-129.050h-78.016l62.478 188.832 476.196 118.118z" />
<glyph unicode="&#x6b;" glyph-name="uni6B" horiz-adv-x="1504" d="M1499.91 399.45c-56.37 53.484-125.554 91.806-199.31 109.852-1.744 1.142-4.090 1.744-6.376 1.744h-6.98c-2.348 0-4.090-0.602-5.834-1.744-22.68-11.612-52.88-18.588-84.284-18.588s-61.602 6.98-84.284 18.588c-1.744 1.142-4.090 1.744-6.376 1.744h-4.632c-1.142 0-2.348 0-2.888-0.602-33.148-7.58-65.092-19.734-95.292-34.892-15.702-53.484-45.902-104.016-86.028-143.542h573.566c6.98 0 12.814 5.834 12.814 12.814l-0.006 45.362c0 3.49-1.142 6.98-4.090 9.264zM1052.44 710.958c0-13.356 10.466-24.426 23.824-24.426 0 0 0.602 0 0.602 0 4.632-65.092 56.97-129.584 120.86-129.584 63.95 0 115.628 65.092 120.86 129.584 0 0 0 0 0.602 0 13.356 0 23.824 11.070 23.824 24.426 0 9.866-5.834 18.588-13.956 22.68 4.632 14.498 7.58 30.2 7.58 46.504 0 79.052-61.602 143.542-138.306 143.542s-138.306-64.492-138.306-143.542c0-16.244 2.888-31.944 7.58-46.504-9.328-4.088-15.164-12.812-15.164-22.68zM491.626 480.246c-26.17 12.212-54.024 22.078-81.938 29.058-1.742 0.6-4.030 1.742-5.774 1.742h-6.978c-2.348 0-4.090-0.602-5.834-1.744-22.68-11.612-52.88-18.588-84.284-18.588-31.402 0-62.206 6.98-84.284 18.588-2.288 1.144-4.034 1.744-6.318 1.744h-4.692c-1.142 0-1.744 0-2.888-0.602-76.164-17.384-147.034-56.368-204.546-110.994-2.948-2.284-4.090-5.774-4.090-9.264v-45.302c0-6.98 5.834-12.814 12.814-12.814h566.046c-41.33 40.67-72.132 92.948-87.234 148.176zM161.53 710.958c0-13.356 10.466-24.426 23.824-24.426 0 0 0 0 0.602 0 4.632-65.092 56.97-130.124 120.86-130.124 63.348 0 115.628 65.092 120.86 129.584 0 0 0 0 0 0 13.356 0 23.824 11.070 23.824 24.426 0 9.866-5.834 18.588-13.956 22.68 4.632 14.498 7.58 30.2 7.58 46.504 0 79.052-61.602 143.542-138.306 143.542-76.706 0.54-138.308-64.010-138.308-143.602 0-16.244 2.888-31.944 7.58-46.504-8.726-3.488-14.56-12.212-14.56-22.080zM500.954 583.72c0-23.22 17.988-41.872 40.67-41.872 0 0 0.602 0 0.602 0 2.888-41.872 17.446-83.080 40.126-119.116 8.724-13.956 19.192-27.312 30.802-38.924 36.034-38.382 83.684-63.95 135.42-63.95 55.226 0 105.762 29.058 142.942 71.47 4.632 5.234 8.724 10.466 12.814 16.244 28.456 38.924 47.046 86.57 50.534 133.674 0 0 0.602 0 0.602 0 22.078 0 40.67 18.588 40.67 41.872 0 16.844-9.866 31.944-23.824 38.382 8.122 24.966 12.814 51.738 12.814 79.052 0 135.42-105.762 245.274-235.946 245.274-130.188 0-235.946-109.852-235.946-245.274 0-27.916 4.632-54.626 12.814-79.052-15.23-5.834-25.094-20.936-25.094-37.78zM924.6 250.674c-2.888 1.744-6.98 2.888-10.466 2.888h-11.612c-3.49 0-6.98-0.602-10.466-2.348-38.382-20.334-90.66-31.402-144.144-31.402-52.88 0-105.762 11.612-143.542 31.402-3.49 1.744-6.98 2.348-10.466 2.348h-8.122c-1.744 0-3.49 0-5.234-0.602-130.188-30.2-250.446-95.896-349.288-189.442-4.090-4.090-6.98-9.866-6.98-15.702v-77.306c0-12.212 9.866-21.478 22.078-21.478h1003.048c12.212 0 22.078 9.866 22.078 21.478v77.306c0 5.834-2.348 11.612-6.376 15.702-95.838 91.864-213.812 156.356-340.508 187.156z" />
<glyph unicode="&#x6d;" glyph-name="uni6D" horiz-adv-x="590" d="M295 750.316c-36.116 0-71.050-6.616-102.912-18.236 35.328 49.31 79.202 102.086 132.806 158.8v0c6.972 7.364 11.264 17.092 11.264 27.964-0.394 22.92-18.632 41.156-41.158 41.156-11.658 0-22.528-5.042-29.892-13.194v0.394c-141.746-151.080-222.918-276.874-253.204-394.162-12.406-32.61-19.022-67.938-19.022-104.842 0-166.596 135.522-302.12 302.12-302.12 36.116 0 71.050 6.616 102.912 18.236-35.328-49.31-79.596-101.73-132.804-159.192v0c-6.972-7.364-11.264-17.092-11.264-27.964 0-22.528 18.236-41.156 41.156-41.156 11.658 0 22.528 5.042 29.892 12.8v0c141.746 151.040 222.878 276.874 253.204 393.768 12.446 32.61 19.022 68.332 19.022 105.236 0 166.99-135.522 302.512-302.12 302.512z" />
<glyph unicode="&#x6e;" glyph-name="uni6E" horiz-adv-x="1162" d="M976.916 411.142c-17.43 0-33.512-9.388-41.6-25.052l-67.488-126.984-83.152 243.648c-6.276 18.312-23.24 30.862-42.902 31.746-20.126 0.466-37.092-10.736-44.714-28.632l-57.218-135.49-89.936 539.262c-3.998 22.822-25.472 39.786-47.364 38.904-23.24-0.466-42.482-15.664-45.598-38.904l-79.154-626.366-64.84 336.19c-4.044 20.126-20.126 35.324-40.252 37.556-19.196 2.696-39.322-7.576-47.828-25.936l-105.51-219.99c0 0-84.966 0-93.424 0-18.312 0.048-25.936-6.228-25.936-23.656 0-5.344 0-36.208 0-44.714 0-12.968 5.344-25.052 25.052-25.052 7.158 0 123.824 0 123.824 0 17.894 0 34.442 10.272 42.482 26.4l56.798 118.478 91.194-476.606c4.462-22.356 23.704-38.020 46.062-38.020h1.348c22.822 0.466 42.018 17.894 45.178 40.67l78.226 615.628 65.724-405.074c3.578-20.546 20.546-36.208 41.134-38.44 20.546-1.766 40.252 9.388 48.292 28.632l70.65 167.234 78.692-229.796c6.276-17.894 22.356-29.934 40.67-31.746 18.778-0.882 36.208 8.040 45.178 25.052l105.044 198.052c0 0 126.984 0 131.91 0 15.664 0 24.588 6.692 24.588 25.052 0 5.344 0 40.252 0 42.902 0 18.778-10.736 25.47-26.818 25.47-6.322-0.418-158.312-0.418-158.312-0.418z" />
<glyph unicode="&#x70;" glyph-name="uni70" horiz-adv-x="1228" d="M1192.030 76.734c-753.94 40.422-591.332 768.216-304.544 694.792-30.034-17.754-49.274-80.332-31.058-122.698 20.21-45.334 57.152-76.392 122.698-61.092 90.156 20.67 93.636 148.332 61.604 214.848-33.514 68.462-121.724 153.244-275.942 153.244-373.006 0-631.754-272.974-705.638-534.18-64.574-227.18-59.15-377.968-59.15-441.516 0-22.668 15.76-39.398 42.878-39.398 22.668 0 1158.004 0 1158.004 0s27.118 1.484 27.118 33.514c0 18.728 0 49.274 0 60.12 0 39.858-35.97 42.366-35.97 42.366z" />
<glyph unicode="&#x71;" glyph-name="uni71" horiz-adv-x="852" d="M426 163.968h-210.048v74.582l210.048 0.042v-74.624zM633.53 301.526h-417.578v74.582h417.622l-0.044-74.582zM633.53 439.040h-417.578v74.582h417.622l-0.044-74.582zM529.766 860.8v-213.376h213.376v-612.224h-634.71v825.6h421.334zM591.886 960h-582.654v-1024h833.536v773.504l-250.882 250.496z" />
<glyph unicode="&#x72;" glyph-name="uni72" horiz-adv-x="698" d="M348.998 960c-140.984 0-352.022-64.186-352.022-319.954 0-128.326 281.554-576.186 352.024-704.046 70.516 128.326 352.024 576.186 352.024 704.046 0 255.768-211.456 319.954-352.026 319.954z" />
<glyph unicode="&#x73;" glyph-name="uni73" horiz-adv-x="568" d="M97.632-64l-111.502 117.59 373.306 394.41-373.306 394.41 110.934 117.59 484.806-512z" />
<glyph unicode="&#x74;" glyph-name="uni74" horiz-adv-x="1536" d="M1259.026 877.34h-981.466c-90.662 0-163.782-73.14-163.782-163.782v-531.798c0-90.15 73.16-163.784 163.784-163.784h981.504c90.15 0 163.784 73.16 163.784 163.784l-0.058 531.798c-0.474 90.642-73.616 163.782-163.766 163.782zM195.414 662.642l286.434-214.698-286.436-214.698 0.002 429.396zM1340.7 182.272c0-45.34-36.808-81.636-81.636-81.636l-981.504-0.018c-45.34 0-81.636 36.808-81.636 81.636l320.398 240.184 178.84-134.030c21.732-16.042 47.634-24.52 73.614-24.52s51.882 8.002 73.614 24.52l178.84 134.030 319.47-240.166zM1340.7 233.188l-286.492 214.756 286.492 214.698v-429.454zM817.322 320.968c-14.166-10.866-31.176-16.516-49.096-16.516s-34.93 5.688-49.096 16.516l-523.716 392.59c0 45.34 36.808 81.636 81.636 81.636h981.504c45.34 0 81.636-36.808 81.636-81.636l-522.868-392.59z" />
<glyph unicode="&#x75;" glyph-name="uni75" horiz-adv-x="1068" d="M757.48 440.584c0 0 0 0 0 0 0-24.474 19.84-44.314 44.314-44.314s44.314 19.84 44.314 44.314c0 0 0 0 0 0s0 0 0 0c0 24.474-19.84 44.314-44.314 44.314s-44.314-19.84-44.314-44.314c0 0 0 0 0 0zM890.058 607.132h-66.84c0 1.484 0.372 3.338 0.372 4.792l-0.028 172.496c0 49.098-39.902 89-89 89h-400.724c-49.468 0-89-39.902-89-89v-172.498c0-1.484 0-3.338 0.372-4.792l-67.21 0.002c-49.1 0-89-39.902-89-89v-276.982c0-49.098 39.902-89 89-89h66.84v-40.984c0-49.098 39.902-89 89-89h400.722c49.098 0 89 39.902 89 89v40.984h66.84c49.098 0 89 39.902 89 89v276.982c-0.342 49.098-40.246 89-89.344 89zM333.838 784.42h400.722v-172.498l-400.722 0.002v172.496zM734.56 241.136v-129.984l-400.722-0.018v172.452h400.722v-42.45zM890.058 241.136h-66.84v120.388l-578.38 0.028v-120.388l-66.838-0.028v276.982h712.060l-0.002-276.982z" />
<glyph unicode="&#x76;" glyph-name="uni76" d="M512 960c-282.624 0-512-229.376-512-512s229.376-512 512-512c282.624 0 512 229.376 512 512s-229.376 512-512 512zM645.12 673.28h-62.26c-24.576 0-19.66-23.348-19.66-42.598v-80.282h89.702l-12.288-122.88h-77.414v-327.68h-163.84v327.68h-40.96v122.88h40.96v80.282c0 78.642 38.502 124.518 150.324 124.518h95.436v-81.92z" />
<glyph unicode="&#x78;" glyph-name="uni78" horiz-adv-x="1044" d="M1013.766 110.83l-349.804 349.804 324.54 324.724c40.382 40.382 40.382 106.028 0 146.41s-106.028 40.382-146.41 0l-324.748-324.724-315.204 315.434c-40.382 40.382-106.028 40.382-146.41 0s-40.382-106.028 0-146.41l315.412-315.412-340.908-340.492c-40.382-40.382-40.382-106.028 0-146.41 20.296-20.318 46.814-30.466 73.308-30.466 26.518 0 53.014 10.148 73.308 30.234l340.678 340.678 349.804-349.804c20.294-20.294 46.814-30.234 73.308-30.234 26.518 0 53.014 10.148 73.308 30.234 40.2 40.406 40.2 106.052-0.182 146.434z" />
<glyph unicode="&#x79;" glyph-name="72" d="M512-32v0c-265.097 0-480 214.903-480 480s214.903 480 480 480c265.097 0 480-214.903 480-480s-214.903-480-480-480zM734.024 306.279h-139.617c24.943 86.159 167.115 104.012 167.115 217.989 0 53.581-32.041 111.763-113.599 111.763-42.1 0-76.899-11.8-103.903-33.928-7.787-6.176-10.385-13.317-10.385-21.054 0-16.293 13.528-28.362 28.565-28.362 11.967 0 18.187 8.927 34.799 17.853 12.504 6.822 27.549 12.069 48.827 12.069 41.077 0 57.681-28.354 57.681-58.342 0-56.172-66.506-83.503-116.894-128.687-31.656-28.362-56.6-62.994-56.6-115.979 0-15.857 10.871-26.743 28.035-26.743h175.983c15.269 0 27.498 11.858 27.498 26.743-0.007 14.827-12.243 26.678-27.505 26.678v0zM455.741 471.078v137.73c0 14.827-12.236 27.222-27.491 27.222h-163.014c-15.581 0-28.565-12.396-28.565-27.222 0-14.834 12.983-26.787 28.565-26.787h132.49v-110.515h-54.88c-11.104 0-20.633-6.691-24.798-16.256-2.438-3.977-3.883-8.593-3.883-13.506 0-14.616 12.504-26.736 27.549-26.736h56.005v-133.622c0-16.242 12.729-28.957 29.008-28.957 15.806 0 29.008 12.715 29.008 28.957v136.423c12.722 2.206 22.411 13.281 22.411 26.634 0.015 13.353-9.674 24.421-22.403 26.634v0z" />
<glyph unicode="&#x7a;" glyph-name="uni7A" horiz-adv-x="1228" d="M1223.088 296.648l-178.88 246.676c-4.912 6.856-13.252 11.308-21.644 11.308s-16.732-3.94-21.644-11.308l-178.88-246.676c-5.884-8.34-6.856-18.676-2.456-27.988 4.402-8.852 13.764-14.736 24.1-14.736h99.264c-21.644-36.38-49.12-69.79-82.532-98.292-78.132-65.852-176.882-97.318-278.142-88.466-98.752 8.34-189.162 54.032-254.554 128.736-22.616 26.044-62.424 28.5-88.466 5.884s-28.5-62.424-5.884-87.954c86.472-98.752 206.868-159.23 337.598-170.538 14.736-1.484 29.472-1.944 43.748-1.944 119.422 0 233.422 41.752 325.778 119.422 62.884 53.060 111.032 119.422 141.528 193.614h118.91c10.336 0 19.188 5.884 24.1 14.736 4.912 8.902 3.94 19.698-1.944 27.526zM227.538 352.676l178.88 246.676c5.884 8.34 6.856 18.676 2.456 27.988-4.402 8.852-13.764 14.736-24.1 14.736l-100.236 0.048c72.708 124.336 211.318 199.038 361.184 186.706 99.776-8.34 190.648-54.544 256.038-130.22 22.616-26.044 61.912-29.012 87.954-6.396 26.044 22.616 29.012 61.912 6.396 87.954-86.984 100.234-207.378 161.686-339.542 172.996-223.646 18.68-428.056-109.544-511.1-311.55h-118.452c-10.336 0-19.188-5.884-24.1-14.736-4.402-8.852-3.94-19.648 1.944-27.988l178.88-246.676c4.912-6.856 13.252-10.796 21.644-10.796 8.85-0.050 17.242 4.402 22.154 11.258z" />
<glyph unicode="&#xb7;" glyph-name="uniB7" horiz-adv-x="1384" d="M983.964 920.406h-583.928c-187.682 0-339.862-148.952-339.862-332.342 0-173.12 133.346-314.59 307.568-330.696 5.938-0.542 298.442-1.102 304.38-1.102l137.678-257.024c6.44-13.96 20.44-23.126 36.044-23.126 15.606 0 29.566 9.126 36.044 23.126l116.696 257.024c182.266 7.522 324.758 152.742 324.758 331.8 0.484 183.388-151.696 332.34-339.378 332.34z" />
</font>
</defs>
</svg>
