<?xml version="1.0" standalone="no"?>
<!DOCTYPE svg PUBLIC "-//W3C//DTD SVG 1.1//EN" "http://www.w3.org/Graphics/SVG/1.1/DTD/svg11.dtd" >
<svg xmlns="http://www.w3.org/2000/svg">
<metadata>
This is a custom SVG font generated by IcoMoon.
<iconset grid="16"></iconset>
</metadata>
<defs>
<font id="sf72-icons" horiz-adv-x="512" >
<font-face units-per-em="512" ascent="480" descent="-32" />
<missing-glyph horiz-adv-x="512" />
<glyph class="hidden" unicode="&#xf000;" d="M0,480L 512 -32L0 -32 z" horiz-adv-x="0" />
<glyph unicode="&#x61;" d="M 682.771,430.583l0-382.199 c0,0-108.724,30.606-189.487,15.019c-72.363-13.89-125.639-53.182-134.609-60.075l0-1.138 
			c0,0-0.284,0.19-0.759,0.569c-0.474-0.379-0.759-0.569-0.759-0.569l0,1.138 c-8.969,6.893-62.246,46.194-134.609,60.075c-80.763,15.588-200.258-15.019-200.258-15.019
			L 22.291,431.72 C 15.398,430.583, 7.936,429.454,0,428.316l0-411.762 c0,0, 130.076,33.536, 218.586,16.441c 87.002-16.716, 139.615-67.072, 139.615-67.072s 52.613,50.347, 139.615,67.072
			c 88.51,17, 213.295-16.441, 213.295-16.441L 711.111,426.524 C 711.111,426.524, 700.245,428.411, 682.771,430.583z M 216.036,102.049c 70.751-13.606, 125.449-54.604, 125.449-54.604L 341.485,423.5 
			c0,0-54.974,40.998-125.914,54.604C 143.673,491.985, 49.967,464.687, 49.967,464.687l0-376.055 C 49.967,88.633, 144.052,115.835, 216.036,102.049z M 655.095,87.305L 655.095,463.36 
			c0,0-85.959,27.202-157.753,13.416C 426.401,463.17, 369.626,422.182, 369.626,422.182l0-376.055 c0,0, 56.491,40.998, 127.241,54.604C 568.851,114.517, 655.095,87.305, 655.095,87.305z" horiz-adv-x="711.111" data-tags="quick-guide" />
<glyph unicode="&#x62;" d="M 176.021,413.415l-76.767,0 L 99.254,459.47 c0,11.33-9.199,20.53-20.447,20.53c-11.33,0-20.53-9.199-20.53-20.53l0-46.303 C 23.965,410.541,-3.13,381.886,-3.13,346.83
	l0-312.32 c0-36.699, 29.803-66.585, 66.585-66.585l 112.648,0 c 36.781,0, 66.585,29.803, 66.585,66.585L 242.688,346.83 C 242.605,383.612, 212.802,413.415, 176.021,413.415z M 206.807,244.447
	c-1.726-5.335-4.6-10.265-10.182-10.265L 42.934,234.182 c-5.665,0-8.456,4.847-10.265,10.265c-5.087,15.352-5.087,15.352-5.087,112.648c0,5.665, 4.6,10.265, 10.265,10.265
	l 163.799,0 c 5.665,0, 10.265-4.6, 10.265-10.265C 211.902,259.799, 211.902,259.799, 206.807,244.447z" horiz-adv-x="239.484" data-tags="sms" />
<glyph unicode="&#x63;" d="M 2.025,4.716l0-36.716 l 380.223,0 L 382.248,4.716 l-30.743,0 L 351.505,258.691 c 8.897,0, 8.112-4.050, 8.112-6.758L 359.617,54.266 c0-25.793, 19.035-43.474, 41.449-43.474
	c 23.086,0, 40.767,18.364, 40.767,42.803c0,24.439-32.552,95.061-32.552,118.147L 409.281,360.499 c0,14.302-5.404,26.465-12.948,32.552l-44.828,36.602L 351.505,458.94 
	c0,11.492-9.466,21.060-21.060,21.060L 53.828,480 C 42.348,480, 32.768,470.431, 32.768,458.94l0-6.087 L 232.914,452.853 c 83.228,0, 88.633-4.733, 88.633-10.809l0-93.707 c0-6.087-5.404-10.809-10.809-10.809
	L 73.546,337.527 c-5.404,0-10.923,4.733-10.923,10.809L 62.623,441.93 c0,4.733, 3.152,8.67-29.844,10.251L 32.768,4.716 L 2.025,4.716 z M 351.391,401.948c 5.404-4.050, 9.466-8.784, 9.466-14.302l0-39.424 l 27.147,0 
	l0-169.734 c0-42.803, 34.008-100.466, 34.008-124.905c0-12.948-8.112-23.086-21.060-23.086s-21.060,9.466-21.060,23.768L 379.893,272.208 c0,7.43-8.784,10.809-17.010,10.809l-11.605,0 L 351.278,401.948 z" horiz-adv-x="443.733" data-tags="fuel" />
<glyph unicode="&#x78;" d="M 507.319,55.27L 332.267,230.322L 494.676,392.824c 20.208,20.208, 20.208,53.060,0,73.268c-20.208,20.208-53.060,20.208-73.268,0L 258.894,303.59
	L 101.157,461.443c-20.208,20.208-53.060,20.208-73.268,0c-20.208-20.208-20.208-53.060,0-73.268l 157.842-157.842L 15.13,59.941c-20.208-20.208-20.208-53.060,0-73.268
	C 25.287-23.495, 38.557-28.573, 51.816-28.573c 13.27,0, 26.53,5.078, 36.686,15.13l 170.486,170.486l 175.052-175.052c 10.156-10.156, 23.427-15.13, 36.686-15.13
	c 13.27,0, 26.53,5.078, 36.686,15.13C 527.527,2.21, 527.527,35.062, 507.319,55.27z" horiz-adv-x="522.449" data-tags="close" />
<glyph unicode="&#x64;" d="M 256-32C 114.843-32,0,82.843,0,224C0,365.157, 114.843,480, 256,480C 397.157,480, 512,365.157, 512,224
			C 512,82.843, 397.157-32, 256-32z M 256,459.105C 126.338,459.105, 20.895,353.662, 20.895,224C 20.895,94.338, 126.338-11.105, 256-11.105
			c 129.662,0, 235.105,105.443, 235.105,235.105C 491.105,353.662, 385.662,459.105, 256,459.105zM 366.949,219.73c-1.903-54.243-148.664-172.032-273.002-43.51c0,0, 53.76-49.49, 113.992,5.506c0,0-27.551,3.227-11.206,25.175
		c0,0-28.971-1.333-36.951,20.142c0,0, 11.206,10.539, 20.519,8.26c0,0-30.401,3.7-32.768,31.628c0,0, 8.926,4.656, 16.336,2.28c0,0-28.025,13.776-23.842,37.618
		c0,0, 99.077-37.994, 100.883-54.997c0,0, 29.445,69.632, 50.437,74.665l-1.903-5.506c0,0, 17.765,9.593, 21.939,8.743c0,0-4.753-6.743-7.883-8.646
		c 4.753,1.806, 20.712,7.216, 21.465,1.806c0,0,0-7.313-26.122-12.346c0,0, 58.416-2.28, 66.782-59.083c0,0, 28.971-7.313, 36.478,0.947c0,0-8.453-17.862-32.768-16.056
		c0,0, 18.712-7.786, 32.768-4.183C 402.48,232.076, 389.845,214.687, 366.949,219.73" data-tags="twitter-big" />
<glyph unicode="&#x65;" d="M 256,480C 114.669,480, 0.048,365.38, 0.048,224.048C 0.048,82.717, 114.669-32, 256-32c 141.331,0, 255.952,114.62, 255.952,255.952
	C 511.952,365.38, 397.331,480, 256,480z M 432.592,237.544c0,0-14.066-19.292-39.54-13.689c-2.087-60.261-165.183-191.324-303.471-48.379c0,0, 59.778-55.026, 126.792,6.086
	c0,0-30.604,3.613-12.452,28.034c0,0-32.217-1.517-41.057,22.431c0,0, 12.452,11.689, 22.808,9.119c0,0-33.744,4.086-36.4,35.164c0,0, 9.883,5.13, 18.152,2.57
	c0,0-31.174,15.302-26.421,41.82c0,0, 110.157-42.293, 112.147-61.112c0,0, 32.787,77.37, 56.078,82.973l-2.087-6.086c0,0, 19.765,10.742, 24.421,9.699
	c0,0-5.323-7.506-8.839-9.602c 5.323,2, 23.001,8.076, 23.851,2c0,0,0-8.173-29.087-13.785c0,0, 64.918-2.57, 74.327-65.671c0,0, 32.217-8.173, 40.583,1.043
	c0,0-9.409-19.862-36.4-17.872C 396.191,242.2, 417,233.554, 432.592,237.544z" data-tags="twitter-big-on" />
<glyph unicode="&#x68;" d="M 255.952,479.952C 114.62,479.952,0,365.331,0,224c0-141.428, 114.62-255.952, 255.952-255.952c 141.428,0, 255.952,114.62, 255.952,255.952
		C 512,365.331, 397.38,479.952, 255.952,479.952z M 255.952,89.325c-19.582,35.55-97.802,160.053-97.802,195.603c0,71.091, 58.638,88.962, 97.802,88.962
		c 39.154,0, 97.802-17.872, 97.802-88.962C 353.753,249.281, 275.533,124.778, 255.952,89.325zM 248.252,307.92L 209.572,246.045L 248.252,246.045L 217.272,184.083L 294.632,261.444L 255.952,261.444L 302.428,307.92 	z" data-tags="map-on" />
<glyph unicode="&#x6a;" d="M 516.794,24.692l-44.73,0 l-27.159,82.129l-29.44,88.995l-27.834,83.968l-29.44,88.995l-34.234,103.354C 321.489,479.418, 314.415,484.445, 306.432,484.445l-71.866,0 
	C 226.793,484.445, 219.718,479.418, 217.437,471.901l-49.967-150.598l-34.676-104.96l-32.861-99.025l-28.3-85.108l-2.513-7.54L 18.246,24.692 c-10.031,0-18.246-8.215-18.246-18.246l0-24.646 
	c0-10.031, 8.215-18.246, 18.246-18.246l 498.548,0 c 10.031,0, 18.246,8.215, 18.246,18.246l0,24.646 C 535.273,16.477, 527.057,24.692, 516.794,24.692z M 247.785,447.488l 45.871,0 l 0.233-0.675
	c-0.233-13.242-10.496-23.738-23.040-23.738c-12.544,0-22.807,10.729-23.040,23.948L 247.785,447.488z M 322.63,359.866l 29.44-88.995l-177.292-44.032l 34.676,104.96L 322.63,359.866z
	 M 379.904,186.927l 29.44-88.995L 149.457,33.373L 110.429,33.373 l 31.255,94.464L 379.904,186.927z" horiz-adv-x="535.273" data-tags="disaster-other" />
<glyph unicode="&#x6b;" d="M 750.893,199.695c-28.22,26.775-62.856,45.96-99.78,54.995c-0.873,0.572-2.048,0.873-3.192,0.873l-3.494,0 
		c-1.175,0-2.048-0.301-2.921-0.873c-11.354-5.813-26.473-9.306-42.195-9.306c-15.721,0-30.84,3.494-42.195,9.306c-0.873,0.572-2.048,0.873-3.192,0.873l-2.319,0 
		c-0.572,0-1.175,0-1.446-0.301c-16.595-3.795-32.587-9.879-47.706-17.468c-7.861-26.775-22.98-52.073-43.068-71.861l 287.142,0 c 3.494,0, 6.415,2.921, 6.415,6.415L 752.941,195.057 
		C 752.941,196.804, 752.369,198.551, 750.893,199.695zM 526.878,355.644c0-6.686, 5.24-12.228, 11.927-12.228c0,0, 0.301,0, 0.301,0c 2.319-32.587, 28.521-64.873, 60.506-64.873
		c 32.015,0, 57.886,32.587, 60.506,64.873c0,0,0,0, 0.301,0c 6.686,0, 11.927,5.542, 11.927,12.228c0,4.939-2.921,9.306-6.987,11.354c 2.319,7.258, 3.795,15.119, 3.795,23.281
		c0,39.575-30.84,71.861-69.24,71.861s-69.24-32.286-69.24-71.861c0-8.132, 1.446-15.992, 3.795-23.281C 529.8,364.951, 526.878,360.584, 526.878,355.644zM 246.121,240.143c-13.101,6.114-27.046,11.053-41.020,14.547C 204.228,254.991, 203.083,255.563, 202.21,255.563L 198.716,255.563 c-1.175,0-2.048-0.301-2.921-0.873
		c-11.354-5.813-26.473-9.306-42.195-9.306c-15.721,0-31.142,3.494-42.195,9.306C 110.261,255.262, 109.387,255.563, 108.243,255.563L 105.894,255.563 c-0.572,0-0.873,0-1.446-0.301
		C 66.319,246.558, 30.84,227.042, 2.048,199.695C 0.572,198.551,0,196.804,0,195.057l0-22.679 c0-3.494, 2.921-6.415, 6.415-6.415l 283.377,0 C 269.101,186.323, 253.681,212.495, 246.121,240.143zM 80.866,355.644c0-6.686, 5.24-12.228, 11.927-12.228c0,0,0,0, 0.301,0C 95.413,310.829, 121.615,278.272, 153.6,278.272
		c 31.714,0, 57.886,32.587, 60.506,64.873c0,0,0,0,0,0c 6.686,0, 11.927,5.542, 11.927,12.228c0,4.939-2.921,9.306-6.987,11.354c 2.319,7.258, 3.795,15.119, 3.795,23.281
		c0,39.575-30.84,71.861-69.24,71.861C 115.2,462.14, 84.36,429.824, 84.36,389.978c0-8.132, 1.446-15.992, 3.795-23.281C 83.787,364.951, 80.866,360.584, 80.866,355.644zM 250.79,291.945c0-11.625, 9.005-20.962, 20.36-20.962c0,0, 0.301,0, 0.301,0c 1.446-20.962, 8.734-41.592, 20.088-59.633
		c 4.367-6.987, 9.608-13.673, 15.42-19.486c 18.040-19.215, 41.894-32.015, 67.795-32.015c 27.648,0, 52.947,14.547, 71.56,35.78c 2.319,2.62, 4.367,5.24, 6.415,8.132
		c 14.246,19.486, 23.552,43.339, 25.299,66.921c0,0, 0.301,0, 0.301,0c 11.053,0, 20.36,9.306, 20.36,20.962c0,8.433-4.939,15.992-11.927,19.215
		c 4.066,12.499, 6.415,25.901, 6.415,39.575c0,67.795-52.947,122.79-118.121,122.79c-65.175,0-118.121-54.995-118.121-122.79c0-13.975, 2.319-27.347, 6.415-39.575
		C 255.729,307.938, 250.79,300.378, 250.79,291.945zM 462.878,125.214c-1.446,0.873-3.494,1.446-5.24,1.446l-5.813,0 c-1.747,0-3.494-0.301-5.24-1.175
		c-19.215-10.18-45.387-15.721-72.162-15.721c-26.473,0-52.947,5.813-71.861,15.721c-1.747,0.873-3.494,1.175-5.24,1.175l-4.066,0 c-0.873,0-1.747,0-2.62-0.301
		c-65.175-15.119-125.38-48.008-174.863-94.84c-2.048-2.048-3.494-4.939-3.494-7.861l0-38.701 c0-6.114, 4.939-10.752, 11.053-10.752l 502.152,0 
		c 6.114,0, 11.053,4.939, 11.053,10.752l0,38.701 c0,2.921-1.175,5.813-3.192,7.861C 585.367,77.508, 526.306,109.794, 462.878,125.214z" horiz-adv-x="752.941" data-tags="disaster-connection" />
<glyph unicode="&#x6c;" d="M 318.848,309.952c-19.307,16.811-42.133,29.888-68.096,38.187C 246.4,349.397, 242.048,350.635, 237.888,351.68c-1.045,0.213-2.069,0.405-3.115,0.832
		c-4.352,1.045-8.512,1.877-12.864,2.496c-0.405,0-0.619,0-1.045,0.213c-3.947,0.619-8.085,1.045-12.032,1.451c-1.045,0-2.069,0.213-3.115,0.213
		C 201.365,356.864, 197.205,357.077, 193.045,357.077c-0.405,0-0.832,0-1.237,0c-4.352,0-8.512-0.213-12.672-0.619c-0.832,0-1.664,0-2.496-0.213
		c-1.045,0-2.283-0.213-3.52-0.405C 169.813,355.627, 166.485,355.413, 163.371,354.795C 162.539,354.795, 161.707,354.581, 160.661,354.368C 156.523,353.749, 152.149,352.917, 148.011,351.872
		C 147.797,351.872, 147.584,351.68, 147.392,351.68C 143.019,350.635, 138.667,349.397, 134.507,347.947C 133.675,347.733, 132.864,347.52, 131.819,347.115c-4.16-1.451-8.299-2.901-12.245-4.565
		C 118.955,342.336, 118.315,342.123, 117.909,341.909C 113.963,340.245, 110.229,338.603, 106.688,336.725C 106.069,336.512, 105.451,336.107, 104.832,335.893c-3.947-2.069-7.68-4.16-11.413-6.443
		C 92.587,329.045, 91.968,328.64, 91.136,328C 87.403,325.717, 83.648,323.243, 79.915,320.533c-0.213,0-0.213-0.213-0.405-0.213C 75.968,317.845, 72.661,315.136, 69.333,312.235
		C 68.501,311.808, 67.883,311.189, 67.264,310.571C 63.936,307.883, 60.821,304.768, 57.493,301.845C 57.088,301.227, 56.469,300.608, 55.851,299.989C 52.928,297.088, 50.027,293.973, 47.339,290.859
		C 46.912,290.432, 46.699,290.219, 46.507,289.813C 43.584,286.485, 40.683,282.965, 37.995,279.232C 37.568,278.613, 36.949,277.781, 36.331,276.949C 33.835,273.408, 31.147,269.675, 28.864,265.728
		c-0.213-0.405-0.619-1.045-0.832-1.451c-2.069-3.52-4.16-7.275-6.229-11.008c-0.405-0.619-0.832-1.451-1.045-2.069c-2.069-4.16-3.947-8.299-5.803-12.459
		c-0.405-0.832-0.619-1.877-1.045-2.688C 12.032,231.488, 10.389,227.115, 8.917,222.549c-31.979-101.504, 24.277-209.664, 125.589-241.621c 4.352-1.451, 8.725-2.496, 12.864-3.52
		c 1.045-0.213, 2.069-0.405, 3.115-0.832c 4.352-1.045, 8.512-1.877, 12.864-2.496c 0.213,0, 0.619,0, 0.832-0.213c 4.16-0.619, 8.085-1.045, 12.245-1.451
		c 1.045,0, 2.069-0.213, 3.115-0.213c 4.352-0.213, 8.512-0.405, 12.672-0.405c 0.405,0, 0.832,0, 1.237,0c 4.16,0, 8.512,0.213, 12.672,0.405
		c 0.832,0, 1.664,0.213, 2.496,0.213c 4.352,0.405, 8.725,0.832, 13.077,1.664c 0.832,0.213, 1.664,0.213, 2.496,0.405c 4.16,0.619, 8.512,1.451, 12.672,2.496
		c 0.213,0, 0.405,0.213, 0.619,0.213c 4.352,1.045, 8.725,2.283, 12.864,3.733c 0.832,0.213, 1.664,0.619, 2.688,0.832c 4.16,1.451, 8.299,2.901, 12.245,4.565
		c 0.619,0.213, 1.237,0.405, 1.877,0.832c 3.733,1.664, 7.467,3.328, 11.008,5.184c 0.619,0.213, 1.237,0.619, 1.877,0.832c 3.947,2.069, 7.68,4.16, 11.413,6.443
		c 0.832,0.405, 1.451,1.045, 2.283,1.451c 3.733,2.283, 7.467,4.779, 11.2,7.467c 0.213,0.213, 0.213,0.213, 0.405,0.405c 3.52,2.496, 6.848,5.184, 10.176,8.085
		c 0.619,0.619, 1.451,1.045, 2.069,1.664c 3.328,2.901, 6.443,5.803, 9.749,8.917c 0.619,0.619, 1.045,1.237, 1.664,1.664c 2.901,2.901, 5.803,6.016, 8.512,9.131
		c 0.213,0.405, 0.619,0.619, 0.832,1.045c 2.901,3.328, 5.611,6.848, 8.299,10.581c 0.619,0.832, 1.237,1.664, 1.664,2.283c 2.496,3.52, 5.184,7.275, 7.467,11.2
		c 0.213,0.405, 0.619,1.045, 0.832,1.451c 2.283,3.52, 4.16,7.275, 6.229,11.008c 0.405,0.832, 0.832,1.451, 1.045,2.069c 2.069,3.947, 3.947,8.085, 5.611,12.459
		c 0.405,0.832, 0.832,1.877, 1.045,2.688c 1.664,4.352, 3.52,8.917, 4.779,13.483C 400.213,181.867, 375.104,261.163, 318.848,309.952z M 129.109,208.64
		c-20.544,0-37.163,16.597-37.163,37.163s 16.597,37.355, 37.163,37.355c 20.544,0, 37.163-16.811, 37.163-37.355S 149.675,208.64, 129.109,208.64zM 428.245,455.467c-1.045-1.237-1.237-3.328-0.405-4.779l 23.659-39.232l-28.032-35.499c-1.045-1.237-1.237-3.328-0.213-4.779
		c 0.832-1.451, 2.688-2.283, 4.352-1.877l 44.224,10.176l 25.109-38.187c 1.045-1.451, 2.688-2.069, 4.352-1.664c 1.664,0.405, 2.901,1.877, 3.115,3.733l 3.733,45.248
		l 43.584,11.84c 1.664,0.405, 2.901,1.877, 3.115,3.733s-0.832,3.328-2.496,4.16L 510.251,426.411l 1.877,45.675c0,0.832-0.213,1.664-0.619,2.283
		c-0.405,0.832-1.237,1.237-2.069,1.664c-1.664,0.619-3.52,0.213-4.565-1.237L 475.371,440.512l-42.56,16.192C 431.147,457.344, 429.291,456.917, 428.245,455.467zM 359.125,459.2C 321.749,481.216, 290.624,460.245, 278.571,440.32l-12.032-20.757c-1.451-2.496-2.069-5.184-2.069-7.893
		c-37.781,11.008-70.379,10.795-73.899-0.619c-0.405-1.237-0.405-2.496,0-3.733L 189.312,407.723L 178.112,372.224c 4.779,0.405, 9.557,0.619, 14.528,0.619l0,0
		c 21.184,0, 42.347-3.328, 62.699-9.749c 25.749-8.085, 48.789-20.971, 68.501-36.949l 11.2,35.499L 334.208,361.835c 1.045,1.045, 1.664,2.069, 2.069,3.115
		c 3.115,9.749-15.573,24.704-44.011,36.949c 0.405,0.619, 1.045,1.237, 1.451,1.877l 12.032,20.544c 2.283,3.733, 14.528,21.376, 37.781,7.893
		C 344.384,431.595, 394.411,401.899, 425.557,399.211c 3.328,4.16, 11.2,12.864, 11.2,12.864L 427.2,428.48C 402.091,437.205, 391.509,440.32, 359.125,459.2z" horiz-adv-x="554.667" data-tags="disaster-terrorist" />
<glyph unicode="&#x6d;" d="M 147.692,375.158c-18.058,0-35.525-3.308-51.456-9.118C 113.9,390.695, 135.838,417.083, 162.639,445.44l0,0c 3.486,3.682, 5.632,8.546, 5.632,13.982
	C 168.074,470.882, 158.956,480, 147.692,480C 141.863,480, 136.428,477.479, 132.746,473.403L 132.746,473.6 C 61.873,398.060, 21.287,335.163, 6.144,276.519C -0.059,260.214,-3.367,242.55,-3.367,224.098
	c0-83.298, 67.761-151.060, 151.060-151.060c 18.058,0, 35.525,3.308, 51.456,9.118c-17.664-24.655-39.798-50.865-66.402-79.596l0,0 c-3.486-3.682-5.632-8.546-5.632-13.982
	c0-11.264, 9.118-20.578, 20.578-20.578c 5.829,0, 11.264,2.521, 14.946,6.4l0,0c 70.873,75.52, 111.439,138.437, 126.602,196.884c 6.223,16.305, 9.511,34.166, 9.511,52.618
	C 298.752,307.397, 230.991,375.158, 147.692,375.158" horiz-adv-x="295.385" data-tags="disaster-hurricane" />
<glyph unicode="&#x6e;" d="M 489.146,205.545c-8.727,0-16.78-4.701-20.829-12.544l-33.792-63.581l-41.635,121.996c-3.142,9.169-11.636,15.453-21.481,15.895
	c-10.077,0.233-18.572-5.376-22.388-14.336l-28.649-67.84L 275.34,455.145C 273.338,466.572, 262.586,475.066, 251.625,474.624c-11.636-0.233-21.271-7.843-22.831-19.479L 189.161,141.521
	L 156.695,309.853c-2.025,10.077-10.077,17.687-20.154,18.804C 126.929,330.007, 116.852,324.864, 112.593,315.671l-52.829-110.15c0,0-42.543,0-46.778,0C 3.817,205.545,0,202.403,0,193.676
	c0-2.676,0-18.129,0-22.388c0-6.493, 2.676-12.544, 12.544-12.544c 3.584,0, 61.999,0, 61.999,0c 8.96,0, 17.245,5.143, 21.271,13.219l 28.439,59.322l 45.661-238.639
	c 2.234-11.194, 11.869-19.037, 23.063-19.037l 0.675,0 c 11.427,0.233, 21.039,8.96, 22.621,20.364l 39.168,308.247l 32.908-202.822c 1.792-10.287, 10.287-18.129, 20.596-19.247
	c 10.287-0.884, 20.154,4.701, 24.18,14.336l 35.375,83.735l 39.401-115.060c 3.142-8.96, 11.194-14.988, 20.364-15.895c 9.402-0.442, 18.129,4.026, 22.621,12.544l 52.596,99.165
	c0,0, 63.581,0, 66.048,0c 7.843,0, 12.311,3.351, 12.311,12.544c0,2.676,0,20.154,0,21.481c0,9.402-5.376,12.753-13.428,12.753C 565.248,205.545, 489.146,205.545, 489.146,205.545
	z" horiz-adv-x="581.818" data-tags="disaster-earthquake" />
<glyph unicode="&#x6f;" d="M 255.893,480C 114.603,480,0,365.397,0,223.893c0-141.291, 114.603-256.107, 255.893-256.107c 141.291,0, 256.107,114.603, 256.107,256.107
	C 512,365.397, 397.397,480, 255.893,480 M 145.024,31.509l-110.891,192.384l 221.973,0 L 145.024,31.509z M 366.976,31.509l-110.891,192.384l-111.083,192.384l 221.973,0 l-110.891-192.384L 477.867,223.893 
	L 366.976,31.509z" data-tags="disaster-radiation" />
<glyph unicode="&#x70;" d="M 596.403,38.246c-377.216,20.224-295.859,384.358-152.371,347.622c-15.027-8.883-24.653-40.192-15.539-61.389c 10.112-22.682, 28.595-38.221, 61.389-30.566
	c 45.107,10.342, 46.848,74.214, 30.822,107.494C 503.936,435.661, 459.802,478.080, 382.643,478.080C 196.019,478.080, 66.56,341.504, 29.594,210.816C-2.714,97.152,0,21.709,0-10.086
	c0-11.341, 7.885-19.712, 21.453-19.712c 11.341,0, 579.379,0, 579.379,0s 13.568,0.742, 13.568,16.768c0,9.37,0,24.653,0,30.080C 614.4,36.992, 596.403,38.246, 596.403,38.246z" horiz-adv-x="614.4" data-tags="disaster-flood" />
<glyph unicode="&#x71;" d="M 213.333,81.984L 108.309,81.984 l0,37.291 L 213.333,119.296 L 213.333,81.984 z M 317.099,150.763L 108.309,150.763 l0,37.291 l 208.811,0 L 317.099,150.763 z M 317.099,219.52L 108.309,219.52 l0,37.291 l 208.811,0 L 317.099,219.52 z
	 M 265.216,430.4L 265.216,323.712 l 106.688,0 l0-306.112 L 54.549,17.6 L 54.549,430.4 L 265.216,430.4  M 296.277,480L 4.949,480 l0-512 l 416.768,0 L 421.717,354.752 L 296.277,480z" horiz-adv-x="426.667" data-tags="pdf" />
<glyph unicode="&#x72;" d="M 174.545,480C 104.052,480,-1.466,447.907,-1.466,320.023c0-64.163, 140.777-288.093, 176.012-352.023c 35.258,64.163, 176.012,288.093, 176.012,352.023
		C 350.557,447.907, 244.829,480, 174.545,480" horiz-adv-x="349.091" data-tags="map-marker" />
<glyph unicode="&#x73;" d="M 49.038-32L-6.713,26.795L 179.94,224L-6.713,421.205L 48.754,480L 291.157,224 z" horiz-adv-x="284.444" data-tags="arrow" />
<glyph unicode="&#x74;" d="M 629.513,438.67L 138.78,438.67 C 93.449,438.67, 56.889,402.1, 56.889,356.779l0-265.899 c0-45.075, 36.58-81.892, 81.892-81.892l 490.752,0 
	c 45.075,0, 81.892,36.58, 81.892,81.892L 711.396,356.779 C 711.159,402.1, 674.588,438.67, 629.513,438.67z M 97.707,331.321L 240.924,223.972l-143.218-107.349L 97.707,331.321 z M 670.35,91.136
	c0-22.67-18.404-40.818-40.818-40.818L 138.78,50.309 c-22.67,0-40.818,18.404-40.818,40.818l 160.199,120.092l 89.42-67.015c 10.866-8.021, 23.817-12.26, 36.807-12.26
	s 25.941,4.001, 36.807,12.26l 89.42,67.015L 670.35,91.136L 670.35,91.136z M 670.35,116.594L 527.104,223.972L 670.35,331.321L 670.35,116.594 z M 408.661,160.484c-7.083-5.433-15.588-8.258-24.548-8.258
	c-8.96,0-17.465,2.844-24.548,8.258L 274.916,223.972L 257.906,236.686L 97.707,356.779l0,0 c0,22.67, 18.404,40.818, 40.818,40.818l 490.752,0 c 22.67,0, 40.818-18.404, 40.818-40.818
	L 408.661,160.484z" horiz-adv-x="768" data-tags="mail" />
<glyph unicode="&#x75;" d="M 378.925,220.29A22.164,22.164 180 1 1 423.261,220.29000000000002A22.164,22.164 180 1 1 378.925,220.29000000000002zM 445.247,303.605l-33.436,0 c0,0.742, 0.186,1.67, 0.186,2.397L 411.982,392.292 c0,24.561-19.961,44.522-44.522,44.522L 167.001,436.814 
			C 142.254,436.814, 122.479,416.853, 122.479,392.292l0-86.291 c0-0.742,0-1.67, 0.186-2.397L 89.043,303.605 C 64.482,303.605, 44.522,283.644, 44.522,259.083l0-138.559 c0-24.561, 19.961-44.522, 44.522-44.522l 33.436,0 
			l0-20.502 c0-24.561, 19.961-44.522, 44.522-44.522l 200.459,0 c 24.561,0, 44.522,19.961, 44.522,44.522l0,20.502 l 33.436,0 c 24.561,0, 44.522,19.961, 44.522,44.522l0,138.559 
			C 489.769,283.644, 469.808,303.605, 445.247,303.605z M 167.001,392.292l 200.459,0 l0-86.291 L 167.001,306.002 L 167.001,392.292 z M 367.46,120.517l0-44.522 l0-20.502 L 167.001,55.485 l0,20.502 l0,44.522 l0,21.244 l 200.459,0 L 367.46,120.517 z
			 M 445.247,120.517l-33.436,0 l0,60.223 l-44.522,0 L 167.001,180.755 L 122.479,180.755 l0-60.223 L 89.043,120.517 l0,138.559 l 356.204,0 L 445.247,120.517 z" horiz-adv-x="534.261" data-tags="print" />
<glyph unicode="&#x76;" d="M 256,480C 114.688,480,0,365.312,0,224C0,82.688, 114.688-32, 256-32C 397.312-32, 512,82.688, 512,224C 512,365.312, 397.312,480, 256,480 M 322.56,336.64
	l-31.13,0 c-12.288,0-9.83-11.674-9.83-21.299L 281.6,275.2 l 44.851,0 l-6.144-61.44l-38.707,0 l0-163.84 l-81.92,0 l0,163.84 l-20.48,0 l0,61.44 l 20.48,0 L 199.68,315.341 C 199.68,354.662, 218.931,377.6, 274.842,377.6l 47.718,0 L 322.56,336.64 z" data-tags="share-fb" />
<glyph unicode="&#x77;" d="M 256,480C 114.688,480,0,365.312,0,224C0,82.688, 114.688-32, 256-32S 512,82.688, 512,224C 512,365.312, 397.312,480, 256,480 M 407.757,223.386
	c-2.458-66.97-183.501-212.582-337.101-53.658c0,0, 66.355-61.030, 140.902,6.758c0,0-33.997,3.891-13.926,31.13c0,0-35.84-1.638-45.67,24.986
	c0,0, 13.926,12.902, 25.395,10.24c0,0-37.478,4.506-40.346,39.117c0,0, 11.059,5.734, 20.275,2.867c0,0-34.611,16.998-29.491,46.49c0,0, 122.266-46.899, 124.723-67.789
	c0,0, 36.454,86.016, 62.259,92.16l-2.253-6.758c0,0, 21.914,11.878, 27.034,10.65c0,0-5.939-8.397-9.83-10.65c 5.939,2.253, 25.6,9.011, 26.624,2.253
	c0,0,0-9.011-32.358-15.36c0,0, 72.294-2.867, 82.534-72.909c0,0, 35.84-9.011, 45.056,1.229c0,0-10.445-22.118-40.346-19.866c0,0, 23.142-9.626, 40.346-5.12
	C 451.584,238.541, 436.019,217.037, 407.757,223.386" data-tags="share-twitter" />
<glyph unicode="&#x79;" d="M 511.415,42.057l-189.294,0 c 33.938,107.154, 226.779,133.23, 226.779,287.854
	C 548.571,402.395, 505.344,477.403, 394.642,477.403C 347.502,477.403, 307.493,463.835, 274.286,443.465C 241.079,463.835, 201.070,474.551, 154.295,474.551c-110.702,0-154.295-71.424-154.295-144.274
	c0-154.661, 192.841-181.065, 226.779-288.219l-189.294,0 c-20.699,0-37.157-15.726-37.157-35.73c0-20.37, 16.421-35.73, 37.157-35.73l 235.374,0 l 3.584,0 l 235.374,0 c 20.699,0, 37.157,15.726, 37.157,35.73
	C 548.571,26.331, 532.151,42.057, 511.415,42.057z M 78.555,321.682c0,40.704, 22.491,79.287, 78.226,79.287c 28.928,0, 49.298-7.131, 66.085-16.421
	c 22.491-12.142, 31.086-24.283, 47.141-24.283c 1.426,0, 2.487,0.731, 3.913,0.731c 1.426,0, 2.487-0.731, 3.913-0.731c 16.055,0, 24.649,12.142, 47.141,24.283
	c 16.786,9.289, 37.486,16.421, 66.085,16.421c 55.698,0, 78.226-38.583, 78.226-79.287c0-76.069-90.368-113.225-158.574-174.629c-13.568-12.142-26.075-25.344-37.157-39.643
	c-11.081,14.299-23.589,27.502-37.157,39.643C 168.923,208.457, 78.555,245.614, 78.555,321.682z" horiz-adv-x="548.571" data-tags="sf72" />
<glyph unicode="&#x7a;" d="M 611.942,148.275l-89.498,123.418c-2.458,3.43-6.63,5.658-10.829,5.658s-8.371-1.971-10.829-5.658l-89.498-123.418
		c-2.944-4.173-3.43-9.344-1.229-14.003c 2.202-4.429, 6.886-7.373, 12.058-7.373l 49.664,0 c-10.829-18.202-24.576-34.918-41.293-49.178c-39.091-32.947-88.499-48.691-139.162-44.262
		c-49.408,4.173-94.643,27.034-127.36,64.41c-11.315,13.030-31.232,14.259-44.262,2.944c-13.030-11.315-14.259-31.232-2.944-44.006c 43.264-49.408, 103.501-79.667, 168.909-85.325
		c 7.373-0.742, 14.746-0.973, 21.888-0.973c 59.75,0, 116.787,20.89, 162.995,59.75c 31.462,26.547, 55.552,59.75, 70.81,96.87l 59.494,0 c 5.171,0, 9.6,2.944, 12.058,7.373
		C 615.373,138.957, 614.886,144.358, 611.942,148.275zM 113.843,176.307l 89.498,123.418c 2.944,4.173, 3.43,9.344, 1.229,14.003c-2.202,4.429-6.886,7.373-12.058,7.373L 142.362,321.126 
		c 36.378,62.208, 105.728,99.584, 180.71,93.414c 49.92-4.173, 95.386-27.29, 128.102-65.152c 11.315-13.030, 30.976-14.515, 44.006-3.2c 13.030,11.315, 14.515,30.976, 3.2,44.006
		c-43.52,50.15-103.757,80.896-169.882,86.554C 216.602,486.093, 114.33,421.939, 72.781,320.87L 13.517,320.87 c-5.171,0-9.6-2.944-12.058-7.373c-2.202-4.429-1.971-9.83, 0.973-14.003
		l 89.498-123.418c 2.458-3.43, 6.63-5.402, 10.829-5.402C 107.187,170.65, 111.386,172.877, 113.843,176.307z" horiz-adv-x="614.4" data-tags="refresh" />
<glyph unicode="&#x31;" d="M 170.803-32c 7.441,0, 14.199,3.55, 18.398,9.353l 151.825,208.998c 3.243,4.198, 4.198,9.353, 4.198,14.199l0,0l0,0 
	c0,1.604-0.307,2.901-0.649,4.506c-0.307,1.604-0.956,3.243-1.604,4.847c-3.891,7.748-11.639,12.288-20.343,12.288l-98.85,0L 223.778,427.025 C 223.778,456.414, 199.885,480, 170.803,480
	c-29.082,0-52.975-23.586-52.975-52.975l0-204.8 l-43.281,0l0,0L 18.978,222.225 c-1.946,0-3.891-0.307-5.495-0.649c-0.649,0-0.956-0.307-1.604-0.307
	C 10.581,220.279, 9.318,219.972, 8.021,218.982C 7.68,218.982, 7.373,218.675, 7.031,218.675C 5.427,217.685, 4.13,216.73, 3.174,215.433c0,0,0-0.307-0.307-0.307
	C 1.229,213.487, -0.068,211.883, -1.024,209.63C-4.915,202.189-4.267,193.143, 0.58,186.044l 151.825-208.998C 156.604-28.757, 163.396-32, 170.803-32z" horiz-adv-x="341.333" data-tags="unfold" />
<glyph unicode="&#x32;" d="M 576,473.472L 288.32-25.472L0,473.472 z" horiz-adv-x="576" data-tags="dropdown" />
<glyph unicode="&#x33;" d="M 507.819,90.283L 372.864,225.237l 134.144,134.144c 2.517,2.517, 4.181,6.229, 4.181,9.6c0,3.755-1.237,7.083-4.181,9.6L 409.941,476.032
	c-4.992,4.992-14.165,4.992-19.584,0L 256.213,341.461L 122.069,476.032c-4.992,4.992-14.165,4.992-19.584,0L 4.181,377.301c-5.419-5.419-5.419-14.165,0-19.584l 134.144-134.144
	l-133.291-133.717c-5.419-5.419-5.419-14.165,0-19.584l 97.067-97.067c 5.419-5.419, 14.165-5.419, 19.584,0l 133.291,133.291l 134.997-134.997c 2.517-2.517, 6.229-4.181, 9.6-4.181
	c 3.328,0, 7.083,1.237, 9.6,4.181l 98.304,98.731c 2.517,2.517, 4.181,6.229, 4.181,9.6S 510.336,87.339, 507.819,90.283z" data-tags="close-small" />
<glyph unicode="&#x34;" d="M 658.878,484.306L 437.563,484.306 c-20.703,0-37.363-16.791-37.363-36.969L 400.2,257.779 c-18.353-2.087-32.676-17.579-32.676-36.457c0-18.878, 14.192-34.501, 32.676-36.457
		l0-181.747 c0-22.003, 17.959-39.319, 39.319-39.319c 22.134,0, 39.319,17.316, 39.319,39.319L 478.825,184.353 l 76.025,0 c 20.441,0, 37.363,16.397, 37.363,36.326c0,17.054-12.629,31.639-29.158,35.275
		c-3.781,1.3-7.811,2.087-11.973,2.087l-72.258,0 L 478.825,411.011 l 179.791,0 c 21.215,0, 38.794,16.279, 38.794,36.326C 697.672,467.515, 679.975,484.306, 658.878,484.306zM 1446.124,36.726L 1256.697,36.726 c 33.845,116.907, 226.79,141.128, 226.79,295.792c0,72.77-43.481,151.67-154.138,151.67
		c-57.147,0-104.409-16.016-140.997-46.080c-10.542-8.336-14.060-18.091-14.060-28.646c0-22.134, 18.353-38.531, 38.794-38.531c 16.279,0, 24.734,12.104, 47.262,24.208
		c 16.922,9.242, 37.363,16.397, 66.271,16.397c 55.716,0, 78.244-38.531, 78.244-79.15c0-76.288-90.217-113.388-158.694-174.71c-42.955-38.531-76.813-85.53-76.813-157.394
		c0-21.478, 14.717-36.326, 38.019-36.326l 238.894,0 c 20.703,0, 37.363,16.148, 37.363,36.326C 1483.487,20.71, 1466.959,36.726, 1446.124,36.726zM 237.332,157.926c-68.345,61.322-158.694,98.422-158.694,174.71c0,40.619, 22.528,79.15, 78.375,79.15c 28.895,0, 49.336-7.155, 66.271-16.397
		c 22.528-12.104, 30.983-24.208, 47.262-24.208c 20.441,0, 38.794,16.397, 38.794,38.531c0,10.542-3.518,20.178-14.060,28.646C 258.547,468.29, 211.298,484.306, 154.138,484.306
		C 43.481,484.306,0,405.419,0,332.636c0-154.663, 192.932-178.872, 226.79-295.792L 37.363,36.857 C 16.66,36.726,0,20.71,0,0.532c0-20.178, 16.66-36.326, 37.363-36.326l 238.894,0 
		c 23.303,0, 38.019,14.717, 38.019,36.326C 314.145,72.527, 280.418,119.526, 237.332,157.926zM 1068.452,260.378L 1068.452,447.337 C 1068.452,467.515, 1051.911,484.306, 1031.221,484.306L 809.892,484.306 c-21.084,0-38.794-16.791-38.794-36.969c0-20.047, 17.71-36.326, 38.794-36.326
		l 179.791,0 l0-149.977 L 915.22,261.035 c-15.097,0-27.989-9.111-33.713-22.134c-3.256-5.461-5.212-11.71-5.212-18.353c0-19.784, 16.922-36.326, 37.363-36.326l 76.025,0 l0-181.353 
		c0-22.003, 17.316-39.319, 39.45-39.319c 21.478,0, 39.319,17.316, 39.319,39.319L 1068.452,188.134 c 17.316,2.993, 30.457,17.959, 30.457,36.194C 1098.91,242.419, 1085.768,257.385, 1068.452,260.378z" horiz-adv-x="1483.487" data-tags="logo-sf72" />
<glyph unicode="&#x35;" d="M-2.108,419.955L 494.030,419.955L 494.030,362.501L-2.108,362.501zM-2.108,258.163L 494.030,258.163L 494.030,200.709L-2.108,200.709zM-2.108,96.371L 494.030,96.371L 494.030,38.917L-2.108,38.917z" horiz-adv-x="491.922" data-tags="menu-mobile" />
<glyph unicode="&#x36;" d="M 492.484,460.444L 200.222,460.444 C 106.285,460.444, 30.118,385.892, 30.118,294.104c0-86.648, 66.741-157.455, 153.941-165.517c 2.972-0.271, 149.373-0.552, 152.345-0.552l 68.909-128.643
	c 3.223-6.987, 10.23-11.575, 18.040-11.575c 7.811,0, 14.798,4.568, 18.040,11.575l 58.408,128.643c 91.226,3.765, 162.545,76.449, 162.545,166.069C 662.588,385.892, 586.421,460.444, 492.484,460.444z" horiz-adv-x="692.706" data-tags="map-tips" />
<glyph unicode="&#x66;" d="M 254.387,480C 113.055,479.14-0.811,363.766, 0.048,222.435c 0.86-141.331, 116.234-255.285, 257.565-254.338
		c 141.331,0.86, 255.189,116.234, 254.338,257.565C 511.102,366.993, 395.718,480.86, 254.387,480z M 340.779,138.699c0-3.42-5.796-6.656-8.646-8.646s-8.173-2.57-11.409-1.43
		l-141.525,47.239l0-41.53 c0-5.796-4.946-11.882-10.742-11.882l-7.129,0 c-2.753,0-5.516,1.71-7.506,3.71c-2,2-3.14,5.323-3.14,8.076l0,48.283 
		c0,0.667, 0.097,6.366, 0.193,6.366l-18.538,0 l-24.518-7.129c-3.14-0.667-6.366-0.86-8.839,1.14c-0.29,0.193-1.237-0.097-1.517,0.193
		c-1.903,2-3.806,4.086-3.806,6.936l0,46.949 c0,3.14, 2.183,6.183, 4.656,8.173c 2.473,2, 6.086,4.56, 9.216,3.893l 24.518-3.14l 20.432,0 l 165.946,54.456
		c 3.236,1.14, 11.022-0.29, 13.785-2.28c 2.753-2, 8.646-6.086, 8.646-9.506L 340.876,138.699 z M 376.803,167.69c-1.333-2.57-4.85-4.086-8.646-4.183
		c-0.947,0-2,0.097-2.946,0.377c-4.753,1.043-7.323,4.56-5.603,7.796c 7.506,14.635, 11.312,30.034, 11.312,45.433c0,15.302-3.71,30.604-11.216,45.046
		c-1.613,3.236, 0.86,6.656, 5.603,7.796c 4.753,1.14, 9.883-0.57, 11.592-3.806c 8.173-15.775, 12.162-32.411, 12.162-49.046C 389.062,200.284, 384.879,183.562, 376.803,167.69z
		 M 412.344,134.419c-1.517-2.183-4.85-3.516-8.269-3.516c-1.237,0-2.57,0.193-3.806,0.57c-4.56,1.43-6.559,5.13-4.376,8.173
		c 17.109,24.421, 25.658,50.852, 25.658,77.273c0,26.421-8.549,52.746-25.658,77.273l0,0c-2.087,3.043-0.193,6.753, 4.376,8.173c 4.463,1.43, 9.979,0.193, 12.066-2.946
		c 18.248-26.141, 27.464-54.272, 27.464-82.5C 439.818,188.788, 430.592,160.56, 412.344,134.419zM 112.679,196.671L 131.681,202.66L 131.681,224.425L 112.679,230.414 	z" data-tags="alert" />
<glyph unicode="&#x67;" d="M 306.234,184.083A18.722,18.722 180 1 1 343.678,184.08300000000003A18.722,18.722 180 1 1 306.234,184.08300000000003zM 163.376,184.083A18.722,18.722 180 1 1 200.83,184.08300000000003A18.722,18.722 180 1 1 163.376,184.08300000000003zM 211.852,351.449l 83.35,0 c 4.183,0, 7.506,1.043, 7.506,5.226l-0.667,5.226c0,2.657-1.43,5.516-3.516,6.84
		c-1.14,0.763-2.57,1.71-3.99,1.71l-82.026,0 c-1.517,0-2.85-1.517-3.99-2.28c-2.087-1.333-3.516-4.183-3.516-6.936l-0.667-4.376
		C 204.346,352.782, 207.669,351.449, 211.852,351.449zM 297.105,332.447l-87.156,0 c-18.345,0-34.594-2.376-44.003-7.603l-8.366-93.049c 9.883-6.753, 28.034-13.399, 48.949-13.399l 93.812,0 
		c 21.002,0, 39.347,7.226, 49.142,14.066l-8.366,91.619C 331.699,329.308, 315.45,332.447, 297.105,332.447zM 255.952,479.952C 114.62,479.952,0,365.331,0,224c0-141.428, 114.62-255.952, 255.952-255.952s 255.952,114.524, 255.952,255.952
		C 511.903,365.331, 397.38,479.952, 255.952,479.952z M 308.224,66.323l-5.516,19.012L 204.626,85.335 l-5.516-19.012L 175.829,66.323 l 16.635,47.519l 23.378,0 l-5.419-9.506l 86.683,0 l-5.419,9.506l 23.378,0 l 16.635-47.519L 308.224,66.323 z
		 M 310.794,132.854c-0.193,0-0.29,0-0.473,0l-21.291,0 l-70.714,0 L 196.743,132.854 c-0.097,0-0.097,0-0.193,0c-36.874,0-61.585,19.862-61.585,51.422l0,0.097l 13.119,146.268
		c 0.29,32.507, 26.711,58.832, 61.682,58.832l 87.156,0 c 34.98,0, 61.498-26.711, 61.682-59.122l 13.215-144.848C 372.002,153.953, 347.387,132.854, 310.794,132.854z" data-tags="transport" />
<glyph unicode="&#x69;" d="M 255.951,480C 114.619,480,0,365.381,0,224.049c0-141.43, 114.619-255.951, 255.951-255.951c 141.43,0, 255.951,114.619, 255.951,255.951
	C 512,365.381, 397.381,480, 255.951,480z M 254.887,341.484c 16.128,0, 27.008-12.239, 27.008-27.973c0-16.709-11.943-28.367-27.008-28.367c-14.858,0-26.713,11.559-26.713,28.367
	C 228.175,329.925, 240.020,341.484, 254.887,341.484z M 303.449,104.182l-87.424,0 l0,10.398 c 19.426,0, 19.426,2.914, 19.426,26.713l0,73.728 c0,23.798,0,25.452-19.426,25.452l0,12.918 
	c 19.426,1.26, 40.409,6.41, 62.651,15.734l 5.346-2.914L 284.022,140.997 c0-23.503,0-26.417, 19.426-26.417L 303.449,104.182 z" data-tags="info" />
<glyph unicode="&#x37;" d="M 512.455,195.465l-15.713,0 l0,77.346 c0,10.035-8.135,18.17-18.273,18.17l-12.151,0 l-9.58,31.095l 21.732,0 c 10.035,0, 18.273,8.135, 18.273,18.17
		s-8.135,18.17-18.273,18.17l-32.984,0 L 410.362,472.092c-0.887,2.788-2.788,5.131-5.348,6.463c-2.56,1.343-5.575,1.673-8.363,0.785L 55.501,373.788
		C 52.713,372.901, 50.483,371.012, 49.152,368.441c-1.343-2.56-1.673-5.575-0.785-8.363l 0.558-1.786C 21.618,356.745,0,334.114,0,306.591l0-286.436 
		c0-28.638, 23.29-51.94, 52.053-51.94l 426.53,0 c 10.035,0, 18.273,8.135, 18.273,18.17l0,81.249 l 15.713,0 c 6.019,0, 10.923,4.904, 10.923,10.923l0,105.995 
		C 523.378,190.561, 518.474,195.465, 512.455,195.465z M 52.053,290.981c-8.135,0-14.711,6.246-15.383,14.154c0,0.444-0.114,0.887-0.114,1.343
		c0,8.579, 7.020,15.497, 15.599,15.497l 8.021,0 l 5.905-19.058l 3.675-12.038L 52.053,290.879 z M 292.784,306.591c-0.671-3.459-2.344-6.69-4.904-9.58
		c-2.23-2.458-5.131-4.346-8.465-6.019l-26.305,0 c-2.116,1.343-3.789,2.674-5.131,4.233c-1.445,1.786-2.56,3.675-3.118,5.689
		c-0.444,1.445-0.228,2.901, 0.558,4.46s 2.002,2.56, 3.675,3.118c 1.343,0.444, 2.56,0.444, 3.789,0.114c 1.115-0.33, 2.116-1.001, 2.788-2.116
		c 1.559-2.23, 2.901-3.903, 3.903-5.018s 2.344-2.116, 3.903-2.788c 1.559-0.671, 3.459-1.001, 5.689-1.001l-6.576,21.174c-4.46-0.114-8.249,0.114-11.366,0.558
		c-2.458,0.444-4.574,1.343-6.463,2.56c-0.671,0.444-1.343,0.785-2.002,1.229c-2.458,2.002-4.346,5.018-5.575,9.023c-0.887,2.788-1.115,5.348-0.887,7.908
		c 0.228,2.23, 0.785,4.346, 1.9,6.463c 2.344,4.346, 6.576,7.805, 12.595,10.251l-0.444,1.559l-1.559,5.234c-0.785,2.56-0.228,4.119, 1.673,4.676
		c 2.002,0.558, 3.345-0.33, 4.119-2.788l 2.116-6.804c 3.345,0.671, 6.349,0.887, 9.023,0.558c 1.229-0.114, 2.458-0.444, 3.675-0.887
		c 1.343-0.444, 2.56-1.001, 3.789-1.786c 1.786-1.115, 3.345-2.344, 4.676-3.789c 1.229-1.445, 2.116-2.788, 2.56-4.119c 0.444-1.559, 0.33-3.004-0.444-4.46
		c-0.785-1.445-1.9-2.458-3.459-2.901c-3.004-0.887-5.461,0.114-7.248,3.004c-2.116,3.459-5.348,5.234-9.58,5.348l 2.901-9.478l 2.901-9.478
		c 4.119,0.114, 7.361,0.114, 9.808,0s 4.904-0.785, 7.134-1.9c 2.344-1.115, 4.46-2.674, 6.246-4.676c 0.558-0.671, 1.001-1.445, 1.445-2.116
		c 1.001-1.559, 1.786-3.118, 2.344-5.018C 293.342,313.611, 293.569,310.153, 292.784,306.591z M 331.571,340.361c-0.33,1.115-0.444,2.23-0.887,3.345
		c-1.673,5.234-3.903,10.251-6.69,14.825c-6.349,10.695-15.497,19.615-26.749,25.52c-16.156,8.579-34.657,10.365-52.156,4.904c-16.828-5.234-30.208-16.384-38.559-30.424
		c-3.345-5.689-5.905-11.81-7.578-18.17c-1.445-5.905-2.23-12.038-2.116-18.17c 0.114-6.246, 1.001-12.481, 3.004-18.728c 1.115-3.675, 2.56-7.134, 4.233-10.479
		c 0.33-0.671, 0.558-1.343, 0.887-1.9L 169.404,291.095 c 0.228,1.445, 0.114,3.004-0.228,4.46c0,0.114,0,0.228-0.114,0.33c-0.887,2.788-2.788,5.131-5.348,6.463
		c-2.56,1.343-5.575,1.673-8.363,0.785c-3.231-1.001-5.575-3.231-6.804-6.133c-0.785-1.9-1.115-3.903-0.785-6.019L 92.615,290.981 l-3.231,10.365l-6.463,20.73
		l-5.575,18.17L 72.442,356.187l 7.805,2.344l 290.884,89.941c 5.348-7.805, 14.268-12.811, 24.292-12.811c 1.115,0, 2.23,0.114, 3.231,0.228l 23.848-77.346l 5.689-18.17l 5.689-18.17
		l 9.58-31.095L 325.439,291.095 c 5.131,9.478, 8.021,20.059, 8.249,31.095C 333.801,328.095, 333.13,334.228, 331.571,340.361z M 501.532,89.481l-4.79,0 l-18.273,0 L 460.299,89.481 l-58.516,0 
		c-23.177,0-42.018,18.83-42.018,42.018c0,23.177, 18.83,42.018, 42.018,42.018l 58.516,0 l 18.17,0 l 18.273,0 L 501.532,173.517 L 501.532,89.481 zM 253.554,348.154c-2.344-1.559-4.016-3.231-5.018-4.904c-0.558-0.887-0.785-1.9-0.887-3.004c0-1.001, 0.114-2.116, 0.444-3.345
		c 0.671-2.344, 2.002-4.016, 3.675-4.79c 1.673-0.785, 4.119-1.343, 7.134-1.445l-2.901,9.58L 253.554,348.154zM 277.185,317.514c-2.116,0.887-4.904,1.445-8.363,1.445l 6.133-19.945c 2.901,1.559, 4.904,3.561, 6.019,5.905
		c 1.115,2.344, 1.229,4.79, 0.444,7.248C 280.633,314.726, 279.302,316.615, 277.185,317.514zM 363.554,340.361c 2.56-1.673, 5.905-2.23, 9.023-1.229c 0.887,0.33, 1.786,0.785, 2.56,1.229c 4.119,2.56, 6.133,7.578, 4.676,12.481
		c-0.785,2.458-2.344,4.346-4.46,5.791c-0.33,0.228-0.558,0.558-0.887,0.671c-2.56,1.343-5.575,1.673-8.363,0.785c-1.115-0.33-2.116-0.887-3.004-1.445
		c-3.903-2.674-5.689-7.578-4.233-12.265C 359.652,343.706, 361.438,341.692, 363.554,340.361zM 394.763,131.499A14.268,14.268 180 1 1 423.299,131.49900000000002A14.268,14.268 180 1 1 394.763,131.49900000000002z" horiz-adv-x="523.378" data-tags="about-tooltip" />
<glyph unicode="&#x38;" d="M 777.325,55.754c-21.054-8.688-51.557-17.842-86.481-25.476c-40.277-8.844-84.961-15.096-123.547-14.646l-0.155,0 
	c-28.982-0.45-52.022,1.365-75.202,2.141c-62.231,2.141-119.436,7.013-184.118,7.478c-53.698,0.45-108.916-0.45-162.459-2.591c-36.755-1.52-85.566,3.506-115.464,13.731
	c-14.181,4.887-15.096,5.803-16.012,20.294c-0.76,11.745-0.76,29.293, 1.986,34.63c 2.746,4.887, 6.858,5.648, 9.759,5.492c 20.899-3.972, 54.148-21.054, 106.62-19.984
	c 82.060,1.831, 170.543,13.576, 260.080,1.226c 141.7-19.518, 223.154-10.985, 290.273,19.984c 6.563,0.915, 10.519,12.055, 9.154,17.237c-2.591,10.069-6.253,20.433-10.224,28.377
	c-0.76,4.577, 5.027,4.422, 10.985,4.732c 45.615,1.226, 68.794,2.746, 90.453-12.055c 4.887-3.351, 7.013-5.942, 8.239-10.224c 3.662-11.9, 5.492-22.575, 6.253-32.334
	C 799.139,68.724, 795.632,63.232, 777.325,55.754 M 168.712,353.195c 45.149,0, 81.765-37.531, 81.765-83.596c0-46.22-36.616-83.735-81.765-83.735
	c-45.149,0-81.765,37.531-81.765,83.735C 86.947,315.679, 123.547,353.195, 168.712,353.195 M 860.765,104.114c-1.365,4.112-3.972,9.914-9.604,13.886
	c-30.813,22.73-72.456,17.687-108.296,17.237c-6.097-0.155-12.971-0.915-19.518-1.226l-0.155,0.155c-1.226,0-2.591-0.155-3.817-0.155
	c-5.942,1.226-18.758,4.267-29.587,6.718c-9.914,2.281-15.856-7.478-17.548-16.772c-0.155-0.605-0.155-1.226-0.31-1.676c-1.986-10.224-11.435-17.237-21.814-15.717
	c-10.38,1.52-65.598,11.59-64.217,22.575c 1.676,12.816, 47.445,26.391, 27.912,32.954c-5.803,1.986-11.14,4.267-16.322,6.563c-16.012,7.013-26.236,4.422-35.7-19.068
	c-0.155-0.605-0.45-1.071-0.76-1.676c-4.732-9.309-15.407-13.421-25.166-9.154s-14.491,16.167-9.914,26.236c 7.773,17.392, 12.35,31.123-7.013,42.403
	c-4.267,2.436-8.239,5.337-12.35,7.773c-14.026,8.549-25.010,16.167-42.713-4.422l-8.083-10.069c-0.31-0.45-0.76-0.915-1.071-1.365
	c-6.858-7.773-18.603-8.688-26.546-1.831c-8.239,7.013-9.604,19.518-2.746,28.067c 2.141,2.746, 4.267,5.337, 6.408,8.083c 10.519,12.971, 18.153,28.377-4.422,50.192
	c-15.096,14.801-25.010,21.349-50.036,0l-8.394-7.168c-0.45-0.31-0.915-0.76-1.365-1.071c-8.239-6.253-19.828-4.887-26.546,3.351
	c-6.858,8.394-5.648,21.054, 2.591,28.067c 4.267,3.662, 8.394,7.478, 12.816,10.83c 26.081,20.589, 11.9,37.376, 1.676,48.811c-12.055,13.576-20.589,24.56-47.29,3.972
	l-9.914-8.239c-0.45-0.45-0.915-0.76-1.365-1.071c-8.394-6.097-19.984-4.422-26.391,3.817c-6.718,8.549-5.337,21.054, 3.056,27.912
	C 282.345,397.894, 287.992,403.076, 294.245,407.653c 20.294,14.801, 3.056,47.585-8.549,61.471c-10.83,12.971-17.392,12.055-31.418,5.337c-11.14-5.337-25.010-16.322-32.489-28.982
	c-27.462-40.572-68.034,2.901-107.691,8.549c-23.18,3.351-89.228,21.209-76.272-16.632c 1.226-7.478, 2.436-15.096, 3.506-22.73c 8.549-59.19, 12.35-120.816-6.408-177.245
	c-16.772-50.641-32.334-99.452-29.293-152.685c-0.45-10.985-3.817-16.772-4.577-28.222c-0.45-6.858-0.76-13.576-0.915-19.068c-0.45-14.491, 0.31-18.463, 2.746-29.293
	c 1.071-4.732, 3.056-6.563, 5.942-8.083c 30.813-17.687, 100.523-25.631, 147.658-23.645c 11.435,0.45, 21.504,0.915, 29.137,0.915c 0.155,0, 0.155,0, 0.31,0
	c 37.981,1.365, 92.129,2.281, 144.446,1.831c 42.868-0.31, 84.511-1.52, 115.014-3.972l0,0c 32.178-3.351, 57.36-5.182, 82.525-5.942c 25.010-0.915, 49.881-0.915, 81.144-0.45
	c 42.403-0.45, 91.058,6.253, 134.997,15.856c 49.571,10.83, 93.355,25.476, 115.169,37.221c 6.253,3.196, 7.478,7.773, 8.239,12.35c 1.071,9.759, 1.52,20.139, 0.76,31.418
	C 867.483,77.413, 865.187,90.073, 860.765,104.114" horiz-adv-x="868.848" data-tags="app-tooltip" />
<glyph unicode="&#x20;" horiz-adv-x="256" />
</font>
</defs>
</svg>
