<?xml version="1.0" standalone="no"?>
<!DOCTYPE svg PUBLIC "-//W3C//DTD SVG 1.1//EN" "http://www.w3.org/Graphics/SVG/1.1/DTD/svg11.dtd" >
<svg xmlns="http://www.w3.org/2000/svg">
<metadata>
This is a custom SVG font generated by IcoMoon.
<iconset grid="16"></iconset>
</metadata>
<defs>
<font id="sf72-icons" horiz-adv-x="512" >
<font-face units-per-em="512" ascent="480" descent="-32" />
<missing-glyph horiz-adv-x="512" />
<glyph class="hidden" unicode="&#xf000;" d="M0,480L 512 -32L0 -32 z" horiz-adv-x="0" />
<glyph unicode="&#x48;" d="M 184.96,375.424l0-63.436 l-49.35,0 l0-80.564 l 49.35,0 l0-236.643 l 94.906,0 L 279.866,232.436 l 66.205,0 
	l 7.046,79.552l-73.251,0 l0,45.324 c0,18.735, 3.764,26.17, 21.894,26.17l 51.357,0 L 353.117,466.060 L 287.401,466.060 C 216.797,466.060, 184.96,434.956, 184.96,375.424z" data-tags="facebook" />
<glyph unicode="&#x47;" d="M 500.893,377.414c-18.124-8.052-37.603-13.487-58.048-15.924
	c 20.864,12.509, 36.893,32.332, 44.439,55.93c-19.526-11.584-41.164-20.003-64.18-24.524c-18.444,19.636-44.719,31.907-73.798,31.907
	c-65.239,0-113.21-60.893-98.461-124.113c-84.009,4.212-158.493,44.463-208.349,105.612c-26.479-45.434-13.731-104.879, 31.284-134.959
	c-16.576,0.524-32.163,5.073-45.789,12.637c-1.094-46.831, 32.465-90.618, 81.082-100.381c-14.225-3.881-29.812-4.759-45.649-1.74
	c 12.858-40.163, 50.188-69.388, 94.423-70.202c-42.502-33.309-96.023-48.175-149.655-41.856c 44.73-28.678, 97.868-45.411, 154.95-45.411
	c 187.677,0, 293.708,158.505, 287.325,300.684C 470.208,339.334, 487.354,357.132, 500.893,377.414z" data-tags="twitter" />
<glyph unicode="&#x46;" d="M 436.032,135.011c-11.020-9.745-20.625-16.896-28.905-21.44c-8.244-4.561-14.714-6.86-19.456-6.86
	c-1.85,0-3.508,0.244-4.951,0.692c-1.466,0.442-2.688,1.425-3.677,2.985c-1.012,1.507-1.751,3.654-2.193,6.487
	c-0.46,2.81-0.675,6.563-0.675,11.276c0,6.097, 0.815,14.458, 2.403,25.088c 1.612,10.636, 4.195,24.111, 7.785,40.367
	c 3.613,16.256, 8.279,35.572, 14.010,57.897c 5.737,22.377, 12.724,48.209, 20.963,77.545c 3.823,13.050, 6.551,25.071, 8.058,36.044
	c 1.53,10.927, 2.316,19.439, 2.316,25.513c0,8.215-2.159,16.751-6.423,25.681c-4.282,8.855-10.607,16.972-18.938,24.355
	c-8.343,7.377-18.624,13.51-30.865,18.38c-12.247,4.87-26.351,7.29-42.409,7.29c-6.58,0-12.794-0.983-18.612-2.961
	c-5.801-1.972-10.543-5.021-14.214-9.129l-2.973-54.266c-2.281,2.444-5.277,4.143-8.954,5.108c-3.665,1.012-8.762,1.53-15.337,1.53
	c-15.616,0-31.674-3.875-48.157-11.543c-16.529-7.674-32.593-18.234-48.18-31.68c-15.593-13.469-30.319-29.359-44.16-47.663
	c-13.841-18.327-25.955-38.068-36.358-59.311c-10.385-21.167-18.601-43.398-24.646-66.682c-6.057-23.238-9.053-46.58-9.053-69.993
	c0-21.143, 2.327-39.767, 6.97-55.878c 4.689-16.111, 11.142-29.556, 19.38-40.337c 8.268-10.787, 18.095-18.927, 29.498-24.401
	c 11.386-5.475, 23.82-8.215, 37.277-8.215c 8.25,0, 16.983,1.652, 26.234,5.009c 9.251,3.351, 18.566,9.1, 27.904,17.338
	c 9.315,8.192, 18.426,19.247, 27.386,33.158c 8.931,13.917, 17.146,31.505, 24.623,52.8c-0.902-7.011-1.629-13.545-2.159-19.613
	c-0.529-6.074-0.791-11.7-0.791-16.879c0-14.9, 1.588-27.235, 4.8-37.056c 3.217-9.792, 7.738-17.635, 13.556-23.459
	c 5.824-5.9, 12.905-9.996, 21.306-12.311c 8.425-2.368, 17.751-3.549, 27.98-3.549c 8.425,0, 18.095,2.193, 29.009,6.639
	c 10.956,4.369, 22.476,10.333, 34.543,17.885c 12.090,7.5, 24.425,16.308, 37.044,26.321C 439.599,47.203, 447.046,144.71, 436.032,135.011z
	 M 260.951,148.41c-5.463-7.057-11.276-12.684-17.455-16.849c-6.191-4.218-12.399-6.289-18.711-6.289c-3.095,0-6.092,0.349-8.943,1.111
	c-2.886,0.739-5.376,2.415-7.511,5.056c-2.147,2.612-3.828,6.417-5.062,11.345c-1.268,4.963-1.885,11.724-1.885,20.236
	c0,17.856, 2.508,35.7, 7.511,53.527c 5.009,17.815, 11.607,34.717, 19.852,50.601c 8.25,15.889, 17.641,30.15, 28.247,42.804
	c 10.572,12.678, 21.516,22.697, 32.809,30.051L 260.951,148.41z" data-tags="airbnb" />
<glyph unicode="&#x61;" d="M 682.664,430.551l0-382.139 c0,0-108.707,30.601-189.457,15.017c-72.352-13.888-125.619-53.174-134.588-60.066l0-1.138 
			c0,0-0.284,0.19-0.759,0.569c-0.474-0.379-0.759-0.569-0.759-0.569l0,1.138 c-8.968,6.892-62.236,46.187-134.588,60.066c-80.75,15.586-200.227-15.017-200.227-15.017
			L 22.288,431.688 C 15.396,430.551, 7.935,429.422,0,428.284l0-411.698 c0,0, 130.056,33.531, 218.552,16.438c 86.988-16.713, 139.593-67.062, 139.593-67.062s 52.605,50.339, 139.593,67.062
			c 88.496,16.997, 213.262-16.438, 213.262-16.438L 711,426.492 C 711,426.492, 700.136,428.379, 682.664,430.551z M 216.002,102.068c 70.74-13.604, 125.429-54.595, 125.429-54.595L 341.432,423.469 
			c0,0-54.965,40.992-125.894,54.595C 143.651,491.943, 49.959,464.649, 49.959,464.649l0-375.996 C 49.959,88.654, 144.030,115.852, 216.002,102.068z M 654.993,87.326L 654.993,463.323 
			c0,0-85.946,27.198-157.728,13.414C 426.334,463.133, 369.568,422.151, 369.568,422.151l0-375.996 c0,0, 56.482,40.992, 127.221,54.595C 568.762,114.534, 654.993,87.326, 654.993,87.326z" horiz-adv-x="711" data-tags="quick-guide" />
<glyph unicode="&#x62;" d="M 175.779,413.415l-76.767,0 L 99.012,459.47 c0,11.33-9.199,20.53-20.447,20.53c-11.33,0-20.53-9.199-20.53-20.53l0-46.303 C 23.723,410.541,-3.372,381.886,-3.372,346.83
	l0-312.32 c0-36.699, 29.803-66.585, 66.585-66.585l 112.648,0 c 36.781,0, 66.585,29.803, 66.585,66.585L 242.446,346.83 C 242.363,383.612, 212.56,413.415, 175.779,413.415z M 206.565,244.447
	c-1.726-5.335-4.6-10.265-10.182-10.265L 42.692,234.182 c-5.665,0-8.456,4.847-10.265,10.265c-5.087,15.352-5.087,15.352-5.087,112.648c0,5.665, 4.6,10.265, 10.265,10.265
	l 163.799,0 c 5.665,0, 10.265-4.6, 10.265-10.265C 211.66,259.799, 211.66,259.799, 206.565,244.447z" horiz-adv-x="239" data-tags="sms" />
<glyph unicode="&#x78;" d="M 506.883,55.415L 331.981,230.317L 494.251,392.679c 20.191,20.191, 20.191,53.014,0,73.205c-20.191,20.191-53.014,20.191-73.205,0L 258.672,303.522
	L 101.070,461.239c-20.191,20.191-53.014,20.191-73.205,0c-20.191-20.191-20.191-53.014,0-73.205l 157.706-157.706L 15.117,60.082c-20.191-20.191-20.191-53.014,0-73.205
	C 25.265-23.282, 38.524-28.356, 51.771-28.356c 13.259,0, 26.507,5.074, 36.654,15.117l 170.339,170.339l 174.902-174.902c 10.147-10.147, 23.407-15.117, 36.654-15.117
	c 13.259,0, 26.507,5.074, 36.654,15.117C 527.074,2.401, 527.074,35.224, 506.883,55.415z" horiz-adv-x="522" data-tags="close" />
<glyph unicode="&#x64;" d="M 256-32C 114.843-32,0,82.843,0,224C0,365.157, 114.843,480, 256,480C 397.157,480, 512,365.157, 512,224
			C 512,82.843, 397.157-32, 256-32z M 256,459.105C 126.338,459.105, 20.895,353.662, 20.895,224C 20.895,94.338, 126.338-11.105, 256-11.105
			c 129.662,0, 235.105,105.443, 235.105,235.105C 491.105,353.662, 385.662,459.105, 256,459.105zM 366.949,219.73c-1.903-54.243-148.664-172.032-273.002-43.51c0,0, 53.76-49.49, 113.992,5.506c0,0-27.551,3.227-11.206,25.175
		c0,0-28.971-1.333-36.951,20.142c0,0, 11.206,10.539, 20.519,8.26c0,0-30.401,3.7-32.768,31.628c0,0, 8.926,4.656, 16.336,2.28c0,0-28.025,13.776-23.842,37.618
		c0,0, 99.077-37.994, 100.883-54.997c0,0, 29.445,69.632, 50.437,74.665l-1.903-5.506c0,0, 17.765,9.593, 21.939,8.743c0,0-4.753-6.743-7.883-8.646
		c 4.753,1.806, 20.712,7.216, 21.465,1.806c0,0,0-7.313-26.122-12.346c0,0, 58.416-2.28, 66.782-59.083c0,0, 28.971-7.313, 36.478,0.947c0,0-8.453-17.862-32.768-16.056
		c0,0, 18.712-7.786, 32.768-4.183C 402.48,232.076, 389.845,214.687, 366.949,219.73" data-tags="twitter-big" />
<glyph unicode="&#x65;" d="M 256,480C 114.669,480, 0.048,365.38, 0.048,224.048C 0.048,82.717, 114.669-32, 256-32c 141.331,0, 255.952,114.62, 255.952,255.952
	C 511.952,365.38, 397.331,480, 256,480z M 432.592,237.544c0,0-14.066-19.292-39.54-13.689c-2.087-60.261-165.183-191.324-303.471-48.379c0,0, 59.778-55.026, 126.792,6.086
	c0,0-30.604,3.613-12.452,28.034c0,0-32.217-1.517-41.057,22.431c0,0, 12.452,11.689, 22.808,9.119c0,0-33.744,4.086-36.4,35.164c0,0, 9.883,5.13, 18.152,2.57
	c0,0-31.174,15.302-26.421,41.82c0,0, 110.157-42.293, 112.147-61.112c0,0, 32.787,77.37, 56.078,82.973l-2.087-6.086c0,0, 19.765,10.742, 24.421,9.699
	c0,0-5.323-7.506-8.839-9.602c 5.323,2, 23.001,8.076, 23.851,2c0,0,0-8.173-29.087-13.785c0,0, 64.918-2.57, 74.327-65.671c0,0, 32.217-8.173, 40.583,1.043
	c0,0-9.409-19.862-36.4-17.872C 396.191,242.2, 417,233.554, 432.592,237.544z" data-tags="twitter-big-on" />
<glyph unicode="&#x68;" d="M 255.952,479.952C 114.62,479.952,0,365.331,0,224c0-141.428, 114.62-255.952, 255.952-255.952c 141.428,0, 255.952,114.62, 255.952,255.952
		C 512,365.331, 397.38,479.952, 255.952,479.952z M 255.952,89.325c-19.582,35.55-97.802,160.053-97.802,195.603c0,71.091, 58.638,88.962, 97.802,88.962
		c 39.154,0, 97.802-17.872, 97.802-88.962C 353.753,249.281, 275.533,124.778, 255.952,89.325zM 248.252,307.92L 209.572,246.045L 248.252,246.045L 217.272,184.083L 294.632,261.444L 255.952,261.444L 302.428,307.92 	z" data-tags="map-on" />
<glyph unicode="&#x6a;" d="M 516.53,24.793l-44.707,0 l-27.145,82.087l-29.425,88.95l-27.82,83.925l-29.425,88.95l-34.217,103.301C 321.325,479.287, 314.255,484.312, 306.276,484.312l-71.829,0 
	C 226.677,484.312, 219.606,479.287, 217.326,471.774l-49.942-150.521l-34.658-104.906l-32.844-98.974l-28.286-85.065l-2.512-7.536L 18.237,24.793 c-10.026,0-18.237-8.211-18.237-18.237l0-24.633 
	c0-10.026, 8.211-18.237, 18.237-18.237l 498.294,0 c 10.026,0, 18.237,8.211, 18.237,18.237l0,24.633 C 535,16.582, 526.788,24.793, 516.53,24.793z M 247.659,447.374l 45.848,0 l 0.233-0.675
	c-0.233-13.235-10.491-23.726-23.028-23.726c-12.538,0-22.795,10.724-23.028,23.936L 247.659,447.374z M 322.465,359.796l 29.425-88.95l-177.202-44.010l 34.658,104.906L 322.465,359.796z
	 M 379.71,186.945l 29.425-88.95L 149.381,33.47L 110.373,33.47 l 31.239,94.416L 379.71,186.945z" horiz-adv-x="535" data-tags="disaster-other" />
<glyph unicode="&#x6b;" d="M 749.955,199.725c-28.185,26.742-62.777,45.903-99.655,54.926c-0.872,0.571-2.045,0.872-3.188,0.872l-3.49,0 
		c-1.174,0-2.045-0.301-2.917-0.872c-11.34-5.806-26.44-9.294-42.142-9.294c-15.701,0-30.801,3.49-42.142,9.294c-0.872,0.571-2.045,0.872-3.188,0.872l-2.316,0 
		c-0.571,0-1.174,0-1.444-0.301c-16.574-3.79-32.546-9.867-47.646-17.446c-7.851-26.742-22.951-52.008-43.014-71.771l 286.783,0 c 3.49,0, 6.407,2.917, 6.407,6.407L 752,195.093 
		C 752,196.838, 751.429,198.583, 749.955,199.725zM 526.22,355.479c0-6.678, 5.233-12.213, 11.912-12.213c0,0, 0.301,0, 0.301,0c 2.316-32.546, 28.485-64.792, 60.43-64.792
		c 31.975,0, 57.814,32.546, 60.43,64.792c0,0,0,0, 0.301,0c 6.678,0, 11.912,5.535, 11.912,12.213c0,4.933-2.917,9.294-6.978,11.34c 2.316,7.249, 3.79,15.1, 3.79,23.252
		c0,39.526-30.801,71.771-69.153,71.771s-69.153-32.246-69.153-71.771c0-8.122, 1.444-15.972, 3.79-23.252C 529.138,364.775, 526.22,360.413, 526.22,355.479zM 245.813,240.123c-13.085,6.106-27.012,11.039-40.969,14.529C 203.973,254.952, 202.829,255.523, 201.957,255.523L 198.468,255.523 c-1.174,0-2.045-0.301-2.917-0.872
		c-11.34-5.806-26.44-9.294-42.142-9.294c-15.701,0-31.103,3.49-42.142,9.294C 110.123,255.223, 109.25,255.523, 108.108,255.523L 105.762,255.523 c-0.571,0-0.872,0-1.444-0.301
		C 66.236,246.53, 30.801,227.038, 2.045,199.725C 0.571,198.583,0,196.838,0,195.093l0-22.651 c0-3.49, 2.917-6.407, 6.407-6.407l 283.023,0 C 268.765,186.37, 253.364,212.509, 245.813,240.123zM 80.765,355.479c0-6.678, 5.233-12.213, 11.912-12.213c0,0,0,0, 0.301,0C 95.294,310.72, 121.463,278.204, 153.408,278.204
		c 31.674,0, 57.814,32.546, 60.43,64.792c0,0,0,0,0,0c 6.678,0, 11.912,5.535, 11.912,12.213c0,4.933-2.917,9.294-6.978,11.34c 2.316,7.249, 3.79,15.1, 3.79,23.252
		c0,39.526-30.801,71.771-69.153,71.771C 115.056,461.842, 84.255,429.567, 84.255,389.771c0-8.122, 1.444-15.972, 3.79-23.252C 83.682,364.775, 80.765,360.413, 80.765,355.479zM 250.477,291.86c0-11.61, 8.994-20.936, 20.335-20.936c0,0, 0.301,0, 0.301,0c 1.444-20.936, 8.723-41.54, 20.063-59.558
		c 4.362-6.978, 9.596-13.656, 15.401-19.462c 18.017-19.191, 41.842-31.975, 67.71-31.975c 27.613,0, 52.881,14.529, 71.471,35.735c 2.316,2.617, 4.362,5.233, 6.407,8.122
		c 14.228,19.462, 23.523,43.285, 25.267,66.837c0,0, 0.301,0, 0.301,0c 11.039,0, 20.335,9.294, 20.335,20.936c0,8.422-4.933,15.972-11.912,19.191
		c 4.061,12.483, 6.407,25.869, 6.407,39.526c0,67.71-52.881,122.637-117.973,122.637c-65.094,0-117.973-54.926-117.973-122.637c0-13.958, 2.316-27.313, 6.407-39.526
		C 255.409,307.833, 250.477,300.282, 250.477,291.86zM 462.3,125.337c-1.444,0.872-3.49,1.444-5.233,1.444l-5.806,0 c-1.745,0-3.49-0.301-5.233-1.174
		c-19.191-10.167-45.33-15.701-72.072-15.701c-26.44,0-52.881,5.806-71.771,15.701c-1.745,0.872-3.49,1.174-5.233,1.174l-4.061,0 c-0.872,0-1.745,0-2.617-0.301
		c-65.094-15.1-125.223-47.948-174.644-94.721c-2.045-2.045-3.49-4.933-3.49-7.851l0-38.653 c0-6.106, 4.933-10.739, 11.039-10.739l 501.524,0 
		c 6.106,0, 11.039,4.933, 11.039,10.739l0,38.653 c0,2.917-1.174,5.806-3.188,7.851C 584.635,77.691, 525.648,109.937, 462.3,125.337z" horiz-adv-x="752" data-tags="disaster-connection" />
<glyph unicode="&#x6c;" d="M 318.465,309.848c-19.284,16.791-42.082,29.852-68.014,38.141C 246.104,349.246, 241.757,350.483, 237.602,351.526c-1.044,0.213-2.067,0.405-3.111,0.831
		c-4.347,1.044-8.502,1.875-12.849,2.493c-0.405,0-0.618,0-1.044,0.213c-3.942,0.618-8.075,1.044-12.018,1.449c-1.044,0-2.067,0.213-3.111,0.213
		C 201.123,356.704, 196.968,356.917, 192.813,356.917c-0.405,0-0.831,0-1.236,0c-4.347,0-8.502-0.213-12.657-0.618c-0.831,0-1.662,0-2.493-0.213
		c-1.044,0-2.28-0.213-3.516-0.405C 169.609,355.469, 166.285,355.255, 163.175,354.638C 162.344,354.638, 161.513,354.424, 160.468,354.211C 156.335,353.593, 151.966,352.762, 147.833,351.718
		C 147.619,351.718, 147.407,351.526, 147.215,351.526C 142.847,350.483, 138.5,349.246, 134.345,347.798C 133.514,347.584, 132.704,347.371, 131.66,346.967c-4.155-1.449-8.289-2.898-12.23-4.56
		C 118.812,342.194, 118.173,341.981, 117.767,341.767C 113.826,340.105, 110.096,338.465, 106.56,336.589C 105.941,336.377, 105.324,335.972, 104.706,335.758c-3.942-2.067-7.671-4.155-11.399-6.435
		C 92.476,328.919, 91.857,328.514, 91.026,327.875C 87.298,325.595, 83.547,323.124, 79.819,320.417c-0.213,0-0.213-0.213-0.405-0.213C 75.877,317.732, 72.574,315.026, 69.25,312.129
		C 68.419,311.702, 67.801,311.084, 67.183,310.467C 63.859,307.782, 60.748,304.671, 57.424,301.751C 57.019,301.134, 56.401,300.516, 55.784,299.897C 52.864,297, 49.967,293.889, 47.282,290.778
		C 46.856,290.352, 46.643,290.139, 46.451,289.734C 43.532,286.41, 40.634,282.894, 37.949,279.165C 37.523,278.547, 36.905,277.716, 36.287,276.885C 33.794,273.348, 31.11,269.62, 28.829,265.678
		c-0.213-0.405-0.618-1.044-0.831-1.449c-2.067-3.516-4.155-7.266-6.222-10.995c-0.405-0.618-0.831-1.449-1.044-2.067c-2.067-4.155-3.942-8.289-5.796-12.444
		c-0.405-0.831-0.618-1.875-1.044-2.685C 12.018,231.479, 10.377,227.111, 8.906,222.551c-31.941-101.382, 24.248-209.412, 125.438-241.33c 4.347-1.449, 8.715-2.493, 12.849-3.516
		c 1.044-0.213, 2.067-0.405, 3.111-0.831c 4.347-1.044, 8.502-1.875, 12.849-2.493c 0.213,0, 0.618,0, 0.831-0.213c 4.155-0.618, 8.075-1.044, 12.23-1.449
		c 1.044,0, 2.067-0.213, 3.111-0.213c 4.347-0.213, 8.502-0.405, 12.657-0.405c 0.405,0, 0.831,0, 1.236,0c 4.155,0, 8.502,0.213, 12.657,0.405
		c 0.831,0, 1.662,0.213, 2.493,0.213c 4.347,0.405, 8.715,0.831, 13.061,1.662c 0.831,0.213, 1.662,0.213, 2.493,0.405c 4.155,0.618, 8.502,1.449, 12.657,2.493
		c 0.213,0, 0.405,0.213, 0.618,0.213c 4.347,1.044, 8.715,2.28, 12.849,3.729c 0.831,0.213, 1.662,0.618, 2.685,0.831c 4.155,1.449, 8.289,2.898, 12.23,4.56
		c 0.618,0.213, 1.236,0.405, 1.875,0.831c 3.729,1.662, 7.458,3.324, 10.995,5.178c 0.618,0.213, 1.236,0.618, 1.875,0.831c 3.942,2.067, 7.671,4.155, 11.399,6.435
		c 0.831,0.405, 1.449,1.044, 2.28,1.449c 3.729,2.28, 7.458,4.773, 11.187,7.458c 0.213,0.213, 0.213,0.213, 0.405,0.405c 3.516,2.493, 6.84,5.178, 10.164,8.075
		c 0.618,0.618, 1.449,1.044, 2.067,1.662c 3.324,2.898, 6.435,5.796, 9.737,8.906c 0.618,0.618, 1.044,1.236, 1.662,1.662c 2.898,2.898, 5.796,6.009, 8.502,9.12
		c 0.213,0.405, 0.618,0.618, 0.831,1.044c 2.898,3.324, 5.604,6.84, 8.289,10.568c 0.618,0.831, 1.236,1.662, 1.662,2.28c 2.493,3.516, 5.178,7.266, 7.458,11.187
		c 0.213,0.405, 0.618,1.044, 0.831,1.449c 2.28,3.516, 4.155,7.266, 6.222,10.995c 0.405,0.831, 0.831,1.449, 1.044,2.067c 2.067,3.942, 3.942,8.075, 5.604,12.444
		c 0.405,0.831, 0.831,1.875, 1.044,2.685c 1.662,4.347, 3.516,8.906, 4.773,13.467C 399.732,181.918, 374.653,261.118, 318.465,309.848z M 128.954,208.658
		c-20.519,0-37.118,16.577-37.118,37.118s 16.577,37.31, 37.118,37.31c 20.519,0, 37.118-16.791, 37.118-37.31S 149.495,208.658, 128.954,208.658zM 427.73,455.189c-1.044-1.236-1.236-3.324-0.405-4.773l 23.631-39.185l-27.998-35.456c-1.044-1.236-1.236-3.324-0.213-4.773
		c 0.831-1.449, 2.685-2.28, 4.347-1.875l 44.171,10.164l 25.079-38.141c 1.044-1.449, 2.685-2.067, 4.347-1.662c 1.662,0.405, 2.898,1.875, 3.111,3.729l 3.729,45.194
		l 43.532,11.826c 1.662,0.405, 2.898,1.875, 3.111,3.729s-0.831,3.324-2.493,4.155L 509.637,426.167l 1.875,45.62c0,0.831-0.213,1.662-0.618,2.28
		c-0.405,0.831-1.236,1.236-2.067,1.662c-1.662,0.618-3.516,0.213-4.56-1.236L 474.799,440.251l-42.509,16.173C 430.629,457.063, 428.775,456.637, 427.73,455.189zM 358.693,458.917C 321.362,480.907, 290.275,459.961, 278.236,440.060l-12.018-20.732c-1.449-2.493-2.067-5.178-2.067-7.884
		c-37.736,10.995-70.294,10.782-73.81-0.618c-0.405-1.236-0.405-2.493,0-3.729L 189.084,407.502L 177.898,372.046c 4.773,0.405, 9.546,0.618, 14.511,0.618l0,0
		c 21.159,0, 42.296-3.324, 62.624-9.737c 25.718-8.075, 48.73-20.946, 68.419-36.905l 11.187,35.456L 333.806,361.669c 1.044,1.044, 1.662,2.067, 2.067,3.111
		c 3.111,9.737-15.554,24.674-43.958,36.905c 0.405,0.618, 1.044,1.236, 1.449,1.875l 12.018,20.519c 2.28,3.729, 14.511,21.35, 37.736,7.884
		C 343.97,431.345, 393.937,401.685, 425.045,399c 3.324,4.155, 11.187,12.849, 11.187,12.849L 426.686,428.234C 401.607,436.948, 391.038,440.060, 358.693,458.917z" horiz-adv-x="554" data-tags="disaster-terrorist" />
<glyph unicode="&#x6d;" d="M 147.5,375.158c-18.058,0-35.525-3.308-51.456-9.118C 113.708,390.695, 135.645,417.083, 162.447,445.44l0,0c 3.486,3.682, 5.632,8.546, 5.632,13.982
	C 167.882,470.882, 158.763,480, 147.5,480C 141.671,480, 136.236,477.479, 132.554,473.403L 132.554,473.6 C 61.681,398.060, 21.095,335.163, 5.952,276.519C -0.251,260.214,-3.559,242.55,-3.559,224.098
	c0-83.298, 67.761-151.060, 151.060-151.060c 18.058,0, 35.525,3.308, 51.456,9.118c-17.664-24.655-39.798-50.865-66.402-79.596l0,0 c-3.486-3.682-5.632-8.546-5.632-13.982
	c0-11.264, 9.118-20.578, 20.578-20.578c 5.829,0, 11.264,2.521, 14.946,6.4l0,0c 70.873,75.52, 111.439,138.437, 126.602,196.884c 6.223,16.305, 9.511,34.166, 9.511,52.618
	C 298.56,307.397, 230.799,375.158, 147.5,375.158" horiz-adv-x="295" data-tags="disaster-hurricane" />
<glyph unicode="&#x6e;" d="M 488.458,205.571c-8.715,0-16.756-4.694-20.8-12.526l-33.744-63.492l-41.576,121.824c-3.138,9.156-11.62,15.431-21.451,15.873
	c-10.063,0.233-18.546-5.368-22.357-14.316l-28.609-67.745L 274.953,454.82C 272.954,466.231, 262.217,474.713, 251.271,474.272c-11.62-0.233-21.241-7.832-22.799-19.452L 188.895,141.637
	L 156.475,309.732c-2.022,10.063-10.063,17.662-20.126,18.778C 126.751,329.858, 116.688,324.722, 112.435,315.542l-52.755-109.995c0,0-42.483,0-46.712,0C 3.812,205.571,0,202.433,0,193.719
	c0-2.672,0-18.104,0-22.357c0-6.484, 2.672-12.526, 12.526-12.526c 3.579,0, 61.912,0, 61.912,0c 8.947,0, 17.221,5.136, 21.241,13.2l 28.399,59.239l 45.597-238.303
	c 2.231-11.178, 11.852-19.010, 23.031-19.010l 0.674,0 c 11.411,0.233, 21.009,8.947, 22.589,20.335l 39.113,307.814l 32.862-202.537c 1.789-10.273, 10.273-18.104, 20.567-19.22
	c 10.273-0.883, 20.126,4.694, 24.146,14.316l 35.325,83.617l 39.346-114.898c 3.138-8.947, 11.178-14.967, 20.335-15.873c 9.389-0.441, 18.104,4.020, 22.589,12.526l 52.522,99.026
	c0,0, 63.492,0, 65.955,0c 7.832,0, 12.294,3.346, 12.294,12.526c0,2.672,0,20.126,0,21.451c0,9.389-5.368,12.735-13.409,12.735C 564.453,205.571, 488.458,205.571, 488.458,205.571
	z" horiz-adv-x="581" data-tags="disaster-earthquake" />
<glyph unicode="&#x6f;" d="M 255.893,480C 114.603,480,0,365.397,0,223.893c0-141.291, 114.603-256.107, 255.893-256.107c 141.291,0, 256.107,114.603, 256.107,256.107
	C 512,365.397, 397.397,480, 255.893,480 M 145.024,31.509l-110.891,192.384l 221.973,0 L 145.024,31.509z M 366.976,31.509l-110.891,192.384l-111.083,192.384l 221.973,0 l-110.891-192.384L 477.867,223.893 
	L 366.976,31.509z" data-tags="disaster-radiation" />
<glyph unicode="&#x70;" d="M 596.015,38.367c-376.97,20.211-295.666,384.108-152.272,347.396c-15.017-8.877-24.637-40.166-15.529-61.349c 10.105-22.667, 28.576-38.196, 61.349-30.546
	c 45.078,10.335, 46.818,74.166, 30.802,107.424C 503.608,435.523, 459.503,477.914, 382.394,477.914C 195.891,477.914, 66.517,341.427, 29.575,210.824C-2.712,97.234,0,21.84,0-9.934
	c0-11.334, 7.88-19.699, 21.439-19.699c 11.334,0, 579.002,0, 579.002,0s 13.559,0.742, 13.559,16.757c0,9.364,0,24.637,0,30.060C 614,37.113, 596.015,38.367, 596.015,38.367z" horiz-adv-x="614" data-tags="disaster-flood" />
<glyph unicode="&#x71;" d="M 213,81.984L 107.976,81.984 l0,37.291 L 213,119.296 L 213,81.984 z M 316.765,150.763L 107.976,150.763 l0,37.291 l 208.811,0 L 316.765,150.763 z M 316.765,219.52L 107.976,219.52 l0,37.291 l 208.811,0 L 316.765,219.52 z
	 M 264.883,430.4L 264.883,323.712 l 106.688,0 l0-306.112 L 54.216,17.6 L 54.216,430.4 L 264.883,430.4  M 295.943,480L 4.616,480 l0-512 l 416.768,0 L 421.384,354.752 L 295.943,480z" horiz-adv-x="426" data-tags="pdf" />
<glyph unicode="&#x72;" d="M 174.499,480C 104.007,480,-1.512,447.907,-1.512,320.023c0-64.163, 140.777-288.093, 176.012-352.023c 35.258,64.163, 176.012,288.093, 176.012,352.023
		C 350.512,447.907, 244.784,480, 174.499,480" horiz-adv-x="349" data-tags="map-marker" />
<glyph unicode="&#x73;" d="M 48.816-32L-6.935,26.795L 179.718,224L-6.935,421.205L 48.532,480L 290.935,224 z" horiz-adv-x="284" data-tags="arrow" />
<glyph unicode="&#x74;" d="M 629.513,438.67L 138.78,438.67 C 93.449,438.67, 56.889,402.1, 56.889,356.779l0-265.899 c0-45.075, 36.58-81.892, 81.892-81.892l 490.752,0 
	c 45.075,0, 81.892,36.58, 81.892,81.892L 711.396,356.779 C 711.159,402.1, 674.588,438.67, 629.513,438.67z M 97.707,331.321L 240.924,223.972l-143.218-107.349L 97.707,331.321 z M 670.35,91.136
	c0-22.67-18.404-40.818-40.818-40.818L 138.78,50.309 c-22.67,0-40.818,18.404-40.818,40.818l 160.199,120.092l 89.42-67.015c 10.866-8.021, 23.817-12.26, 36.807-12.26
	s 25.941,4.001, 36.807,12.26l 89.42,67.015L 670.35,91.136L 670.35,91.136z M 670.35,116.594L 527.104,223.972L 670.35,331.321L 670.35,116.594 z M 408.661,160.484c-7.083-5.433-15.588-8.258-24.548-8.258
	c-8.96,0-17.465,2.844-24.548,8.258L 274.916,223.972L 257.906,236.686L 97.707,356.779l0,0 c0,22.67, 18.404,40.818, 40.818,40.818l 490.752,0 c 22.67,0, 40.818-18.404, 40.818-40.818
	L 408.661,160.484z" horiz-adv-x="768" data-tags="mail" />
<glyph unicode="&#x75;" d="M 378.74,220.292A22.153,22.153 900 1 1 423.054,220.29199999999997A22.153,22.153 900 1 1 378.74,220.29199999999997zM 445.029,303.566l-33.42,0 c0,0.742, 0.186,1.669, 0.186,2.396L 411.781,392.21 c0,24.549-19.951,44.5-44.5,44.5L 166.919,436.71 
			C 142.185,436.71, 122.419,416.759, 122.419,392.21l0-86.249 c0-0.742,0-1.669, 0.186-2.396L 89,303.566 C 64.45,303.566, 44.5,283.615, 44.5,259.066l0-138.491 c0-24.549, 19.951-44.5, 44.5-44.5l 33.42,0 
			l0-20.492 c0-24.549, 19.951-44.5, 44.5-44.5l 200.361,0 c 24.549,0, 44.5,19.951, 44.5,44.5l0,20.492 l 33.42,0 c 24.549,0, 44.5,19.951, 44.5,44.5l0,138.491 
			C 489.53,283.615, 469.578,303.566, 445.029,303.566z M 166.919,392.21l 200.361,0 l0-86.249 L 166.919,305.962 L 166.919,392.21 z M 367.28,120.568l0-44.5 l0-20.492 L 166.919,55.567 l0,20.492 l0,44.5 l0,21.234 l 200.361,0 L 367.28,120.568 z
			 M 445.029,120.568l-33.42,0 l0,60.194 l-44.5,0 L 166.919,180.776 L 122.419,180.776 l0-60.194 L 89,120.568 l0,138.491 l 356.030,0 L 445.029,120.568 z" horiz-adv-x="534" data-tags="print" />
<glyph unicode="&#x76;" d="M 256,480C 114.688,480,0,365.312,0,224C0,82.688, 114.688-32, 256-32C 397.312-32, 512,82.688, 512,224C 512,365.312, 397.312,480, 256,480 M 322.56,336.64
	l-31.13,0 c-12.288,0-9.83-11.674-9.83-21.299L 281.6,275.2 l 44.851,0 l-6.144-61.44l-38.707,0 l0-163.84 l-81.92,0 l0,163.84 l-20.48,0 l0,61.44 l 20.48,0 L 199.68,315.341 C 199.68,354.662, 218.931,377.6, 274.842,377.6l 47.718,0 L 322.56,336.64 z" data-tags="share-fb" />
<glyph unicode="&#x77;" d="M 256,480C 114.688,480,0,365.312,0,224C0,82.688, 114.688-32, 256-32S 512,82.688, 512,224C 512,365.312, 397.312,480, 256,480 M 407.757,223.386
	c-2.458-66.97-183.501-212.582-337.101-53.658c0,0, 66.355-61.030, 140.902,6.758c0,0-33.997,3.891-13.926,31.13c0,0-35.84-1.638-45.67,24.986
	c0,0, 13.926,12.902, 25.395,10.24c0,0-37.478,4.506-40.346,39.117c0,0, 11.059,5.734, 20.275,2.867c0,0-34.611,16.998-29.491,46.49c0,0, 122.266-46.899, 124.723-67.789
	c0,0, 36.454,86.016, 62.259,92.16l-2.253-6.758c0,0, 21.914,11.878, 27.034,10.65c0,0-5.939-8.397-9.83-10.65c 5.939,2.253, 25.6,9.011, 26.624,2.253
	c0,0,0-9.011-32.358-15.36c0,0, 72.294-2.867, 82.534-72.909c0,0, 35.84-9.011, 45.056,1.229c0,0-10.445-22.118-40.346-19.866c0,0, 23.142-9.626, 40.346-5.12
	C 451.584,238.541, 436.019,217.037, 407.757,223.386" data-tags="share-twitter" />
<glyph unicode="&#x79;" d="M 510.883,42.247l-189.097,0 c 33.903,107.042, 226.543,133.091, 226.543,287.554
	C 548,402.21, 504.818,477.14, 394.231,477.14C 347.14,477.14, 307.173,463.586, 274,443.237C 240.828,463.586, 200.861,474.291, 154.134,474.291c-110.587,0-154.134-71.35-154.134-144.124
	c0-154.5, 192.64-180.877, 226.543-287.919l-189.097,0 c-20.677,0-37.118-15.71-37.118-35.693c0-20.349, 16.404-35.693, 37.118-35.693l 235.129,0 l 3.58,0 l 235.129,0 c 20.677,0, 37.118,15.71, 37.118,35.693
	C 548,26.537, 531.597,42.247, 510.883,42.247z M 78.473,321.581c0,40.662, 22.468,79.204, 78.145,79.204c 28.898,0, 49.247-7.124, 66.016-16.404
	c 22.468-12.129, 31.054-24.258, 47.092-24.258c 1.425,0, 2.484,0.73, 3.909,0.73c 1.425,0, 2.484-0.73, 3.909-0.73c 16.038,0, 24.623,12.129, 47.092,24.258
	c 16.769,9.279, 37.447,16.404, 66.016,16.404c 55.64,0, 78.145-38.543, 78.145-79.204c0-75.99-90.274-113.107-158.409-174.447c-13.554-12.129-26.048-25.318-37.118-39.602
	c-11.069,14.284-23.564,27.473-37.118,39.602C 168.747,208.474, 78.473,245.592, 78.473,321.581z" horiz-adv-x="548" data-tags="sf72" />
<glyph unicode="&#x7a;" d="M 611.544,148.324l-89.44,123.338c-2.456,3.428-6.626,5.654-10.822,5.654s-8.366-1.97-10.822-5.654l-89.44-123.338
		c-2.942-4.17-3.428-9.338-1.228-13.994c 2.201-4.426, 6.882-7.368, 12.050-7.368l 49.632,0 c-10.822-18.19-24.56-34.895-41.266-49.146c-39.066-32.926-88.441-48.659-139.071-44.233
		c-49.376,4.17-94.581,27.016-127.277,64.368c-11.308,13.022-31.212,14.25-44.233,2.942c-13.022-11.308-14.25-31.212-2.942-43.977c 43.236-49.376, 103.434-79.615, 168.799-85.269
		c 7.368-0.742, 14.736-0.972, 21.874-0.972c 59.711,0, 116.711,20.876, 162.889,59.711c 31.442,26.53, 55.516,59.711, 70.764,96.807l 59.455,0 c 5.168,0, 9.594,2.942, 12.050,7.368
		C 614.972,139.012, 614.486,144.41, 611.544,148.324zM 113.769,176.338l 89.44,123.338c 2.942,4.17, 3.428,9.338, 1.228,13.994c-2.201,4.426-6.882,7.368-12.050,7.368L 142.269,321.062 
		c 36.354,62.168, 105.659,99.519, 180.592,93.353c 49.888-4.17, 95.324-27.272, 128.019-65.11c 11.308-13.022, 30.956-14.506, 43.977-3.198c 13.022,11.308, 14.506,30.956, 3.198,43.977
		c-43.492,50.117-103.689,80.843-169.771,86.498C 216.461,485.922, 114.256,421.81, 72.734,320.807L 13.508,320.807 c-5.168,0-9.594-2.942-12.050-7.368c-2.201-4.426-1.97-9.824, 0.972-13.994
		l 89.44-123.338c 2.456-3.428, 6.626-5.398, 10.822-5.398C 107.117,170.684, 111.313,172.91, 113.769,176.338z" horiz-adv-x="614" data-tags="refresh" />
<glyph unicode="&#x31;" d="M 170.636-32c 7.441,0, 14.199,3.55, 18.398,9.353l 151.825,208.998c 3.243,4.198, 4.198,9.353, 4.198,14.199l0,0l0,0 
	c0,1.604-0.307,2.901-0.649,4.506c-0.307,1.604-0.956,3.243-1.604,4.847c-3.891,7.748-11.639,12.288-20.343,12.288l-98.85,0L 223.611,427.025 C 223.611,456.414, 199.718,480, 170.636,480
	c-29.082,0-52.975-23.586-52.975-52.975l0-204.8 l-43.281,0l0,0L 18.811,222.225 c-1.946,0-3.891-0.307-5.495-0.649c-0.649,0-0.956-0.307-1.604-0.307
	C 10.414,220.279, 9.151,219.972, 7.854,218.982C 7.513,218.982, 7.206,218.675, 6.864,218.675C 5.26,217.685, 3.963,216.73, 3.007,215.433c0,0,0-0.307-0.307-0.307
	C 1.062,213.487, -0.235,211.883, -1.191,209.63C-5.082,202.189-4.434,193.143, 0.413,186.044l 151.825-208.998C 156.438-28.757, 163.229-32, 170.636-32z" horiz-adv-x="341" data-tags="unfold" />
<glyph unicode="&#x32;" d="M 576,473.472L 288.32-25.472L0,473.472 z" horiz-adv-x="576" data-tags="dropdown" />
<glyph unicode="&#x33;" d="M 507.819,90.283L 372.864,225.237l 134.144,134.144c 2.517,2.517, 4.181,6.229, 4.181,9.6c0,3.755-1.237,7.083-4.181,9.6L 409.941,476.032
	c-4.992,4.992-14.165,4.992-19.584,0L 256.213,341.461L 122.069,476.032c-4.992,4.992-14.165,4.992-19.584,0L 4.181,377.301c-5.419-5.419-5.419-14.165,0-19.584l 134.144-134.144
	l-133.291-133.717c-5.419-5.419-5.419-14.165,0-19.584l 97.067-97.067c 5.419-5.419, 14.165-5.419, 19.584,0l 133.291,133.291l 134.997-134.997c 2.517-2.517, 6.229-4.181, 9.6-4.181
	c 3.328,0, 7.083,1.237, 9.6,4.181l 98.304,98.731c 2.517,2.517, 4.181,6.229, 4.181,9.6S 510.336,87.339, 507.819,90.283z" data-tags="close-small" />
<glyph unicode="&#x34;" d="M 658.662,484.221L 437.419,484.221 c-20.696,0-37.351-16.785-37.351-36.957L 400.069,257.768 c-18.347-2.086-32.665-17.573-32.665-36.445c0-18.872, 14.187-34.49, 32.665-36.445
		l0-181.687 c0-21.996, 17.953-39.306, 39.306-39.306c 22.127,0, 39.306,17.31, 39.306,39.306L 478.668,184.366 l 76,0 c 20.434,0, 37.351,16.392, 37.351,36.314c0,17.048-12.625,31.629-29.148,35.263
		c-3.78,1.3-7.808,2.086-11.969,2.086l-72.234,0 L 478.668,410.95 l 179.732,0 c 21.208,0, 38.781,16.274, 38.781,36.314C 697.443,467.435, 679.752,484.221, 658.662,484.221zM 1445.649,36.788L 1256.284,36.788 c 33.834,116.869, 226.716,141.082, 226.716,295.695c0,72.746-43.467,151.62-154.087,151.62
		c-57.128,0-104.375-16.011-140.951-46.065c-10.539-8.333-14.055-18.085-14.055-28.637c0-22.127, 18.347-38.518, 38.781-38.518c 16.274,0, 24.726,12.1, 47.246,24.2
		c 16.916,9.239, 37.351,16.392, 66.249,16.392c 55.698,0, 78.218-38.518, 78.218-79.124c0-76.263-90.187-113.351-158.642-174.653c-42.941-38.518-76.788-85.502-76.788-157.342
		c0-21.471, 14.712-36.314, 38.007-36.314l 238.816,0 c 20.696,0, 37.351,16.143, 37.351,36.314C 1483,20.777, 1466.477,36.788, 1445.649,36.788zM 237.254,157.948c-68.323,61.302-158.642,98.39-158.642,174.653c0,40.606, 22.521,79.124, 78.349,79.124c 28.886,0, 49.32-7.153, 66.249-16.392
		c 22.521-12.1, 30.973-24.2, 47.246-24.2c 20.434,0, 38.781,16.392, 38.781,38.518c0,10.539-3.517,20.171-14.055,28.637C 258.462,468.21, 211.229,484.221, 154.087,484.221
		C 43.467,484.221,0,405.359,0,332.6c0-154.612, 192.869-178.813, 226.716-295.695L 37.351,36.918 C 16.655,36.788,0,20.777,0,0.605c0-20.171, 16.655-36.314, 37.351-36.314l 238.816,0 
		c 23.295,0, 38.007,14.712, 38.007,36.314C 314.042,72.577, 280.326,119.56, 237.254,157.948zM 1068.101,260.366L 1068.101,447.264 C 1068.101,467.435, 1051.566,484.221, 1030.882,484.221L 809.626,484.221 c-21.077,0-38.781-16.785-38.781-36.957c0-20.040, 17.704-36.314, 38.781-36.314
		l 179.732,0 l0-149.928 L 914.92,261.023 c-15.092,0-27.98-9.108-33.702-22.127c-3.255-5.459-5.21-11.706-5.21-18.347c0-19.778, 16.916-36.314, 37.351-36.314l 76,0 l0-181.293 
		c0-21.996, 17.31-39.306, 39.437-39.306c 21.471,0, 39.306,17.31, 39.306,39.306L 1068.101,188.146 c 17.31,2.992, 30.447,17.953, 30.447,36.182C 1098.549,242.413, 1085.412,257.374, 1068.101,260.366z" horiz-adv-x="1483" data-tags="logo-sf72" />
<glyph unicode="&#x66;" d="M 254.387,480C 113.055,479.14-0.811,363.766, 0.048,222.435c 0.86-141.331, 116.234-255.285, 257.565-254.338
		c 141.331,0.86, 255.189,116.234, 254.338,257.565C 511.102,366.993, 395.718,480.86, 254.387,480z M 340.779,138.699c0-3.42-5.796-6.656-8.646-8.646s-8.173-2.57-11.409-1.43
		l-141.525,47.239l0-41.53 c0-5.796-4.946-11.882-10.742-11.882l-7.129,0 c-2.753,0-5.516,1.71-7.506,3.71c-2,2-3.14,5.323-3.14,8.076l0,48.283 
		c0,0.667, 0.097,6.366, 0.193,6.366l-18.538,0 l-24.518-7.129c-3.14-0.667-6.366-0.86-8.839,1.14c-0.29,0.193-1.237-0.097-1.517,0.193
		c-1.903,2-3.806,4.086-3.806,6.936l0,46.949 c0,3.14, 2.183,6.183, 4.656,8.173c 2.473,2, 6.086,4.56, 9.216,3.893l 24.518-3.14l 20.432,0 l 165.946,54.456
		c 3.236,1.14, 11.022-0.29, 13.785-2.28c 2.753-2, 8.646-6.086, 8.646-9.506L 340.876,138.699 z M 376.803,167.69c-1.333-2.57-4.85-4.086-8.646-4.183
		c-0.947,0-2,0.097-2.946,0.377c-4.753,1.043-7.323,4.56-5.603,7.796c 7.506,14.635, 11.312,30.034, 11.312,45.433c0,15.302-3.71,30.604-11.216,45.046
		c-1.613,3.236, 0.86,6.656, 5.603,7.796c 4.753,1.14, 9.883-0.57, 11.592-3.806c 8.173-15.775, 12.162-32.411, 12.162-49.046C 389.062,200.284, 384.879,183.562, 376.803,167.69z
		 M 412.344,134.419c-1.517-2.183-4.85-3.516-8.269-3.516c-1.237,0-2.57,0.193-3.806,0.57c-4.56,1.43-6.559,5.13-4.376,8.173
		c 17.109,24.421, 25.658,50.852, 25.658,77.273c0,26.421-8.549,52.746-25.658,77.273l0,0c-2.087,3.043-0.193,6.753, 4.376,8.173c 4.463,1.43, 9.979,0.193, 12.066-2.946
		c 18.248-26.141, 27.464-54.272, 27.464-82.5C 439.818,188.788, 430.592,160.56, 412.344,134.419zM 112.679,196.671L 131.681,202.66L 131.681,224.425L 112.679,230.414 	z" data-tags="alert" />
<glyph unicode="&#x67;" d="M 306.234,184.083A18.722,18.722 900 1 1 343.678,184.08300000000003A18.722,18.722 900 1 1 306.234,184.08300000000003zM 163.376,184.083A18.722,18.722 900 1 1 200.83,184.08300000000003A18.722,18.722 900 1 1 163.376,184.08300000000003zM 211.852,351.449l 83.35,0 c 4.183,0, 7.506,1.043, 7.506,5.226l-0.667,5.226c0,2.657-1.43,5.516-3.516,6.84
		c-1.14,0.763-2.57,1.71-3.99,1.71l-82.026,0 c-1.517,0-2.85-1.517-3.99-2.28c-2.087-1.333-3.516-4.183-3.516-6.936l-0.667-4.376
		C 204.346,352.782, 207.669,351.449, 211.852,351.449zM 297.105,332.447l-87.156,0 c-18.345,0-34.594-2.376-44.003-7.603l-8.366-93.049c 9.883-6.753, 28.034-13.399, 48.949-13.399l 93.812,0 
		c 21.002,0, 39.347,7.226, 49.142,14.066l-8.366,91.619C 331.699,329.308, 315.45,332.447, 297.105,332.447zM 255.952,479.952C 114.62,479.952,0,365.331,0,224c0-141.428, 114.62-255.952, 255.952-255.952s 255.952,114.524, 255.952,255.952
		C 511.903,365.331, 397.38,479.952, 255.952,479.952z M 308.224,66.323l-5.516,19.012L 204.626,85.335 l-5.516-19.012L 175.829,66.323 l 16.635,47.519l 23.378,0 l-5.419-9.506l 86.683,0 l-5.419,9.506l 23.378,0 l 16.635-47.519L 308.224,66.323 z
		 M 310.794,132.854c-0.193,0-0.29,0-0.473,0l-21.291,0 l-70.714,0 L 196.743,132.854 c-0.097,0-0.097,0-0.193,0c-36.874,0-61.585,19.862-61.585,51.422l0,0.097l 13.119,146.268
		c 0.29,32.507, 26.711,58.832, 61.682,58.832l 87.156,0 c 34.98,0, 61.498-26.711, 61.682-59.122l 13.215-144.848C 372.002,153.953, 347.387,132.854, 310.794,132.854z" data-tags="transport" />
<glyph unicode="&#x69;" d="M 255.951,480C 114.619,480,0,365.381,0,224.049c0-141.43, 114.619-255.951, 255.951-255.951c 141.43,0, 255.951,114.619, 255.951,255.951
	C 512,365.381, 397.381,480, 255.951,480z M 254.887,341.484c 16.128,0, 27.008-12.239, 27.008-27.973c0-16.709-11.943-28.367-27.008-28.367c-14.858,0-26.713,11.559-26.713,28.367
	C 228.175,329.925, 240.020,341.484, 254.887,341.484z M 303.449,104.182l-87.424,0 l0,10.398 c 19.426,0, 19.426,2.914, 19.426,26.713l0,73.728 c0,23.798,0,25.452-19.426,25.452l0,12.918 
	c 19.426,1.26, 40.409,6.41, 62.651,15.734l 5.346-2.914L 284.022,140.997 c0-23.503,0-26.417, 19.426-26.417L 303.449,104.182 z" data-tags="info" />
<glyph unicode="&#x37;" d="M 512.085,195.486l-15.702,0 l0,77.29 c0,10.028-8.129,18.157-18.26,18.157l-12.142,0 l-9.573,31.073l 21.716,0 c 10.028,0, 18.26,8.129, 18.26,18.157
		s-8.129,18.157-18.26,18.157l-32.96,0 L 410.066,471.913c-0.886,2.786-2.786,5.127-5.344,6.458c-2.558,1.342-5.571,1.672-8.357,0.784L 55.461,373.68
		C 52.675,372.793, 50.447,370.906, 49.117,368.337c-1.342-2.558-1.672-5.571-0.784-8.357l 0.558-1.785C 21.602,356.649,0,334.034,0,306.531l0-286.229 
		c0-28.617, 23.273-51.902, 52.015-51.902l 426.222,0 c 10.028,0, 18.26,8.129, 18.26,18.157l0,81.19 l 15.702,0 c 6.015,0, 10.915,4.9, 10.915,10.915l0,105.918 
		C 523,190.585, 518.1,195.486, 512.085,195.486z M 52.015,290.933c-8.129,0-14.7,6.241-15.372,14.144c0,0.444-0.114,0.886-0.114,1.342
		c0,8.573, 7.015,15.486, 15.588,15.486l 8.015,0 l 5.901-19.044l 3.672-12.029L 52.015,290.831 z M 292.573,306.531c-0.671-3.457-2.342-6.685-4.9-9.573
		c-2.228-2.456-5.127-4.343-8.459-6.015l-26.286,0 c-2.114,1.342-3.786,2.672-5.127,4.23c-1.444,1.785-2.558,3.672-3.116,5.685
		c-0.444,1.444-0.228,2.899, 0.558,4.457s 2.001,2.558, 3.672,3.116c 1.342,0.444, 2.558,0.444, 3.786,0.114c 1.114-0.33, 2.114-1, 2.786-2.114
		c 1.558-2.228, 2.899-3.9, 3.9-5.014s 2.342-2.114, 3.9-2.786c 1.558-0.671, 3.457-1, 5.685-1l-6.571,21.159c-4.457-0.114-8.243,0.114-11.358,0.558
		c-2.456,0.444-4.571,1.342-6.458,2.558c-0.671,0.444-1.342,0.784-2.001,1.228c-2.456,2.001-4.343,5.014-5.571,9.016c-0.886,2.786-1.114,5.344-0.886,7.902
		c 0.228,2.228, 0.784,4.343, 1.899,6.458c 2.342,4.343, 6.571,7.799, 12.586,10.244l-0.444,1.558l-1.558,5.23c-0.784,2.558-0.228,4.116, 1.672,4.673
		c 2.001,0.558, 3.343-0.33, 4.116-2.786l 2.114-6.799c 3.343,0.671, 6.344,0.886, 9.016,0.558c 1.228-0.114, 2.456-0.444, 3.672-0.886
		c 1.342-0.444, 2.558-1, 3.786-1.785c 1.785-1.114, 3.343-2.342, 4.673-3.786c 1.228-1.444, 2.114-2.786, 2.558-4.116c 0.444-1.558, 0.33-3.002-0.444-4.457
		c-0.784-1.444-1.899-2.456-3.457-2.899c-3.002-0.886-5.457,0.114-7.243,3.002c-2.114,3.457-5.344,5.23-9.573,5.344l 2.899-9.471l 2.899-9.471
		c 4.116,0.114, 7.356,0.114, 9.801,0s 4.9-0.784, 7.129-1.899c 2.342-1.114, 4.457-2.672, 6.241-4.673c 0.558-0.671, 1-1.444, 1.444-2.114
		c 1-1.558, 1.785-3.116, 2.342-5.014C 293.13,313.546, 293.357,310.091, 292.573,306.531z M 331.332,340.277c-0.33,1.114-0.444,2.228-0.886,3.343
		c-1.672,5.23-3.9,10.244-6.685,14.814c-6.344,10.687-15.486,19.601-26.73,25.502c-16.144,8.573-34.632,10.358-52.118,4.9c-16.816-5.23-30.186-16.372-38.531-30.402
		c-3.343-5.685-5.901-11.801-7.573-18.157c-1.444-5.901-2.228-12.029-2.114-18.157c 0.114-6.241, 1-12.472, 3.002-18.714c 1.114-3.672, 2.558-7.129, 4.23-10.471
		c 0.33-0.671, 0.558-1.342, 0.886-1.899L 169.282,291.046 c 0.228,1.444, 0.114,3.002-0.228,4.457c0,0.114,0,0.228-0.114,0.33c-0.886,2.786-2.786,5.127-5.344,6.458
		c-2.558,1.342-5.571,1.672-8.357,0.784c-3.229-1-5.571-3.229-6.799-6.129c-0.784-1.899-1.114-3.9-0.784-6.015L 92.548,290.933 l-3.229,10.358l-6.458,20.715
		l-5.571,18.157L 72.39,356.091l 7.799,2.342l 290.674,89.876c 5.344-7.799, 14.258-12.802, 24.274-12.802c 1.114,0, 2.228,0.114, 3.229,0.228l 23.831-77.29l 5.685-18.157l 5.685-18.157
		l 9.573-31.073L 325.204,291.046 c 5.127,9.471, 8.015,20.045, 8.243,31.073C 333.56,328.020, 332.889,334.148, 331.332,340.277z M 501.17,89.578l-4.787,0 l-18.26,0 L 459.967,89.578 l-58.474,0 
		c-23.16,0-41.988,18.816-41.988,41.988c0,23.16, 18.816,41.988, 41.988,41.988l 58.474,0 l 18.157,0 l 18.26,0 L 501.17,173.553 L 501.17,89.578 zM 253.371,348.064c-2.342-1.558-4.013-3.229-5.014-4.9c-0.558-0.886-0.784-1.899-0.886-3.002c0-1, 0.114-2.114, 0.444-3.343
		c 0.671-2.342, 2.001-4.013, 3.672-4.787c 1.672-0.784, 4.116-1.342, 7.129-1.444l-2.899,9.573L 253.371,348.064zM 276.985,317.446c-2.114,0.886-4.9,1.444-8.357,1.444l 6.129-19.931c 2.899,1.558, 4.9,3.558, 6.015,5.901
		c 1.114,2.342, 1.228,4.787, 0.444,7.243C 280.43,314.66, 279.1,316.548, 276.985,317.446zM 363.291,340.277c 2.558-1.672, 5.901-2.228, 9.016-1.228c 0.886,0.33, 1.785,0.784, 2.558,1.228c 4.116,2.558, 6.129,7.573, 4.673,12.472
		c-0.784,2.456-2.342,4.343-4.457,5.787c-0.33,0.228-0.558,0.558-0.886,0.671c-2.558,1.342-5.571,1.672-8.357,0.784c-1.114-0.33-2.114-0.886-3.002-1.444
		c-3.9-2.672-5.685-7.573-4.23-12.256C 359.392,343.619, 361.177,341.607, 363.291,340.277zM 394.478,131.566A14.258,14.258 900 1 1 422.993,131.56599999999997A14.258,14.258 900 1 1 394.478,131.56599999999997z" horiz-adv-x="523" data-tags="about-tooltip" />
<glyph unicode="&#x38;" d="M 776.566,55.918c-21.033-8.68-51.507-17.825-86.397-25.451c-40.238-8.835-84.878-15.081-123.426-14.632l-0.155,0 
	c-28.954-0.45-51.971,1.364-75.129,2.139c-62.17,2.139-119.319,7.006-183.938,7.471c-53.646,0.45-108.81-0.45-162.3-2.588c-36.719-1.519-85.482,3.503-115.351,13.718
	c-14.167,4.882-15.081,5.797-15.996,20.274c-0.759,11.734-0.759,29.264, 1.984,34.596c 2.743,4.882, 6.851,5.642, 9.749,5.487c 20.879-3.968, 54.095-21.033, 106.516-19.964
	c 81.98,1.829, 170.377,13.563, 259.826,1.225c 141.562-19.499, 222.936-10.974, 289.99,19.964c 6.557,0.914, 10.509,12.043, 9.145,17.22c-2.588,10.059-6.247,20.413-10.214,28.349
	c-0.759,4.573, 5.022,4.418, 10.974,4.727c 45.57,1.225, 68.727,2.743, 90.365-12.043c 4.882-3.348, 7.006-5.936, 8.231-10.214c 3.658-11.888, 5.487-22.553, 6.247-32.302
	C 798.359,68.875, 794.855,63.389, 776.566,55.918 M 168.547,353.069c 45.105,0, 81.685-37.494, 81.685-83.514c0-46.175-36.58-83.653-81.685-83.653
	c-45.105,0-81.685,37.494-81.685,83.653C 86.862,315.589, 123.426,353.069, 168.547,353.069 M 859.925,104.231c-1.364,4.108-3.968,9.904-9.595,13.872
	c-30.783,22.708-72.385,17.67-108.19,17.22c-6.091-0.155-12.958-0.914-19.499-1.225l-0.155,0.155c-1.225,0-2.588-0.155-3.813-0.155
	c-5.936,1.225-18.74,4.263-29.558,6.711c-9.904,2.279-15.841-7.471-17.531-16.756c-0.155-0.604-0.155-1.225-0.31-1.674c-1.984-10.214-11.424-17.22-21.793-15.702
	c-10.37,1.519-65.534,11.579-64.154,22.553c 1.674,12.803, 47.399,26.365, 27.885,32.922c-5.797,1.984-11.129,4.263-16.306,6.557c-15.996,7.006-26.21,4.418-35.665-19.049
	c-0.155-0.604-0.45-1.070-0.759-1.674c-4.727-9.3-15.392-13.408-25.141-9.145s-14.477,16.151-9.904,26.21c 7.765,17.375, 12.338,31.093-7.006,42.362
	c-4.263,2.434-8.231,5.332-12.338,7.765c-14.012,8.541-24.986,16.151-42.671-4.418l-8.075-10.059c-0.31-0.45-0.759-0.914-1.070-1.364
	c-6.851-7.765-18.585-8.68-26.52-1.829c-8.231,7.006-9.595,19.499-2.743,28.040c 2.139,2.743, 4.263,5.332, 6.402,8.075c 10.509,12.958, 18.135,28.349-4.418,50.143
	c-15.081,14.787-24.986,21.328-49.987,0l-8.386-7.161c-0.45-0.31-0.914-0.759-1.364-1.070c-8.231-6.247-19.809-4.882-26.52,3.348
	c-6.851,8.386-5.642,21.033, 2.588,28.040c 4.263,3.658, 8.386,7.471, 12.803,10.819c 26.056,20.569, 11.888,37.34, 1.674,48.763c-12.043,13.563-20.569,24.536-47.244,3.968
	l-9.904-8.231c-0.45-0.45-0.914-0.759-1.364-1.070c-8.386-6.091-19.964-4.418-26.365,3.813c-6.711,8.541-5.332,21.033, 3.053,27.885
	C 282.069,397.724, 287.711,402.901, 293.958,407.474c 20.274,14.787, 3.053,47.539-8.541,61.411c-10.819,12.958-17.375,12.043-31.387,5.332c-11.129-5.332-24.986-16.306-32.457-28.954
	c-27.435-40.532-67.968,2.898-107.586,8.541c-23.157,3.348-89.141,21.188-76.198-16.616c 1.225-7.471, 2.434-15.081, 3.503-22.708c 8.541-59.132, 12.338-120.698-6.402-177.072
	c-16.756-50.592-32.302-99.355-29.264-152.536c-0.45-10.974-3.813-16.756-4.573-28.194c-0.45-6.851-0.759-13.563-0.914-19.049c-0.45-14.477, 0.31-18.445, 2.743-29.264
	c 1.070-4.727, 3.053-6.557, 5.936-8.075c 30.783-17.67, 100.425-25.606, 147.514-23.622c 11.424,0.45, 21.483,0.914, 29.109,0.914c 0.155,0, 0.155,0, 0.31,0
	c 37.944,1.364, 92.039,2.279, 144.305,1.829c 42.826-0.31, 84.429-1.519, 114.902-3.968l0,0c 32.147-3.348, 57.304-5.177, 82.444-5.936c 24.986-0.914, 49.832-0.914, 81.065-0.45
	c 42.362-0.45, 90.969,6.247, 134.865,15.841c 49.523,10.819, 93.264,25.451, 115.057,37.185c 6.247,3.193, 7.471,7.765, 8.231,12.338c 1.070,9.749, 1.519,20.119, 0.759,31.387
	C 866.636,77.556, 864.343,90.204, 859.925,104.231" horiz-adv-x="868" data-tags="app-tooltip" />
<glyph unicode="&#x39;" d="M 267.672,320.015L 103.328,320.015 c-5.432,0-9.717-4.388-9.717-9.717s 4.388-9.717, 9.717-9.717l 164.343,0 c 5.328,0, 9.717,4.388, 9.717,9.717
		S 273,320.015, 267.672,320.015zM 267.672,239.88L 103.328,239.88 c-5.432,0-9.717-4.388-9.717-9.717s 4.388-9.717, 9.717-9.717l 164.343,0 c 5.328,0, 9.717,4.388, 9.717,9.717
		S 273,239.88, 267.672,239.88zM 267.672,159.747L 103.328,159.747 c-5.432,0-9.717-4.388-9.717-9.717c0-5.328, 4.388-9.717, 9.717-9.717l 164.343,0 
		c 5.328,0, 9.717,4.388, 9.717,9.717C 277.388,155.358, 273,159.747, 267.672,159.747zM 422.090,310.194c0-5.328, 4.388-9.717, 9.717-9.717l 164.343,0 c 5.432,0, 9.717,4.388, 9.717,9.717s-4.388,9.717-9.717,9.717L 431.805,319.911 
		C 426.373,320.015, 422.090,315.627, 422.090,310.194zM 596.149,239.88L 431.805,239.88 c-5.328,0-9.717-4.388-9.717-9.717s 4.388-9.717, 9.717-9.717l 164.343,0 c 5.432,0, 9.717,4.388, 9.717,9.717
		S 601.478,239.88, 596.149,239.88zM 431.805,159.747c-5.328,0-9.717-4.388-9.717-9.717c0-5.328, 4.388-9.717, 9.717-9.717l 164.343,0 c 5.432,0, 9.717,4.388, 9.717,9.717
		c0,5.328-4.388,9.717-9.717,9.717M 512.88,484.776C 452.492,484.776, 385.104,475.582, 350,451.865C 314.895,475.582, 247.507,484.776, 187.224,484.776C 100.821,484.776,0,465.866,0,412.687l0-425.119 
		c0-7.209, 3.135-14, 8.672-18.597c 5.537-4.597, 12.747-6.582, 19.851-5.328c 47.85,8.254, 102.701,12.642, 158.701,12.642s 110.746-4.388, 158.701-12.642
		c 0.627-0.104, 1.254-0.104, 1.985-0.209c 0.522,0, 1.045-0.104, 1.567-0.104c 0.209,0, 0.418-0.104, 0.627-0.104c 1.254,0, 2.612,0.104, 3.866,0.313
		c 0.104,0, 0.209,0, 0.209,0c 47.85,8.254, 102.701,12.642, 158.701,12.642s 110.851-4.388, 158.701-12.642c 1.358-0.209, 2.821-0.313, 4.18-0.313
		c 5.641,0, 11.179,1.985, 15.671,5.746C 696.865-26.433, 700-19.641, 700-12.432L 700,412.687 C 700,465.866, 599.179,484.776, 512.88,484.776z M 48.686,15.88L 48.686,409.656 
		c 9.821,9.612, 58.507,26.537, 138.537,26.537c 80.030,0, 128.612-16.821, 138.537-26.537l0-393.776 c-43.254,5.955-90.582,8.985-138.537,8.985S 91.94,21.836, 48.686,15.88z
		 M 651.313,15.88c-86.508,11.806-190.463,11.806-276.97,0L 374.343,409.656 c 9.821,9.612, 58.507,26.537, 138.537,26.537c 80.030,0, 128.612-16.821, 138.537-26.537L 651.418,15.88 z" horiz-adv-x="700" data-tags="manifesto" />
<glyph unicode="&#x63;" d="M 1.658,4.716l0-36.716 l 380.223,0 L 381.881,4.716 l-30.743,0 L 351.139,258.691 c 8.897,0, 8.112-4.050, 8.112-6.758L 359.25,54.266 c0-25.793, 19.035-43.474, 41.449-43.474
	c 23.086,0, 40.767,18.364, 40.767,42.803c0,24.439-32.552,95.061-32.552,118.147L 408.914,360.499 c0,14.302-5.404,26.465-12.948,32.552l-44.828,36.602L 351.139,458.94 
	c0,11.492-9.466,21.060-21.060,21.060L 53.462,480 C 41.981,480, 32.401,470.431, 32.401,458.94l0-6.087 L 232.547,452.853 c 83.228,0, 88.633-4.733, 88.633-10.809l0-93.707 c0-6.087-5.404-10.809-10.809-10.809
	L 73.18,337.527 c-5.404,0-10.923,4.733-10.923,10.809L 62.256,441.93 c0,4.733, 3.152,8.67-29.844,10.251L 32.401,4.716 L 1.658,4.716 z M 351.024,401.948c 5.404-4.050, 9.466-8.784, 9.466-14.302l0-39.424 l 27.147,0 
	l0-169.734 c0-42.803, 34.008-100.466, 34.008-124.905c0-12.948-8.112-23.086-21.060-23.086s-21.060,9.466-21.060,23.768L 379.526,272.208 c0,7.43-8.784,10.809-17.010,10.809l-11.605,0 L 350.912,401.948 z" horiz-adv-x="443" data-tags="fuel" />
<glyph unicode="&#x41;" d="M 475.317,273.408c-16.203,16.203-43.040,15.883-59.637-0.704
	L 296.501,153.515L 296.501,395.776 c0,23.467-18.752,42.667-41.664,42.667s-41.664-19.2-41.664-42.667l0-241.845 L 94.411,272.693c-16.597,16.597-43.424,16.907-59.627,0.704
	c-16.213-16.213-15.883-43.040, 0.704-59.637l 189.301-189.301c 2.144-2.144, 4.48-4, 6.923-5.589c 6.283-4.235, 13.515-6.443, 20.885-6.827
	c 0.821-0.053, 1.632-0.213, 2.453-0.213s 1.632,0.16, 2.453,0.213c 7.371,0.384, 14.592,2.581, 20.875,6.816c 2.443,1.6, 4.779,3.456, 6.923,5.6
	l 189.301,189.312C 491.2,230.379, 491.52,257.205, 475.317,273.408z" data-tags="arrow" />
<glyph unicode="&#x42;" d="M 256.885-6.667c-24.245,0-48.363,3.819-71.659,11.349C 63.584,44.021-3.52,174.507, 35.627,295.584
			C 66.496,391.061, 154.88,455.2, 255.552,455.2c 24.256,0, 48.363-3.819, 71.659-11.349C 386.123,424.8, 434.133,384.053, 462.379,329.12
			c 28.267-54.944, 33.376-117.515, 14.411-176.171C 445.931,57.483, 357.557-6.667, 256.885-6.667z M 255.552,439.2
			c-93.707,0-175.979-59.691-204.693-148.533C 14.421,177.995, 76.907,56.533, 190.144,19.915c 21.707-7.019, 44.16-10.581, 66.731-10.581
			c 93.717,0, 175.968,59.701, 204.683,148.544c 17.653,54.581, 12.885,112.8-13.408,163.925c-26.304,51.147-71.008,89.088-125.877,106.827
			C 300.576,435.648, 278.123,439.2, 255.552,439.2zM 368.373,188.523l-87.829,28.395c 1.813,10.208-2.517,20.341-10.805,26.176l 48,148.459
		c 1.355,4.203-0.949,8.715-5.152,10.069c-4.213,1.344-8.704-0.949-10.069-5.152l-48.021-148.544c-11.179-0.021-21.568-7.040-25.195-18.251
		c-4.512-13.952, 3.136-28.907, 17.088-33.408c 9.664-3.125, 19.733-0.309, 26.549,6.293l 90.517-29.269c 0.821-0.256, 1.653-0.384, 2.464-0.384
		c 3.381,0, 6.517,2.155, 7.616,5.547C 374.88,182.645, 372.576,187.157, 368.373,188.523z" data-tags="clock" />
<glyph unicode="&#x43;" d="M 119.749,172.293L 97.142,158.602c-4.975-3.015-8.427-7.724-9.769-13.275c-1.331-5.55-0.352-11.271, 2.738-16.109
			c 4.027-6.307, 10.995-10.057, 18.623-10.057c 4.070,0, 8.065,1.119, 11.549,3.228l 40.9,24.781L 119.749,172.293zM 346.889,436.348l-1.395,1.662l-1.822-0.235c-2.856-0.384-7.735-2.621-14.958-6.041
			c-2.504-1.183-5.253-2.461-8.097-3.75c 4.23-0.128, 8.673-0.224, 13.243-0.32c 4.304-0.107, 8.725-0.181, 13.2-0.224
			c 1.811-0.021, 3.623-0.043, 5.454-0.053C 351.172,430.457, 349.307,433.461, 346.889,436.348zM 347.059,427.43C 342.585,427.484, 347.059,427.43, 347.059,427.43L 347.059,427.43zM 468.844,148.929c-1.331,5.7-4.783,10.536-9.727,13.637L 281.154,273.962c-2.877,1.801-3.75,5.582-1.971,8.481
			c 1.172,1.875, 3.164,2.898, 5.221,2.898c 1.108,0, 2.216-0.299, 3.228-0.938L 423.032,199.663c 3.473-2.173, 7.447-3.313, 11.506-3.313
			c 0.532,0, 1.044,0.064, 1.566,0.107c 6.968,0.5, 13.243,4.208, 16.972,10.239c 3.1,5.422, 3.995,11.059, 2.728,16.545
			c-1.321,5.71-4.762,10.558-9.716,13.648c-1.587,0.991-139.533,87.447-172.517,108.115c-4.23,2.653-6.829,4.272-7.084,4.443
			c-1.449,0.906-2.493,2.376-2.813,4.155c-0.213,1.172,0,2.301, 0.415,3.335c-5.263,2.888-10.824,6.084-16.407,9.525
			c-30.023,18.442-47.335,34.529-52.62,48.933c-1.502,0-2.993-0.011-4.496-0.011c-22.010,0-40.197,0.405-54.036,1.204
			c-2.109,0.117-4.24,0.171-6.36,0.171c-37.704,0-71.807-18.697-91.197-49.999C 8.171,317.003, 23.364,251.344, 72.829,220.384l 241.309-151.050
			c 3.484-2.184, 7.447-3.313, 11.506-3.313c 7.607,0, 14.532,3.867, 18.549,10.345c 6.328,10.217, 3.239,23.736-6.883,30.14l-115.2,72.094
			c-0.447,0.288-0.746,0.682-1.098,1.055c-1.897,2.003-2.365,5.018-0.874,7.436c 1.172,1.886, 3.164,2.908, 5.221,2.908
			c 1.108,0, 2.216-0.299, 3.228-0.938l 3.729-2.333l 146.245-91.538c 3.473-2.173, 7.447-3.313, 11.495-3.313c 7.596,0, 14.532,3.867, 18.549,10.345
			c 6.317,10.196, 3.239,23.715-6.861,30.129l-150.091,93.956c-2.877,1.801-3.76,5.593-1.971,8.491c 1.162,1.875, 3.153,2.898, 5.199,2.898
			c 1.108,0, 2.226-0.309, 3.239-0.948l 150.112-93.967l 27.859-17.43c 3.463-2.173, 7.436-3.313, 11.506-3.313c 7.586,0, 14.532,3.867, 18.538,10.356
			C 469.195,137.338, 470.165,143.219, 468.844,148.929zM 517.105,370.976c-19.060,30.747-52.246,49.349-89.13,50.254c-0.938,0.021-1.875,0.096-2.802,0.096
			c-2.141,0-4.283-0.064-6.403-0.192c-3.239-0.192-6.563-0.331-10.047-0.468c-3.335-0.139-6.787-0.235-10.345-0.331
			c-3.739-0.096-7.276-0.171-10.878-0.224c-3.591-0.064-7.308-0.107-11.176-0.139c-4.677-0.032-8.406-0.043-12.145-0.043
			c-0.916,0-1.833,0-2.738,0.011c-1.747,0-3.484,0-5.221,0.011c-1.737,0-3.452,0.011-5.167,0.021
			c-19.081,0.139-37.608,0.5-52.353,0.874c-7.404,0.192-13.882,0.373-18.953,0.532c-3.687,0.117-7.404,0.532-11.123,1.066
			c-7.276,1.055-14.511,2.728-21.329,4.666c-6.947,1.982-13.499,4.155-19.177,6.062c-1.619,0.554-3.228,1.098-4.815,1.609
			c-3.089,1.023-6.148,1.982-8.513,2.578c-1.609,0.395-2.536,0.586-3.217,0.65c-1.183-1.055-1.907-1.737-2.546-2.408
			c-0.373-0.384-0.692-0.756-1.034-1.151c-0.341-0.395-0.682-0.799-0.97-1.183c-0.288-0.384-0.554-0.756-0.799-1.119
			c-0.256-0.395-0.49-0.778-0.692-1.162c-0.181-0.309-0.363-0.639-0.5-0.927c-0.224-0.5-0.426-0.97-0.575-1.427
			c-0.373-1.087-0.511-1.651-0.596-2.194c-0.053-0.32-0.053-0.543-0.075-0.756c-0.021-0.277-0.064-0.564-0.064-0.82
			c0-0.458, 0.021-0.906, 0.075-1.321c 0.096-0.756, 0.256-1.534, 0.468-2.312c 0.511-1.801, 1.215-3.473, 2.152-5.21
			c 0.468-0.874, 1.012-1.769, 1.598-2.653c 7.202-10.984, 23.097-24.014, 45.513-37.747c 7.394-4.539, 14.777-8.662, 21.425-12.188
			c 2.088-1.108, 4.080-2.152, 5.998-3.132c 2.152-1.108, 4.166-2.12, 6.052-3.047c 0.98-0.479, 1.907-0.938, 2.792-1.374
			c-0.532-0.938-1.194-1.758-2.088-2.301c-0.181-0.117-0.991-0.628-2.216-1.395c-0.415-0.256-0.916-0.575-1.438-0.895
			c 5.732-3.58, 168.949-105.676, 169.609-106.091c 7.351-4.591, 12.476-11.762, 14.436-20.243c 0.778-3.356, 0.991-6.765, 0.714-10.121l 14.18,8.864
			C 532.862,254.849, 548.172,320.914, 517.105,370.976zM 170.078,140.416l-19.294-11.57c-10.803-6.563-14.106-20.455-7.319-30.95c 4.315-6.648, 11.741-10.622, 19.901-10.622
			c 4.358,0, 8.63,1.183, 12.337,3.409l 38.641,23.183L 170.078,140.416zM 218.915,108.529l-5.87-3.824c-9.29-6.105-12.124-19.038-6.317-28.808c 3.687-6.18, 10.068-9.887, 17.046-9.887
			c 3.729,0, 7.383,1.108, 10.579,3.175l 22.501,14.649L 218.915,108.529z" horiz-adv-x="554" data-tags="hands" />
<glyph unicode="&#x44;" d="M 431.062,417.342L 358.383,417.342 c 0.386,8.482-0.949,17.7-6.005,26.338
	c-10.885,18.584-34.875,28.143-71.344,28.401c-36.312,0.341-60.044-8.952-70.985-27.324c-5.323-8.934-6.631-18.575-6.088-27.416l-72.734,0 
	c-29.81,0-54.068-24.257-54.068-54.077l0-193.808 c0-29.819, 24.257-54.077, 54.068-54.077l 299.842,0 c 29.819,0, 54.077,24.257, 54.077,54.077L 485.129,363.266 
	C 485.138,393.095, 460.891,417.342, 431.062,417.342z M 229.462,433.302c 6.493,10.812, 24.156,16.429, 51.442,16.254
	c 27.49-0.194, 45.475-6.123, 51.986-17.194c 2.735-4.624, 3.361-9.955, 3.002-15.011L 226.535,417.352 C 226.046,422.877, 226.626,428.568, 229.462,433.302z
	 M 351.568,245.131l-52.105,0 l0-51.968 c0-10.185-8.178-18.418-18.372-18.418c-10.13,0-18.363,8.233-18.363,18.418l0,51.968 l-52.005,0 
	c-10.167,0-18.354,8.252-18.354,18.4c0,10.149, 8.188,18.363, 18.354,18.363l 52.005,0 l0,52.041 c0,10.167, 8.233,18.363, 18.363,18.363
	c 10.185,0, 18.372-8.196, 18.372-18.363l0-52.041 l 52.105,0 c 10.139,0, 18.363-8.215, 18.363-18.363C 369.922,253.391, 361.707,245.131, 351.568,245.131z" horiz-adv-x="554" data-tags="aid" />
<glyph unicode="&#x49;" d="M 426.53,252.069L 137.682,461.841c-10.547,7.691-24.576,8.784-36.17,2.844c-11.674-5.928-19.001-17.909-19.001-30.993l0-419.578 
	c0-13.062, 7.339-25.031, 19.001-30.97C 106.473-19.393, 111.878-20.622, 117.271-20.622c 7.214,0, 14.393,2.241, 20.412,6.633l 288.848,209.806
	c 9.045,6.542, 14.336,16.976, 14.336,28.137C 440.866,235.071, 435.519,245.527, 426.53,252.069z" data-tags="play-video" />
<glyph unicode="&#x4a;" d="M 245.635-20.622L 245.635,294.463 L 123.494,294.463 L 123.494,368.737 c 17.112-0.466, 33.655,0.796, 49.618,3.812c 15.963,3.004, 30.299,8.329, 43.031,15.963
	c 12.72,7.634, 23.472,17.704, 32.267,30.185c 8.784,12.493, 14.575,27.989, 17.351,46.501l 78.438,0 L 344.201-20.622 L 245.635-20.622 z" />
<glyph unicode="&#x4b;" d="M 264.374,268.794c 12.026,0.922, 23.245,3.573, 33.667,7.987c 10.399,4.392, 18.955,10.752, 25.668,19.081s 10.069,19.433, 10.069,33.314
	c0,20.821-6.929,36.784-20.821,47.889c-13.881,11.105-29.844,16.657-47.889,16.657c-24.974,0-43.839-8.226-56.559-24.644
	c-12.732-16.43-18.853-37.137-18.386-62.111L 96.415,306.967 c 0.922,24.986, 5.439,47.775, 13.54,68.358c 8.090,20.582, 19.433,38.286, 34.008,53.1
	c 14.575,14.802, 32.028,26.26, 52.395,34.361c 20.355,8.090, 43.031,12.151, 68.016,12.151c 19.433,0, 38.866-2.901, 58.3-8.681
	c 19.433-5.791, 36.898-14.461, 52.395-26.032c 15.497-11.571, 28.114-25.68, 37.831-42.337c 9.717-16.657, 14.564-35.863, 14.564-57.606
	c0-23.598-5.678-44.419-17.010-62.464s-28.331-30.31-50.995-36.784l0-1.388 c 26.817-6.019, 47.889-18.978, 63.158-38.866
	c 15.269-19.911, 22.903-43.736, 22.903-71.487c0-25.452-4.983-48.128-14.928-68.028c-9.956-19.888-23.245-36.557-39.913-49.971
	c-16.646-13.437-35.851-23.598-57.594-30.549c-21.754-6.929-44.419-10.399-68.028-10.399c-27.295,0-52.167,3.937-74.604,11.799
	c-22.448,7.851-41.529,19.308-57.253,34.361c-15.735,15.019-27.887,33.428-36.443,55.171c-8.567,21.743-12.607,46.729-12.14,74.968l 93.696,0 
	c 0.455-12.971, 2.537-25.338, 6.246-37.137c 3.698-11.799, 9.023-21.993, 15.963-30.549c 6.94-8.567, 15.622-15.394, 26.021-20.48
	c 10.411-5.086, 22.79-7.623, 37.137-7.623c 22.198,0, 40.949,6.815, 56.206,20.469c 15.28,13.642, 22.903,32.267, 22.903,55.865
	c0,18.512-3.573,32.62-10.752,42.337c-7.179,9.717-16.316,16.782-27.409,21.174c-11.105,4.392-23.256,6.929-36.432,7.634
	c-13.187,0.705-25.805,1.035-37.831,1.035l0,69.416 C 241.004,267.85, 252.336,267.85, 264.374,268.794z" />
<glyph unicode="&#x4c;" d="M 107.52,355.891c 7.396,23.825, 18.5,44.646, 33.314,62.464c 14.802,17.806, 33.428,31.687, 55.876,41.643c 22.437,9.944, 48.23,14.928, 77.38,14.928
			c 22.221,0, 43.372-3.47, 63.511-10.411c 20.139-6.94, 37.82-16.896, 53.089-29.844c 15.269-12.959, 27.42-28.922, 36.443-47.889
			c 9.023-18.978, 13.528-40.255, 13.528-63.852c0-24.53-3.937-45.579-11.799-63.158c-7.862-17.59-18.284-33.2-31.232-46.854
			c-12.959-13.642-27.659-26.021-44.078-37.126s-32.95-22.096-49.618-32.961c-16.646-10.877-32.859-22.551-48.583-35.044
			c-15.735-12.504-29.616-27.079-41.643-43.736l 229.729,0 L 443.438-20.622 L 86.699-20.622 c0,28.206, 4.050,52.747, 12.151,73.557c 8.090,20.821, 19.081,39.447, 32.961,55.876
			c 13.881,16.407, 30.185,31.573, 48.924,45.454c 18.739,13.892, 38.525,28.001, 59.346,42.337c 10.638,7.396, 21.97,14.928, 33.997,22.562
			s 23.017,16.065, 32.973,25.327c 9.933,9.25, 18.261,19.661, 24.974,31.232c 6.713,11.56, 10.069,24.747, 10.069,39.561c0,23.598-6.838,41.984-20.469,55.182
			c-13.665,13.187-31.13,19.775-52.395,19.775c-14.359,0-26.499-3.356-36.443-10.058c-9.956-6.713-17.943-15.508-23.939-26.374
			c-6.019-10.877-10.308-22.903-12.834-36.090c-2.549-13.187-3.812-26.26-3.812-39.208L 97.803,278.511 C 96.87,306.261, 100.113,332.055, 107.52,355.891z" />
<glyph unicode="&#x4e;" d="M 368.959,413.747c-42.598,0-82.193-19.877-111.946-56.047c-29.696,36.147-69.222,55.99-111.764,55.99C 82.261,413.702, 15.326,366.404, 15.326,278.727
	c0-90.169, 79.974-153.111, 138.377-199.066c 22.096-17.431, 38.32-29.798, 51.519-39.856c 20.855-15.883, 31.312-23.848, 42.61-35.066
	c 2.435-2.446, 5.723-3.8, 9.193-3.8c 3.493,0, 6.747,1.331, 9.227,3.8c 14.928,14.825, 28.456,25.099, 64.751,52.622l 29.195,22.164
	c 48.412,36.784, 138.547,105.301, 138.547,200.112C 498.734,366.746, 431.866,413.747, 368.959,413.747z" data-tags="heart" />
<glyph unicode="&#x56;" d="M 325.803,439.211L 184.161,439.211 c-87.643,0-158.959-77.164-158.959-171.998c0-86.687, 58.186-157.946, 135.498-170.132l0-78.848 
	c0-7.76, 4.71-14.723, 11.901-17.636c 2.298-0.899, 4.71-1.365, 7.088-1.365c 5.074,0, 10.058,2.048, 13.71,5.86l 86.278,90.089l 46.126,0 
	c 87.632,0, 158.936,77.175, 158.936,172.032C 484.739,362.047, 413.434,439.211, 325.803,439.211z" data-tags="chat" />
<glyph unicode="&#xb7;" d="M 491.982,460.203L 200.018,460.203 C 106.177,460.203, 30.087,385.727, 30.087,294.032c0-86.56, 66.673-157.295, 153.784-165.348c 2.969-0.271, 149.221-0.551, 152.19-0.551l 68.839-128.512
	c 3.22-6.98, 10.22-11.563, 18.022-11.563c 7.803,0, 14.783,4.563, 18.022,11.563l 58.348,128.512c 91.133,3.761, 162.379,76.371, 162.379,165.9C 661.913,385.727, 585.823,460.203, 491.982,460.203z" horiz-adv-x="692" data-tags="map-tips" />
<glyph unicode="&#x4d;" d="M 490.257,271.297l-100.284,76.436L 389.973,411.438 c0,4.176-1.593,7.578-3.55,7.578l-30.231,0 c-1.968,0-3.55-3.402-3.55-7.578l0-35.26 
	l-66.423,50.631c-7.464,7.1-17.226,10.98-27.557,10.98c-10.331,0-20.093-3.88-27.534-10.968L 27.034,271.297
	c-6.235-4.756-7.418-13.676-2.674-19.911c 2.776-3.664, 7.009-5.586, 11.298-5.586c 2.992,0, 6.042,0.933, 8.602,2.901l 29.127,22.209l0-239.127 
	c0-21.641, 18.773-39.287, 41.825-39.287l 85.72,0 L 200.932,143.434 c0,6.61, 3.265,11.947, 7.305,11.947l 109.648,0 c 4.039,0, 7.316-5.336, 7.316-11.947l0-150.949 l 79.599,0 
	c 23.074,0, 41.825,17.647, 41.825,39.287L 446.623,268.84 l 26.419-20.139c 6.212-4.756, 15.132-3.55, 19.877,2.674C 497.664,257.633, 496.481,266.53, 490.257,271.297z
	" data-tags="house" />
<glyph unicode="&#x35;" d="M 457.956,345.617L 60.291,345.617 c-18.853,0-34.133,15.28-34.133,34.133s 15.28,34.133, 34.133,34.133L 457.956,413.884 c 18.853,0, 34.133-15.28, 34.133-34.133S 476.809,345.617, 457.956,345.617zM 457.956,191.972L 60.291,191.972 c-18.853,0-34.133,15.28-34.133,34.133c0,18.853, 15.28,34.133, 34.133,34.133L 457.956,260.238 c 18.853,0, 34.133-15.28, 34.133-34.133
		C 492.089,207.241, 476.809,191.972, 457.956,191.972zM 457.956,29.281L 60.291,29.281 c-18.853,0-34.133,15.28-34.133,34.133s 15.28,34.133, 34.133,34.133L 457.956,97.547 c 18.853,0, 34.133-15.28, 34.133-34.133S 476.809,29.281, 457.956,29.281z" data-tags="menu" />
<glyph unicode="&#x45;" d="M 158.037,336.503l 167.287,0 c 3.049,0, 5.484,2.458, 5.484,5.507c0,3.026-2.446,5.484-5.484,5.484L 158.037,347.494 
		c-3.038,0-5.507-2.458-5.507-5.484C 152.53,338.961, 155.011,336.503, 158.037,336.503zM 504.65,404.417l-49.027,40.619c-3.573,2.958-8.886,2.469-11.844-1.115L 390.144,379.193L 390.144,398.82 c0,3.789-1.513,7.396-4.198,10.058
		l-54.67,53.851c-2.617,2.606-6.178,4.050-9.91,4.050L 105.119,466.779 C 97.337,466.779, 91.022,460.476, 91.022,452.682l0-376.878 c0-7.794, 6.315-14.108, 14.097-14.108
		l 270.894,0 c 7.828,0, 14.131,6.326, 14.131,14.108l0,177.152 L 505.788,392.539C 508.746,396.123, 508.257,401.448, 504.65,404.417z M 361.927,89.913L 119.239,89.913 L 119.239,438.551 
		l 187.46,0 l0-46 c0-4.676, 3.8-8.465, 8.465-8.465l 46.751,0 l0-38.946 l-41.62-50.244L 158.037,294.895 c-3.038,0-5.507-2.446-5.507-5.484
		s 2.469-5.507, 5.507-5.507l 153.145,0 l-32.575-39.299L 158.037,244.605 c-3.038,0-5.507-2.458-5.507-5.507s 2.469-5.484, 5.507-5.484l 111.479,0 l-10.069-12.151
		c-0.74-0.865-1.263-1.889-1.616-2.981l-7.521-25.236L 158.037,193.246 c-3.038,0-5.507-2.458-5.507-5.495s 2.469-5.518, 5.507-5.518l 89.008,0 
		l-12.425-41.574L 158.037,140.658 c-3.038,0-5.507-2.469-5.507-5.495s 2.469-5.495, 5.507-5.495l 79.61,0 c 0.808,0, 1.57,0.193, 2.264,0.512
		c 2.139-0.74, 4.517-0.66, 6.622,0.432l 72.306,37.365c 1.001,0.535, 1.889,1.24, 2.617,2.128l 40.471,48.822L 361.927,89.913 z M 309.612,182.209
		l-0.046-0.080l-28.16-14.529l-16.93,14.040l 0.182,0.569l 3.288,11.025l 5.575,18.751L 451.391,426.661l 15.713-13.028l-0.114-0.125L 297.927,209.471
		c-1.98-2.378-1.661-5.939, 0.728-7.908c 2.401-1.98, 5.951-1.65, 7.908,0.74L 475.637,406.363l 0.091,0.137l 11.685-9.694L 309.612,182.209z" data-tags="edit" />
<glyph unicode="&#x58;" d="M 256,468.622C 121.105,468.622, 11.378,358.906, 11.378,224C 11.378,89.128, 121.105-20.622, 256-20.622C 390.872-20.622, 500.622,89.128, 500.622,224C 500.622,358.906, 390.872,468.622, 256,468.622z
	 M 248.798,186.567l-50.29-50.29l 21.333-21.345c 1.866-1.855, 2.537-4.551, 1.718-7.054c-0.182-0.512-0.421-0.967-0.705-1.411
	c-0.25-0.421-0.523-0.762-0.842-1.104c-1.058-1.149-2.389-1.957-3.971-2.196l-77.961-12.368c-2.207-0.319-4.426,0.387-6.007,1.946
	s-2.287,3.812-1.968,5.985l 12.379,77.972c 0.421,2.583, 2.23,4.699, 4.722,5.507c 0.649,0.216, 1.354,0.307, 2.025,0.307l 0.102,0.034
	c 0.523,0, 1.024-0.068, 1.513-0.182c 0.148-0.034, 0.25-0.102, 0.353-0.137c 0.455-0.114, 0.865-0.239, 1.24-0.455
	c 0.159-0.080, 0.296-0.148, 0.444-0.25c 0.489-0.273, 0.944-0.614, 1.354-1.035l 12.038-12.004l 9.318-9.307l 50.29,50.267
	c 6.326,6.326, 16.589,6.326, 22.915,0C 255.090,203.133, 255.090,192.905, 248.798,186.567z M 382.384,268.658c-0.421-2.583-2.23-4.722-4.71-5.518
	c-0.671-0.216-1.331-0.296-2.048-0.33l-0.102,0c-0.535,0-1.001,0.057-1.513,0.182c0,0-0.239,0.057-0.364,0.102
	c-0.444,0.125-0.831,0.273-1.229,0.489c-0.159,0.046-0.296,0.125-0.444,0.216c-0.455,0.296-0.944,0.614-1.365,1.035l-12.026,12.015
	l-9.296,9.33l-50.301-50.278c-6.337-6.326-16.6-6.326-22.881,0c-6.372,6.315-6.372,16.577,0,22.892l 50.256,50.278l-21.345,21.345
	c-1.855,1.843-2.492,4.574-1.673,7.054c 0.137,0.512, 0.375,0.978, 0.671,1.422c 0.216,0.375, 0.523,0.74, 0.842,1.070
	c 1.058,1.149, 2.389,1.968, 4.016,2.207l 77.961,12.356c 2.185,0.341, 4.392-0.364, 5.962-1.957c 1.547-1.57, 2.287-3.789, 1.968-5.996
	L 382.384,268.658z" data-tags="expand" />
<glyph unicode="&#x3f;" d="M 256,468.622C 121.082,468.622, 11.378,358.929, 11.378,224C 11.378,89.173, 121.082-20.622, 256-20.622C 390.827-20.622, 500.622,89.173, 500.622,224C 500.622,358.929, 390.827,468.622, 256,468.622z
	 M 285.764,89.276c0-7.031-2.958-13.312-8.806-18.716c-5.803-5.518-13.733-8.146-23.302-8.146c-9.921,0-18.068,2.606-24.087,8.112
	c-6.394,5.404-9.523,11.685-9.523,18.739l0,11.992 c0,7.054, 3.118,13.346, 9.523,18.91c 6.019,5.336, 14.165,7.93, 24.087,7.93
	c 9.569,0, 17.499-2.628, 23.302-8.146c 5.848-5.404, 8.806-11.674, 8.806-18.705L 285.764,89.276 z M 352.063,269.431
	c-3.846-7.566-8.738-14.256-14.734-19.786c-5.769-5.518-12.038-10.399-18.716-14.677c-6.337-4.119-12.425-8.511-17.818-13.028
	c-5.473-4.597-9.91-9.557-13.369-15.11c-3.334-5.222-5.097-11.617-5.097-19.251l0-7.589 c0-5.086-2.435-10.342-7.27-15.679
	c-4.87-5.37-11.48-8.272-19.536-8.636l-1.593-0.034c-8.135,0-14.78,2.355-19.809,6.861c-5.302,5.052-7.862,10.502-7.862,16.589
	c0,13.961, 1.923,25.896, 5.791,35.453c 3.8,9.5, 8.556,17.715, 13.983,24.576c 5.598,6.713, 11.81,12.561, 18.523,17.431
	c 6.349,4.688, 12.368,9.296, 17.658,13.653c 4.983,4.267, 9.512,8.784, 12.993,13.494c 3.288,4.324, 4.824,9.569, 4.824,15.997
	c0,10.57-2.856,18.193-8.738,23.199c-6.087,5.074-14.347,7.669-24.769,7.669c-6.861,0-12.902-0.455-17.681-1.252
	c-4.71-0.876-9.023-2.185-12.88-4.198c-3.823-1.82-7.35-4.54-10.672-7.76c-3.391-3.493-7.088-7.828-10.809-13.016
	c-3.345-4.642-8.272-8.215-14.723-10.536c-6.531-2.389-13.938-1.707-21.504,1.911c-6.872,3.47-11.093,7.885-12.516,13.323
	c-1.297,4.983-1.297,10.217-0.011,15.497c 0.956,4.517, 3.732,10.047, 8.283,16.816c 4.506,6.667, 10.843,13.141, 18.978,19.308
	c 8.112,6.144, 18.409,11.457, 30.515,15.815c 12.277,4.46, 26.795,6.656, 43.452,6.656c 16.338,0, 30.595-2.446, 42.166-7.384
	c 11.787-4.881, 21.356-11.492, 28.501-19.479c 7.122-8.078, 12.368-17.34, 15.462-27.557c 3.277-10.069, 4.995-20.594, 4.995-31.209
	C 358.116,286.601, 355.965,277.18, 352.063,269.431z" data-tags="help" />
<glyph unicode="&#x20;" horiz-adv-x="256" />
</font>
</defs>
</svg>
