<?xml version="1.0" encoding="utf-8"?>
<!-- Generator: Adobe Illustrator 16.0.0, SVG Export Plug-In . SVG Version: 6.00 Build 0)  -->
<!DOCTYPE svg PUBLIC "-//W3C//DTD SVG 1.1//EN" "http://www.w3.org/Graphics/SVG/1.1/DTD/svg11.dtd">
<svg version="1.1" id="Layer_1" xmlns="http://www.w3.org/2000/svg" xmlns:xlink="http://www.w3.org/1999/xlink" x="0px" y="0px"
	 width="328px" height="108px" viewBox="47.333 0.167 328 108" enable-background="new 47.333 0.167 328 108" xml:space="preserve">
<g>
	<path fill="#FBB03B" d="M47.333,81.276V27.289c0-12.067,8.272-22.706,19.864-25.723c11.909-3.176,23.905,1.747,30.097,12.385
		c2.382,3.652,0.996,8.098-2.655,10.479c-3.652,2.064-8.077,0.794-10.458-2.858c-2.541-4.446-7.566-6.669-12.647-5.24
		c-4.922,1.27-8.201,5.875-8.201,10.956v53.987c0,5.24,3.29,9.686,8.211,11.115c5.081,1.27,10.219-0.953,12.76-5.4
		c2.381-3.65,6.776-4.922,10.428-2.857c3.652,2.383,5.056,6.828,2.674,10.48c-6.192,10.639-18.289,15.561-30.197,12.385
		C55.619,103.981,47.333,93.502,47.333,81.276z"/>
	<path fill="#FBB03B" d="M106.333,100.329V8.235c0-4.287,3.713-7.622,8-7.622s8,3.334,8,7.622v92.093c0,4.287-3.713,7.623-8,7.623
		S106.333,104.616,106.333,100.329z"/>
	<path fill="#FBB03B" d="M184.711,8.667c0,4.287-3.334,7.5-7.622,7.5h-12.756v84.162c0,4.287-3.713,7.623-8,7.623s-8-3.336-8-7.623
		V16.167h-12.527c-4.287,0-7.622-3.213-7.622-7.5s3.334-7.5,7.622-7.5h41.284C181.377,1.167,184.711,4.379,184.711,8.667z"/>
	<path fill="#FBB03B" d="M211.333,100.329V54.441l-21.648-42.713c-1.905-3.811-0.423-8.416,3.387-10.321
		c3.652-1.905,8.204-0.317,10.109,3.493l5.213,10.479c3.017,6.193,6.814,13.814,10.149,20.324
		c3.176-6.51,7.139-14.131,10.155-20.324l5.235-10.479c1.906-3.811,6.51-5.398,10.161-3.493c3.812,1.905,5.489,6.51,3.583,10.321
		l-21.346,42.713v45.887c0,4.287-3.213,7.623-7.5,7.623S211.333,104.616,211.333,100.329z"/>
	<path fill="#FBB03B" d="M256.333,21.573V8.871c0-4.287,3.32-7.704,7.607-7.704h38.108c2.382,0,4.446,0.994,6.034,2.899
		c1.429,1.905,1.905,4.149,1.429,6.531l-22.229,91.469c-1.111,4.287-4.923,6.832-9.21,5.721c-3.651-1.111-5.875-3.807-5.875-7.459
		c0-0.635,0.159-1.111,0.318-1.746c3.017-12.545,5.874-24.457,8.574-35.412c4.287-18.736,9.209-39.003,11.273-47.003h-21.03v5.407
		c0,4.287-3.213,7.622-7.5,7.622S256.333,25.86,256.333,21.573z"/>
	<path fill="#FBB03B" d="M324.436,13.952c3.651-6.193,8.892-10.321,16.037-12.385c6.827-1.905,13.813-0.953,20.006,2.382
		c6.352,3.334,10.639,8.574,12.703,15.72c1.905,6.828,1.271,13.814-1.905,20.006c-3.652,7.146-7.304,14.02-10.798,20.53
		c-5.874,11.273-13.02,23.962-16.83,31.962h23.023c4.287,0,7.621,3.213,7.621,7.5s-3.334,7.5-7.621,7.5h-35.567
		c-2.699,0-4.923-1.194-6.511-3.577c-1.429-2.381-1.429-4.726-0.317-7.425l33.503-63.495c1.43-2.858,1.588-5.707,0.794-8.724
		c-0.952-3.017-2.699-5.236-5.398-6.665c-2.699-1.429-5.716-1.744-8.732-0.95c-2.858,0.793-5.082,2.541-6.828,5.24
		c-2.064,3.652-6.669,4.923-10.321,2.859C323.642,22.049,322.372,17.604,324.436,13.952z"/>
</g>
</svg>
