<?xml version="1.0" encoding="utf-8"?>
<!-- Generator: Adobe Illustrator 16.0.0, SVG Export Plug-In . SVG Version: 6.00 Build 0)  -->
<!DOCTYPE svg PUBLIC "-//W3C//DTD SVG 1.1//EN" "http://www.w3.org/Graphics/SVG/1.1/DTD/svg11.dtd">
<svg version="1.1" id="Layer_1" xmlns="http://www.w3.org/2000/svg" xmlns:xlink="http://www.w3.org/1999/xlink" x="0px" y="0px"
	 width="431.667px" height="113.333px" viewBox="0 0 431.667 113.333" enable-background="new 0 0 431.667 113.333"
	 xml:space="preserve">
<g>
	<path fill="#FBB03B" d="M72.338,76.527l0.147,0.442c0.196,10.558-2.75,18.758-8.838,24.601c-6.089,5.844-14.461,8.765-25.116,8.765
		c-11,0-19.765-3.523-26.294-10.569c-6.531-7.046-9.796-16.928-9.796-29.646V40.362c0-12.668,3.216-22.562,9.649-29.683
		C18.521,3.561,27.162,0,38.015,0c10.949,0,19.493,2.835,25.632,8.507c6.138,5.671,9.108,13.958,8.912,24.858l-0.147,0.442H58.049
		c0-7.66-1.67-13.294-5.009-16.904c-3.339-3.609-8.348-5.414-15.025-5.414c-6.581,0-11.663,2.468-15.247,7.402
		c-3.585,4.935-5.376,12.019-5.376,21.25v29.978c0,9.33,1.841,16.474,5.524,21.433c3.683,4.96,8.887,7.439,15.615,7.439
		c6.481,0,11.343-1.779,14.583-5.34c3.241-3.56,4.861-9.268,4.861-17.125H72.338z"/>
	<path fill="#FBB03B" d="M104.967,108.788H90.015V1.546h14.952V108.788z"/>
	<path fill="#FBB03B" d="M188.859,13.037h-28.431v95.751h-15.025V13.037h-28.21V1.546h71.666V13.037z"/>
	<path fill="#FBB03B" d="M233.789,53.841h0.442l22.391-52.295h16.793l-32.187,68.646v38.595h-14.952v-39.7L194.678,1.546h16.646
		L233.789,53.841z"/>
	<path fill="#FBB03B" d="M349.131,17.824c-10.705,13.209-17.959,25.583-21.764,37.122c-3.807,11.54-5.709,25.116-5.709,40.731v13.11
		h-20.917v-13.11c0-15.074,2.418-28.86,7.255-41.357c4.836-12.496,11.87-24.661,21.102-36.496h-48.612V1.546h68.645V17.824z"/>
	<path fill="#FBB03B" d="M428.311,108.788h-65.699V94.94l29.682-37.49c4.223-5.695,7.256-10.606,9.098-14.731
		c1.84-4.125,2.762-7.881,2.762-11.269c0-4.664-0.896-8.36-2.689-11.085s-4.555-4.088-8.285-4.088c-3.881,0-6.863,1.731-8.949,5.193
		c-2.088,3.462-3.131,7.894-3.131,13.294h-20.402l-0.221-0.442c-0.197-9.575,2.699-17.688,8.691-24.343
		C375.156,3.327,383.16,0,393.178,0c10.164,0,18.031,2.812,23.605,8.433c5.572,5.623,8.359,13.271,8.359,22.943
		c0,6.531-1.607,12.547-4.824,18.045c-3.217,5.5-8.605,12.841-16.166,22.023l-14.584,21.139h38.742V108.788z"/>
</g>
</svg>
