<?xml version="1.0" encoding="UTF-8" standalone="no"?>
<svg width="162px" height="51px" viewBox="0 0 162 51" version="1.1" xmlns="http://www.w3.org/2000/svg" xmlns:xlink="http://www.w3.org/1999/xlink" xmlns:sketch="http://www.bohemiancoding.com/sketch/ns">
    <!-- Generator: Sketch Beta 3.4.2 (15820) - http://www.bohemiancoding.com/sketch -->
    <title>city72logo + OAK72-Copy-path + OAK72-Copy-path</title>
    <desc>Created with Sketch Beta.</desc>
    <defs></defs>
    <g id="Page-1" stroke="none" stroke-width="1" fill="none" fill-rule="evenodd" sketch:type="MSPage">
        <g id="city72logo-+-OAK72-Copy-path-+-OAK72-Copy-path" sketch:type="MSLayerGroup">
            <path d="M12.6675188,50.9804304 C19.6798952,50.9804304 25.3350375,45.3252881 25.3350375,38.3129117 L25.3350375,12.6762666 C25.3350375,5.66389012 19.6798952,0.00874781917 12.6675188,0.00874781917 C5.6551423,0.00874781917 0,5.66389012 0,12.6762666 L0,38.3129117 C0,45.3252881 5.6551423,50.9804304 12.6675188,50.9804304 L12.6675188,50.9804304 L12.6675188,50.9804304 Z M12.6675188,7.24732997 C15.6835947,7.24732997 18.0964554,9.66019068 18.0964554,12.6762666 L18.0964554,38.3129117 C18.0964554,41.3289876 15.6835947,43.7418483 12.6675188,43.7418483 C9.65144286,43.7418483 7.23858215,41.3289876 7.23858215,38.3129117 L7.23858215,12.6762666 C7.23858215,9.66019068 9.65144286,7.24732997 12.6675188,7.24732997 L12.6675188,7.24732997 L12.6675188,7.24732997 Z M50.6307349,2.64781423 C50.2537254,1.06437438 48.8210893,0.00874781917 47.1622476,0.00874781917 C45.5034059,0.00874781917 44.0707698,1.06437438 43.6937603,2.64781423 L31.6294567,46.3809147 C31.1016435,48.341364 32.2326719,50.3018134 34.1177194,50.8296266 C36.0781687,51.3574399 38.038618,50.2264115 38.5664313,48.341364 C38.5664313,48.341364 39.4712541,45.0990824 40.7530863,40.4241648 L53.5714089,40.4241648 C54.8532411,45.0990824 55.7580639,48.341364 55.7580639,48.341364 C56.2858772,50.2264115 58.2463265,51.3574399 60.2067758,50.8296266 C62.0918233,50.3018134 63.2228517,48.341364 62.6950385,46.3809147 L50.6307349,2.64781423 L50.6307349,2.64781423 Z M41.726939,33.1855827 C43.1595751,27.9828517 44.7430149,22.1769056 46.100249,17.2757823 C47.4574832,22.1769056 49.040923,27.9828517 50.4735591,33.1855827 L41.726939,33.1855827 L41.726939,33.1855827 Z M85.5024732,21.6490924 L96.8127578,5.73929202 C98.0191882,4.08045028 97.6421787,1.81839336 95.9833369,0.687364895 C94.3998971,-0.443663565 92.1378402,-0.0666540782 90.9314098,1.51678577 L77.8868816,19.8394468 L77.8868816,3.62803889 C77.8868816,1.66758956 76.3034417,0.00874781917 74.2675905,0.00874781917 C72.3071412,0.00874781917 70.6482994,1.66758956 70.6482994,3.62803889 L70.6482994,47.3611394 C70.6482994,49.3969906 72.3071412,50.9804304 74.2675905,50.9804304 C76.3034417,50.9804304 77.8868816,49.3969906 77.8868816,47.3611394 L77.8868816,32.2807599 L80.7521537,28.3598612 L90.6298022,48.9445792 C91.534625,50.7542247 93.6458781,51.5082437 95.4555237,50.6034209 C97.2651692,49.7740001 98.0191882,47.5873451 97.1897673,45.7776995 L85.5024732,21.6490924 L85.5024732,21.6490924 Z" id="city72logo" fill="#FF9F00" sketch:type="MSShapeGroup"></path>
            <path d="M109.221103,13.5810893 C111.256954,13.5810893 112.840394,11.9976495 112.840394,9.96179827 L112.840394,7.54893755 L122.718042,7.54893755 C120.983799,14.7875197 113.292805,46.5317185 113.292805,46.5317185 C113.217403,46.8333261 113.142001,47.0595318 113.142001,47.3611394 C113.142001,49.0199811 114.27303,50.4526172 115.931872,50.9050285 C117.892321,51.3574399 119.85277,50.1510096 120.305182,48.1905602 L130.861447,4.75906735 C131.087653,3.70344079 130.861447,2.57241233 130.18283,1.66758956 C129.504213,0.83816869 128.448587,0.310355409 127.317558,0.310355409 L109.221103,0.310355409 C107.260653,0.310355409 105.601812,1.96919715 105.601812,3.92964648 L105.601812,9.96179827 C105.601812,11.9976495 107.260653,13.5810893 109.221103,13.5810893 L109.221103,13.5810893 L109.221103,13.5810893 Z" id="OAK72-Copy-path" fill="#F9643D" sketch:type="MSShapeGroup"></path>
            <path d="M144.299931,9.96179827 C145.05395,8.75536791 146.184978,7.85054514 147.542212,7.47353566 C148.974848,7.09652617 150.407484,7.24732997 151.689317,7.92594704 C152.895747,8.60456412 153.80057,9.73559258 154.252981,11.0928267 C154.629991,12.4500609 154.479187,13.9580988 153.875972,15.2399311 L137.966171,45.40069 C137.438358,46.5317185 137.438358,47.8135507 138.116975,48.9445792 C138.795592,50.0002058 139.926621,50.6788228 141.208453,50.6788228 L158.098478,50.6788228 C160.058927,50.6788228 161.717769,49.095383 161.717769,47.0595318 C161.717769,45.0990824 160.058927,43.4402407 158.098478,43.4402407 L147.165203,43.4402407 C151.0107,36.2016586 160.285133,18.5576146 160.285133,18.5576146 C161.793171,15.6169406 162.094779,12.2238552 161.189956,9.0569755 C160.209731,5.81469392 158.098478,3.17562751 155.157804,1.59218766 C152.21713,0.00874781917 148.824045,-0.443663565 145.657165,0.461159203 C142.414883,1.36598197 139.700415,3.4772351 138.041573,6.3425072 C137.061349,8.07675084 137.664564,10.2634059 139.398807,11.3190324 C141.133051,12.2992571 143.319706,11.6960419 144.299931,9.96179827 L144.299931,9.96179827 Z" id="OAK72-Copy-path" fill="#F9643D" sketch:type="MSShapeGroup"></path>
        </g>
    </g>
</svg>